G04 #@! TF.GenerationSoftware,KiCad,Pcbnew,(5.1.5)-3*
G04 #@! TF.CreationDate,2020-10-27T23:28:23+01:00*
G04 #@! TF.ProjectId,control_loop_1,636f6e74-726f-46c5-9f6c-6f6f705f312e,rev?*
G04 #@! TF.SameCoordinates,Original*
G04 #@! TF.FileFunction,Soldermask,Bot*
G04 #@! TF.FilePolarity,Negative*
%FSLAX46Y46*%
G04 Gerber Fmt 4.6, Leading zero omitted, Abs format (unit mm)*
G04 Created by KiCad (PCBNEW (5.1.5)-3) date 2020-10-27 23:28:23*
%MOMM*%
%LPD*%
G04 APERTURE LIST*
%ADD10C,0.100000*%
G04 APERTURE END LIST*
D10*
G36*
X186622239Y-135327467D02*
G01*
X186936282Y-135389934D01*
X187527926Y-135635001D01*
X188060392Y-135990784D01*
X188513216Y-136443608D01*
X188868999Y-136976074D01*
X189114066Y-137567718D01*
X189114066Y-137567719D01*
X189239000Y-138195803D01*
X189239000Y-138836197D01*
X189208931Y-138987365D01*
X189114066Y-139464282D01*
X188868999Y-140055926D01*
X188513216Y-140588392D01*
X188060392Y-141041216D01*
X187527926Y-141396999D01*
X186936282Y-141642066D01*
X186622239Y-141704533D01*
X186308197Y-141767000D01*
X185667803Y-141767000D01*
X185353761Y-141704533D01*
X185039718Y-141642066D01*
X184448074Y-141396999D01*
X183915608Y-141041216D01*
X183462784Y-140588392D01*
X183107001Y-140055926D01*
X182861934Y-139464282D01*
X182767069Y-138987365D01*
X182737000Y-138836197D01*
X182737000Y-138195803D01*
X182861934Y-137567719D01*
X182861934Y-137567718D01*
X183107001Y-136976074D01*
X183462784Y-136443608D01*
X183915608Y-135990784D01*
X184448074Y-135635001D01*
X185039718Y-135389934D01*
X185353761Y-135327467D01*
X185667803Y-135265000D01*
X186308197Y-135265000D01*
X186622239Y-135327467D01*
G37*
G36*
X96622239Y-135327467D02*
G01*
X96936282Y-135389934D01*
X97527926Y-135635001D01*
X98060392Y-135990784D01*
X98513216Y-136443608D01*
X98868999Y-136976074D01*
X99114066Y-137567718D01*
X99114066Y-137567719D01*
X99239000Y-138195803D01*
X99239000Y-138836197D01*
X99208931Y-138987365D01*
X99114066Y-139464282D01*
X98868999Y-140055926D01*
X98513216Y-140588392D01*
X98060392Y-141041216D01*
X97527926Y-141396999D01*
X96936282Y-141642066D01*
X96622239Y-141704533D01*
X96308197Y-141767000D01*
X95667803Y-141767000D01*
X95353761Y-141704533D01*
X95039718Y-141642066D01*
X94448074Y-141396999D01*
X93915608Y-141041216D01*
X93462784Y-140588392D01*
X93107001Y-140055926D01*
X92861934Y-139464282D01*
X92767069Y-138987365D01*
X92737000Y-138836197D01*
X92737000Y-138195803D01*
X92861934Y-137567719D01*
X92861934Y-137567718D01*
X93107001Y-136976074D01*
X93462784Y-136443608D01*
X93915608Y-135990784D01*
X94448074Y-135635001D01*
X95039718Y-135389934D01*
X95353761Y-135327467D01*
X95667803Y-135265000D01*
X96308197Y-135265000D01*
X96622239Y-135327467D01*
G37*
G36*
X148103880Y-135935776D02*
G01*
X148484593Y-136011504D01*
X148894249Y-136181189D01*
X149262929Y-136427534D01*
X149576466Y-136741071D01*
X149822811Y-137109751D01*
X149992496Y-137519407D01*
X150079000Y-137954296D01*
X150079000Y-138397704D01*
X149992496Y-138832593D01*
X149822811Y-139242249D01*
X149576466Y-139610929D01*
X149262929Y-139924466D01*
X148894249Y-140170811D01*
X148484593Y-140340496D01*
X148103880Y-140416224D01*
X148049705Y-140427000D01*
X147606295Y-140427000D01*
X147552120Y-140416224D01*
X147171407Y-140340496D01*
X146761751Y-140170811D01*
X146393071Y-139924466D01*
X146079534Y-139610929D01*
X145833189Y-139242249D01*
X145663504Y-138832593D01*
X145577000Y-138397704D01*
X145577000Y-137954296D01*
X145663504Y-137519407D01*
X145833189Y-137109751D01*
X146079534Y-136741071D01*
X146393071Y-136427534D01*
X146761751Y-136181189D01*
X147171407Y-136011504D01*
X147552120Y-135935776D01*
X147606295Y-135925000D01*
X148049705Y-135925000D01*
X148103880Y-135935776D01*
G37*
G36*
X154453880Y-135935776D02*
G01*
X154834593Y-136011504D01*
X155244249Y-136181189D01*
X155612929Y-136427534D01*
X155926466Y-136741071D01*
X156172811Y-137109751D01*
X156342496Y-137519407D01*
X156429000Y-137954296D01*
X156429000Y-138397704D01*
X156342496Y-138832593D01*
X156172811Y-139242249D01*
X155926466Y-139610929D01*
X155612929Y-139924466D01*
X155244249Y-140170811D01*
X154834593Y-140340496D01*
X154453880Y-140416224D01*
X154399705Y-140427000D01*
X153956295Y-140427000D01*
X153902120Y-140416224D01*
X153521407Y-140340496D01*
X153111751Y-140170811D01*
X152743071Y-139924466D01*
X152429534Y-139610929D01*
X152183189Y-139242249D01*
X152013504Y-138832593D01*
X151927000Y-138397704D01*
X151927000Y-137954296D01*
X152013504Y-137519407D01*
X152183189Y-137109751D01*
X152429534Y-136741071D01*
X152743071Y-136427534D01*
X153111751Y-136181189D01*
X153521407Y-136011504D01*
X153902120Y-135935776D01*
X153956295Y-135925000D01*
X154399705Y-135925000D01*
X154453880Y-135935776D01*
G37*
G36*
X141753880Y-135935776D02*
G01*
X142134593Y-136011504D01*
X142544249Y-136181189D01*
X142912929Y-136427534D01*
X143226466Y-136741071D01*
X143472811Y-137109751D01*
X143642496Y-137519407D01*
X143729000Y-137954296D01*
X143729000Y-138397704D01*
X143642496Y-138832593D01*
X143472811Y-139242249D01*
X143226466Y-139610929D01*
X142912929Y-139924466D01*
X142544249Y-140170811D01*
X142134593Y-140340496D01*
X141753880Y-140416224D01*
X141699705Y-140427000D01*
X141256295Y-140427000D01*
X141202120Y-140416224D01*
X140821407Y-140340496D01*
X140411751Y-140170811D01*
X140043071Y-139924466D01*
X139729534Y-139610929D01*
X139483189Y-139242249D01*
X139313504Y-138832593D01*
X139227000Y-138397704D01*
X139227000Y-137954296D01*
X139313504Y-137519407D01*
X139483189Y-137109751D01*
X139729534Y-136741071D01*
X140043071Y-136427534D01*
X140411751Y-136181189D01*
X140821407Y-136011504D01*
X141202120Y-135935776D01*
X141256295Y-135925000D01*
X141699705Y-135925000D01*
X141753880Y-135935776D01*
G37*
G36*
X151269000Y-134378000D02*
G01*
X149467000Y-134378000D01*
X149467000Y-132576000D01*
X151269000Y-132576000D01*
X151269000Y-134378000D01*
G37*
G36*
X145401512Y-132580927D02*
G01*
X145550812Y-132610624D01*
X145714784Y-132678544D01*
X145862354Y-132777147D01*
X145987853Y-132902646D01*
X146086456Y-133050216D01*
X146154376Y-133214188D01*
X146189000Y-133388259D01*
X146189000Y-133565741D01*
X146154376Y-133739812D01*
X146086456Y-133903784D01*
X145987853Y-134051354D01*
X145862354Y-134176853D01*
X145714784Y-134275456D01*
X145550812Y-134343376D01*
X145401512Y-134373073D01*
X145376742Y-134378000D01*
X145199258Y-134378000D01*
X145174488Y-134373073D01*
X145025188Y-134343376D01*
X144861216Y-134275456D01*
X144713646Y-134176853D01*
X144588147Y-134051354D01*
X144489544Y-133903784D01*
X144421624Y-133739812D01*
X144387000Y-133565741D01*
X144387000Y-133388259D01*
X144421624Y-133214188D01*
X144489544Y-133050216D01*
X144588147Y-132902646D01*
X144713646Y-132777147D01*
X144861216Y-132678544D01*
X145025188Y-132610624D01*
X145174488Y-132580927D01*
X145199258Y-132576000D01*
X145376742Y-132576000D01*
X145401512Y-132580927D01*
G37*
G36*
X147941512Y-132580927D02*
G01*
X148090812Y-132610624D01*
X148254784Y-132678544D01*
X148402354Y-132777147D01*
X148527853Y-132902646D01*
X148626456Y-133050216D01*
X148694376Y-133214188D01*
X148729000Y-133388259D01*
X148729000Y-133565741D01*
X148694376Y-133739812D01*
X148626456Y-133903784D01*
X148527853Y-134051354D01*
X148402354Y-134176853D01*
X148254784Y-134275456D01*
X148090812Y-134343376D01*
X147941512Y-134373073D01*
X147916742Y-134378000D01*
X147739258Y-134378000D01*
X147714488Y-134373073D01*
X147565188Y-134343376D01*
X147401216Y-134275456D01*
X147253646Y-134176853D01*
X147128147Y-134051354D01*
X147029544Y-133903784D01*
X146961624Y-133739812D01*
X146927000Y-133565741D01*
X146927000Y-133388259D01*
X146961624Y-133214188D01*
X147029544Y-133050216D01*
X147128147Y-132902646D01*
X147253646Y-132777147D01*
X147401216Y-132678544D01*
X147565188Y-132610624D01*
X147714488Y-132580927D01*
X147739258Y-132576000D01*
X147916742Y-132576000D01*
X147941512Y-132580927D01*
G37*
G36*
X183763880Y-129275776D02*
G01*
X184144593Y-129351504D01*
X184554249Y-129521189D01*
X184922929Y-129767534D01*
X185236466Y-130081071D01*
X185482811Y-130449751D01*
X185652496Y-130859407D01*
X185739000Y-131294296D01*
X185739000Y-131737704D01*
X185652496Y-132172593D01*
X185482811Y-132582249D01*
X185236466Y-132950929D01*
X184922929Y-133264466D01*
X184554249Y-133510811D01*
X184144593Y-133680496D01*
X183763880Y-133756224D01*
X183709705Y-133767000D01*
X183266295Y-133767000D01*
X183212120Y-133756224D01*
X182831407Y-133680496D01*
X182421751Y-133510811D01*
X182053071Y-133264466D01*
X181739534Y-132950929D01*
X181493189Y-132582249D01*
X181323504Y-132172593D01*
X181237000Y-131737704D01*
X181237000Y-131294296D01*
X181323504Y-130859407D01*
X181493189Y-130449751D01*
X181739534Y-130081071D01*
X182053071Y-129767534D01*
X182421751Y-129521189D01*
X182831407Y-129351504D01*
X183212120Y-129275776D01*
X183266295Y-129265000D01*
X183709705Y-129265000D01*
X183763880Y-129275776D01*
G37*
G36*
X96748880Y-128985776D02*
G01*
X97129593Y-129061504D01*
X97539249Y-129231189D01*
X97907929Y-129477534D01*
X98221466Y-129791071D01*
X98467811Y-130159751D01*
X98637496Y-130569407D01*
X98724000Y-131004296D01*
X98724000Y-131447704D01*
X98637496Y-131882593D01*
X98467811Y-132292249D01*
X98221466Y-132660929D01*
X97907929Y-132974466D01*
X97539249Y-133220811D01*
X97129593Y-133390496D01*
X96748880Y-133466224D01*
X96694705Y-133477000D01*
X96251295Y-133477000D01*
X96197120Y-133466224D01*
X95816407Y-133390496D01*
X95406751Y-133220811D01*
X95038071Y-132974466D01*
X94724534Y-132660929D01*
X94478189Y-132292249D01*
X94308504Y-131882593D01*
X94222000Y-131447704D01*
X94222000Y-131004296D01*
X94308504Y-130569407D01*
X94478189Y-130159751D01*
X94724534Y-129791071D01*
X95038071Y-129477534D01*
X95406751Y-129231189D01*
X95816407Y-129061504D01*
X96197120Y-128985776D01*
X96251295Y-128975000D01*
X96694705Y-128975000D01*
X96748880Y-128985776D01*
G37*
G36*
X173337098Y-123150033D02*
G01*
X173801350Y-123342332D01*
X173801352Y-123342333D01*
X174219168Y-123621509D01*
X174574491Y-123976832D01*
X174853667Y-124394648D01*
X174853668Y-124394650D01*
X175045967Y-124858902D01*
X175144000Y-125351747D01*
X175144000Y-125854253D01*
X175045967Y-126347098D01*
X174853668Y-126811350D01*
X174853667Y-126811352D01*
X174574491Y-127229168D01*
X174219168Y-127584491D01*
X173801352Y-127863667D01*
X173801351Y-127863668D01*
X173801350Y-127863668D01*
X173337098Y-128055967D01*
X172844253Y-128154000D01*
X172341747Y-128154000D01*
X171848902Y-128055967D01*
X171384650Y-127863668D01*
X171384649Y-127863668D01*
X171384648Y-127863667D01*
X170966832Y-127584491D01*
X170611509Y-127229168D01*
X170332333Y-126811352D01*
X170332332Y-126811350D01*
X170140033Y-126347098D01*
X170042000Y-125854253D01*
X170042000Y-125351747D01*
X170140033Y-124858902D01*
X170332332Y-124394650D01*
X170332333Y-124394648D01*
X170611509Y-123976832D01*
X170966832Y-123621509D01*
X171384648Y-123342333D01*
X171384650Y-123342332D01*
X171848902Y-123150033D01*
X172341747Y-123052000D01*
X172844253Y-123052000D01*
X173337098Y-123150033D01*
G37*
G36*
X147937098Y-123150033D02*
G01*
X148401350Y-123342332D01*
X148401352Y-123342333D01*
X148819168Y-123621509D01*
X149174491Y-123976832D01*
X149453667Y-124394648D01*
X149453668Y-124394650D01*
X149645967Y-124858902D01*
X149744000Y-125351747D01*
X149744000Y-125854253D01*
X149645967Y-126347098D01*
X149453668Y-126811350D01*
X149453667Y-126811352D01*
X149174491Y-127229168D01*
X148819168Y-127584491D01*
X148401352Y-127863667D01*
X148401351Y-127863668D01*
X148401350Y-127863668D01*
X147937098Y-128055967D01*
X147444253Y-128154000D01*
X146941747Y-128154000D01*
X146448902Y-128055967D01*
X145984650Y-127863668D01*
X145984649Y-127863668D01*
X145984648Y-127863667D01*
X145566832Y-127584491D01*
X145211509Y-127229168D01*
X144932333Y-126811352D01*
X144932332Y-126811350D01*
X144740033Y-126347098D01*
X144642000Y-125854253D01*
X144642000Y-125351747D01*
X144740033Y-124858902D01*
X144932332Y-124394650D01*
X144932333Y-124394648D01*
X145211509Y-123976832D01*
X145566832Y-123621509D01*
X145984648Y-123342333D01*
X145984650Y-123342332D01*
X146448902Y-123150033D01*
X146941747Y-123052000D01*
X147444253Y-123052000D01*
X147937098Y-123150033D01*
G37*
G36*
X183600335Y-126159693D02*
G01*
X183750812Y-126189624D01*
X183914784Y-126257544D01*
X184062354Y-126356147D01*
X184187853Y-126481646D01*
X184286456Y-126629216D01*
X184354376Y-126793188D01*
X184389000Y-126967259D01*
X184389000Y-127144741D01*
X184354376Y-127318812D01*
X184286456Y-127482784D01*
X184187853Y-127630354D01*
X184062354Y-127755853D01*
X183914784Y-127854456D01*
X183750812Y-127922376D01*
X183601512Y-127952073D01*
X183576742Y-127957000D01*
X183399258Y-127957000D01*
X183374488Y-127952073D01*
X183225188Y-127922376D01*
X183061216Y-127854456D01*
X182913646Y-127755853D01*
X182788147Y-127630354D01*
X182689544Y-127482784D01*
X182621624Y-127318812D01*
X182587000Y-127144741D01*
X182587000Y-126967259D01*
X182621624Y-126793188D01*
X182689544Y-126629216D01*
X182788147Y-126481646D01*
X182913646Y-126356147D01*
X183061216Y-126257544D01*
X183225188Y-126189624D01*
X183375665Y-126159693D01*
X183399258Y-126155000D01*
X183576742Y-126155000D01*
X183600335Y-126159693D01*
G37*
G36*
X96748880Y-122635776D02*
G01*
X97129593Y-122711504D01*
X97539249Y-122881189D01*
X97907929Y-123127534D01*
X98221466Y-123441071D01*
X98467811Y-123809751D01*
X98637496Y-124219407D01*
X98724000Y-124654296D01*
X98724000Y-125097704D01*
X98637496Y-125532593D01*
X98467811Y-125942249D01*
X98221466Y-126310929D01*
X97907929Y-126624466D01*
X97539249Y-126870811D01*
X97129593Y-127040496D01*
X96748880Y-127116224D01*
X96694705Y-127127000D01*
X96251295Y-127127000D01*
X96197120Y-127116224D01*
X95816407Y-127040496D01*
X95406751Y-126870811D01*
X95038071Y-126624466D01*
X94724534Y-126310929D01*
X94478189Y-125942249D01*
X94308504Y-125532593D01*
X94222000Y-125097704D01*
X94222000Y-124654296D01*
X94308504Y-124219407D01*
X94478189Y-123809751D01*
X94724534Y-123441071D01*
X95038071Y-123127534D01*
X95406751Y-122881189D01*
X95816407Y-122711504D01*
X96197120Y-122635776D01*
X96251295Y-122625000D01*
X96694705Y-122625000D01*
X96748880Y-122635776D01*
G37*
G36*
X155764000Y-126554000D02*
G01*
X153862000Y-126554000D01*
X153862000Y-124652000D01*
X155764000Y-124652000D01*
X155764000Y-126554000D01*
G37*
G36*
X158304000Y-126554000D02*
G01*
X156402000Y-126554000D01*
X156402000Y-124652000D01*
X158304000Y-124652000D01*
X158304000Y-126554000D01*
G37*
G36*
X160844000Y-126554000D02*
G01*
X158942000Y-126554000D01*
X158942000Y-124652000D01*
X160844000Y-124652000D01*
X160844000Y-126554000D01*
G37*
G36*
X163384000Y-126554000D02*
G01*
X161482000Y-126554000D01*
X161482000Y-124652000D01*
X163384000Y-124652000D01*
X163384000Y-126554000D01*
G37*
G36*
X165924000Y-126554000D02*
G01*
X164022000Y-126554000D01*
X164022000Y-124652000D01*
X165924000Y-124652000D01*
X165924000Y-126554000D01*
G37*
G36*
X184389000Y-125417000D02*
G01*
X182587000Y-125417000D01*
X182587000Y-123615000D01*
X184389000Y-123615000D01*
X184389000Y-125417000D01*
G37*
G36*
X183763880Y-117775776D02*
G01*
X184144593Y-117851504D01*
X184554249Y-118021189D01*
X184922929Y-118267534D01*
X185236466Y-118581071D01*
X185482811Y-118949751D01*
X185652496Y-119359407D01*
X185739000Y-119794296D01*
X185739000Y-120237704D01*
X185652496Y-120672593D01*
X185482811Y-121082249D01*
X185236466Y-121450929D01*
X184922929Y-121764466D01*
X184554249Y-122010811D01*
X184144593Y-122180496D01*
X183763880Y-122256224D01*
X183709705Y-122267000D01*
X183266295Y-122267000D01*
X183212120Y-122256224D01*
X182831407Y-122180496D01*
X182421751Y-122010811D01*
X182053071Y-121764466D01*
X181739534Y-121450929D01*
X181493189Y-121082249D01*
X181323504Y-120672593D01*
X181237000Y-120237704D01*
X181237000Y-119794296D01*
X181323504Y-119359407D01*
X181493189Y-118949751D01*
X181739534Y-118581071D01*
X182053071Y-118267534D01*
X182421751Y-118021189D01*
X182831407Y-117851504D01*
X183212120Y-117775776D01*
X183266295Y-117765000D01*
X183709705Y-117765000D01*
X183763880Y-117775776D01*
G37*
G36*
X96748880Y-116285776D02*
G01*
X97129593Y-116361504D01*
X97539249Y-116531189D01*
X97907929Y-116777534D01*
X98221466Y-117091071D01*
X98467811Y-117459751D01*
X98637496Y-117869407D01*
X98724000Y-118304296D01*
X98724000Y-118747704D01*
X98637496Y-119182593D01*
X98467811Y-119592249D01*
X98221466Y-119960929D01*
X97907929Y-120274466D01*
X97539249Y-120520811D01*
X97129593Y-120690496D01*
X96748880Y-120766224D01*
X96694705Y-120777000D01*
X96251295Y-120777000D01*
X96197120Y-120766224D01*
X95816407Y-120690496D01*
X95406751Y-120520811D01*
X95038071Y-120274466D01*
X94724534Y-119960929D01*
X94478189Y-119592249D01*
X94308504Y-119182593D01*
X94222000Y-118747704D01*
X94222000Y-118304296D01*
X94308504Y-117869407D01*
X94478189Y-117459751D01*
X94724534Y-117091071D01*
X95038071Y-116777534D01*
X95406751Y-116531189D01*
X95816407Y-116361504D01*
X96197120Y-116285776D01*
X96251295Y-116275000D01*
X96694705Y-116275000D01*
X96748880Y-116285776D01*
G37*
G36*
X97317880Y-106643776D02*
G01*
X97698593Y-106719504D01*
X98108249Y-106889189D01*
X98476929Y-107135534D01*
X98790466Y-107449071D01*
X99036811Y-107817751D01*
X99206496Y-108227407D01*
X99293000Y-108662296D01*
X99293000Y-109105704D01*
X99206496Y-109540593D01*
X99036811Y-109950249D01*
X98790466Y-110318929D01*
X98476929Y-110632466D01*
X98108249Y-110878811D01*
X97698593Y-111048496D01*
X97317880Y-111124224D01*
X97263705Y-111135000D01*
X96820295Y-111135000D01*
X96766120Y-111124224D01*
X96385407Y-111048496D01*
X95975751Y-110878811D01*
X95607071Y-110632466D01*
X95293534Y-110318929D01*
X95047189Y-109950249D01*
X94877504Y-109540593D01*
X94791000Y-109105704D01*
X94791000Y-108662296D01*
X94877504Y-108227407D01*
X95047189Y-107817751D01*
X95293534Y-107449071D01*
X95607071Y-107135534D01*
X95975751Y-106889189D01*
X96385407Y-106719504D01*
X96766120Y-106643776D01*
X96820295Y-106633000D01*
X97263705Y-106633000D01*
X97317880Y-106643776D01*
G37*
G36*
X102959500Y-106419500D02*
G01*
X101157500Y-106419500D01*
X101157500Y-104617500D01*
X102959500Y-104617500D01*
X102959500Y-106419500D01*
G37*
G36*
X97317880Y-100928776D02*
G01*
X97698593Y-101004504D01*
X98108249Y-101174189D01*
X98476929Y-101420534D01*
X98790466Y-101734071D01*
X99036811Y-102102751D01*
X99206496Y-102512407D01*
X99293000Y-102947296D01*
X99293000Y-103390704D01*
X99206496Y-103825593D01*
X99036811Y-104235249D01*
X98790466Y-104603929D01*
X98476929Y-104917466D01*
X98108249Y-105163811D01*
X97698593Y-105333496D01*
X97317880Y-105409224D01*
X97263705Y-105420000D01*
X96820295Y-105420000D01*
X96766120Y-105409224D01*
X96385407Y-105333496D01*
X95975751Y-105163811D01*
X95607071Y-104917466D01*
X95293534Y-104603929D01*
X95047189Y-104235249D01*
X94877504Y-103825593D01*
X94791000Y-103390704D01*
X94791000Y-102947296D01*
X94877504Y-102512407D01*
X95047189Y-102102751D01*
X95293534Y-101734071D01*
X95607071Y-101420534D01*
X95975751Y-101174189D01*
X96385407Y-101004504D01*
X96766120Y-100928776D01*
X96820295Y-100918000D01*
X97263705Y-100918000D01*
X97317880Y-100928776D01*
G37*
G36*
X102172012Y-102082427D02*
G01*
X102321312Y-102112124D01*
X102485284Y-102180044D01*
X102632854Y-102278647D01*
X102758353Y-102404146D01*
X102856956Y-102551716D01*
X102924876Y-102715688D01*
X102959500Y-102889759D01*
X102959500Y-103067241D01*
X102924876Y-103241312D01*
X102856956Y-103405284D01*
X102758353Y-103552854D01*
X102632854Y-103678353D01*
X102485284Y-103776956D01*
X102321312Y-103844876D01*
X102172012Y-103874573D01*
X102147242Y-103879500D01*
X101969758Y-103879500D01*
X101944988Y-103874573D01*
X101795688Y-103844876D01*
X101631716Y-103776956D01*
X101484146Y-103678353D01*
X101358647Y-103552854D01*
X101260044Y-103405284D01*
X101192124Y-103241312D01*
X101157500Y-103067241D01*
X101157500Y-102889759D01*
X101192124Y-102715688D01*
X101260044Y-102551716D01*
X101358647Y-102404146D01*
X101484146Y-102278647D01*
X101631716Y-102180044D01*
X101795688Y-102112124D01*
X101944988Y-102082427D01*
X101969758Y-102077500D01*
X102147242Y-102077500D01*
X102172012Y-102082427D01*
G37*
G36*
X102172012Y-99542427D02*
G01*
X102321312Y-99572124D01*
X102485284Y-99640044D01*
X102632854Y-99738647D01*
X102758353Y-99864146D01*
X102856956Y-100011716D01*
X102924876Y-100175688D01*
X102959500Y-100349759D01*
X102959500Y-100527241D01*
X102924876Y-100701312D01*
X102856956Y-100865284D01*
X102758353Y-101012854D01*
X102632854Y-101138353D01*
X102485284Y-101236956D01*
X102321312Y-101304876D01*
X102172012Y-101334573D01*
X102147242Y-101339500D01*
X101969758Y-101339500D01*
X101944988Y-101334573D01*
X101795688Y-101304876D01*
X101631716Y-101236956D01*
X101484146Y-101138353D01*
X101358647Y-101012854D01*
X101260044Y-100865284D01*
X101192124Y-100701312D01*
X101157500Y-100527241D01*
X101157500Y-100349759D01*
X101192124Y-100175688D01*
X101260044Y-100011716D01*
X101358647Y-99864146D01*
X101484146Y-99738647D01*
X101631716Y-99640044D01*
X101795688Y-99572124D01*
X101944988Y-99542427D01*
X101969758Y-99537500D01*
X102147242Y-99537500D01*
X102172012Y-99542427D01*
G37*
G36*
X97317880Y-95213776D02*
G01*
X97698593Y-95289504D01*
X98108249Y-95459189D01*
X98476929Y-95705534D01*
X98790466Y-96019071D01*
X99036811Y-96387751D01*
X99206496Y-96797407D01*
X99293000Y-97232296D01*
X99293000Y-97675704D01*
X99206496Y-98110593D01*
X99036811Y-98520249D01*
X98790466Y-98888929D01*
X98476929Y-99202466D01*
X98108249Y-99448811D01*
X97698593Y-99618496D01*
X97317880Y-99694224D01*
X97263705Y-99705000D01*
X96820295Y-99705000D01*
X96766120Y-99694224D01*
X96385407Y-99618496D01*
X95975751Y-99448811D01*
X95607071Y-99202466D01*
X95293534Y-98888929D01*
X95047189Y-98520249D01*
X94877504Y-98110593D01*
X94791000Y-97675704D01*
X94791000Y-97232296D01*
X94877504Y-96797407D01*
X95047189Y-96387751D01*
X95293534Y-96019071D01*
X95607071Y-95705534D01*
X95975751Y-95459189D01*
X96385407Y-95289504D01*
X96766120Y-95213776D01*
X96820295Y-95203000D01*
X97263705Y-95203000D01*
X97317880Y-95213776D01*
G37*
G36*
X184771512Y-94099927D02*
G01*
X184920812Y-94129624D01*
X185084784Y-94197544D01*
X185232354Y-94296147D01*
X185357853Y-94421646D01*
X185456456Y-94569216D01*
X185524376Y-94733188D01*
X185559000Y-94907259D01*
X185559000Y-95084741D01*
X185524376Y-95258812D01*
X185456456Y-95422784D01*
X185357853Y-95570354D01*
X185232354Y-95695853D01*
X185084784Y-95794456D01*
X184920812Y-95862376D01*
X184771512Y-95892073D01*
X184746742Y-95897000D01*
X184569258Y-95897000D01*
X184544488Y-95892073D01*
X184395188Y-95862376D01*
X184231216Y-95794456D01*
X184083646Y-95695853D01*
X183958147Y-95570354D01*
X183859544Y-95422784D01*
X183791624Y-95258812D01*
X183757000Y-95084741D01*
X183757000Y-94907259D01*
X183791624Y-94733188D01*
X183859544Y-94569216D01*
X183958147Y-94421646D01*
X184083646Y-94296147D01*
X184231216Y-94197544D01*
X184395188Y-94129624D01*
X184544488Y-94099927D01*
X184569258Y-94095000D01*
X184746742Y-94095000D01*
X184771512Y-94099927D01*
G37*
G36*
X173337098Y-90130033D02*
G01*
X173745101Y-90299033D01*
X173801352Y-90322333D01*
X174219168Y-90601509D01*
X174574491Y-90956832D01*
X174805821Y-91303042D01*
X174853668Y-91374650D01*
X175045967Y-91838902D01*
X175144000Y-92331747D01*
X175144000Y-92834253D01*
X175045967Y-93327098D01*
X174923301Y-93623240D01*
X174853667Y-93791352D01*
X174574491Y-94209168D01*
X174219168Y-94564491D01*
X173801352Y-94843667D01*
X173801351Y-94843668D01*
X173801350Y-94843668D01*
X173337098Y-95035967D01*
X172844253Y-95134000D01*
X172341747Y-95134000D01*
X171848902Y-95035967D01*
X171384650Y-94843668D01*
X171384649Y-94843668D01*
X171384648Y-94843667D01*
X170966832Y-94564491D01*
X170611509Y-94209168D01*
X170332333Y-93791352D01*
X170262699Y-93623240D01*
X170140033Y-93327098D01*
X170042000Y-92834253D01*
X170042000Y-92331747D01*
X170140033Y-91838902D01*
X170332332Y-91374650D01*
X170380179Y-91303042D01*
X170611509Y-90956832D01*
X170966832Y-90601509D01*
X171384648Y-90322333D01*
X171440899Y-90299033D01*
X171848902Y-90130033D01*
X172341747Y-90032000D01*
X172844253Y-90032000D01*
X173337098Y-90130033D01*
G37*
G36*
X147937098Y-90130033D02*
G01*
X148345101Y-90299033D01*
X148401352Y-90322333D01*
X148819168Y-90601509D01*
X149174491Y-90956832D01*
X149405821Y-91303042D01*
X149453668Y-91374650D01*
X149645967Y-91838902D01*
X149744000Y-92331747D01*
X149744000Y-92834253D01*
X149645967Y-93327098D01*
X149523301Y-93623240D01*
X149453667Y-93791352D01*
X149174491Y-94209168D01*
X148819168Y-94564491D01*
X148401352Y-94843667D01*
X148401351Y-94843668D01*
X148401350Y-94843668D01*
X147937098Y-95035967D01*
X147444253Y-95134000D01*
X146941747Y-95134000D01*
X146448902Y-95035967D01*
X145984650Y-94843668D01*
X145984649Y-94843668D01*
X145984648Y-94843667D01*
X145566832Y-94564491D01*
X145211509Y-94209168D01*
X144932333Y-93791352D01*
X144862699Y-93623240D01*
X144740033Y-93327098D01*
X144642000Y-92834253D01*
X144642000Y-92331747D01*
X144740033Y-91838902D01*
X144932332Y-91374650D01*
X144980179Y-91303042D01*
X145211509Y-90956832D01*
X145566832Y-90601509D01*
X145984648Y-90322333D01*
X146040899Y-90299033D01*
X146448902Y-90130033D01*
X146941747Y-90032000D01*
X147444253Y-90032000D01*
X147937098Y-90130033D01*
G37*
G36*
X107383241Y-90832760D02*
G01*
X107647305Y-90942139D01*
X107884958Y-91100934D01*
X108087066Y-91303042D01*
X108245861Y-91540695D01*
X108355240Y-91804759D01*
X108411000Y-92085088D01*
X108411000Y-92370912D01*
X108355240Y-92651241D01*
X108245861Y-92915305D01*
X108087066Y-93152958D01*
X107884958Y-93355066D01*
X107647305Y-93513861D01*
X107383241Y-93623240D01*
X107102912Y-93679000D01*
X106817088Y-93679000D01*
X106536759Y-93623240D01*
X106272695Y-93513861D01*
X106035042Y-93355066D01*
X105832934Y-93152958D01*
X105674139Y-92915305D01*
X105564760Y-92651241D01*
X105509000Y-92370912D01*
X105509000Y-92085088D01*
X105564760Y-91804759D01*
X105674139Y-91540695D01*
X105832934Y-91303042D01*
X106035042Y-91100934D01*
X106272695Y-90942139D01*
X106536759Y-90832760D01*
X106817088Y-90777000D01*
X107102912Y-90777000D01*
X107383241Y-90832760D01*
G37*
G36*
X158304000Y-93534000D02*
G01*
X156402000Y-93534000D01*
X156402000Y-91632000D01*
X158304000Y-91632000D01*
X158304000Y-93534000D01*
G37*
G36*
X155764000Y-93534000D02*
G01*
X153862000Y-93534000D01*
X153862000Y-91632000D01*
X155764000Y-91632000D01*
X155764000Y-93534000D01*
G37*
G36*
X160844000Y-93534000D02*
G01*
X158942000Y-93534000D01*
X158942000Y-91632000D01*
X160844000Y-91632000D01*
X160844000Y-93534000D01*
G37*
G36*
X163384000Y-93534000D02*
G01*
X161482000Y-93534000D01*
X161482000Y-91632000D01*
X163384000Y-91632000D01*
X163384000Y-93534000D01*
G37*
G36*
X165924000Y-93534000D02*
G01*
X164022000Y-93534000D01*
X164022000Y-91632000D01*
X165924000Y-91632000D01*
X165924000Y-93534000D01*
G37*
G36*
X184771512Y-91559927D02*
G01*
X184920812Y-91589624D01*
X185084784Y-91657544D01*
X185232354Y-91756147D01*
X185357853Y-91881646D01*
X185456456Y-92029216D01*
X185524376Y-92193188D01*
X185559000Y-92367259D01*
X185559000Y-92544741D01*
X185524376Y-92718812D01*
X185456456Y-92882784D01*
X185357853Y-93030354D01*
X185232354Y-93155853D01*
X185084784Y-93254456D01*
X184920812Y-93322376D01*
X184771512Y-93352073D01*
X184746742Y-93357000D01*
X184569258Y-93357000D01*
X184544488Y-93352073D01*
X184395188Y-93322376D01*
X184231216Y-93254456D01*
X184083646Y-93155853D01*
X183958147Y-93030354D01*
X183859544Y-92882784D01*
X183791624Y-92718812D01*
X183757000Y-92544741D01*
X183757000Y-92367259D01*
X183791624Y-92193188D01*
X183859544Y-92029216D01*
X183958147Y-91881646D01*
X184083646Y-91756147D01*
X184231216Y-91657544D01*
X184395188Y-91589624D01*
X184544488Y-91559927D01*
X184569258Y-91555000D01*
X184746742Y-91555000D01*
X184771512Y-91559927D01*
G37*
G36*
X97263880Y-86525776D02*
G01*
X97644593Y-86601504D01*
X98054249Y-86771189D01*
X98422929Y-87017534D01*
X98736466Y-87331071D01*
X98982811Y-87699751D01*
X99152496Y-88109407D01*
X99239000Y-88544296D01*
X99239000Y-88987704D01*
X99152496Y-89422593D01*
X98982811Y-89832249D01*
X98736466Y-90200929D01*
X98422929Y-90514466D01*
X98054249Y-90760811D01*
X97644593Y-90930496D01*
X97263880Y-91006224D01*
X97209705Y-91017000D01*
X96766295Y-91017000D01*
X96712120Y-91006224D01*
X96331407Y-90930496D01*
X95921751Y-90760811D01*
X95553071Y-90514466D01*
X95239534Y-90200929D01*
X94993189Y-89832249D01*
X94823504Y-89422593D01*
X94737000Y-88987704D01*
X94737000Y-88544296D01*
X94823504Y-88109407D01*
X94993189Y-87699751D01*
X95239534Y-87331071D01*
X95553071Y-87017534D01*
X95921751Y-86771189D01*
X96331407Y-86601504D01*
X96712120Y-86525776D01*
X96766295Y-86515000D01*
X97209705Y-86515000D01*
X97263880Y-86525776D01*
G37*
G36*
X184771512Y-89019927D02*
G01*
X184920812Y-89049624D01*
X185084784Y-89117544D01*
X185232354Y-89216147D01*
X185357853Y-89341646D01*
X185456456Y-89489216D01*
X185524376Y-89653188D01*
X185554073Y-89802488D01*
X185559000Y-89827258D01*
X185559000Y-90004742D01*
X185554073Y-90029512D01*
X185524376Y-90178812D01*
X185456456Y-90342784D01*
X185357853Y-90490354D01*
X185232354Y-90615853D01*
X185084784Y-90714456D01*
X184920812Y-90782376D01*
X184771512Y-90812073D01*
X184746742Y-90817000D01*
X184569258Y-90817000D01*
X184544488Y-90812073D01*
X184395188Y-90782376D01*
X184231216Y-90714456D01*
X184083646Y-90615853D01*
X183958147Y-90490354D01*
X183859544Y-90342784D01*
X183791624Y-90178812D01*
X183761927Y-90029512D01*
X183757000Y-90004742D01*
X183757000Y-89827258D01*
X183761927Y-89802488D01*
X183791624Y-89653188D01*
X183859544Y-89489216D01*
X183958147Y-89341646D01*
X184083646Y-89216147D01*
X184231216Y-89117544D01*
X184395188Y-89049624D01*
X184544488Y-89019927D01*
X184569258Y-89015000D01*
X184746742Y-89015000D01*
X184771512Y-89019927D01*
G37*
G36*
X184771512Y-86479927D02*
G01*
X184920812Y-86509624D01*
X185084784Y-86577544D01*
X185232354Y-86676147D01*
X185357853Y-86801646D01*
X185456456Y-86949216D01*
X185524376Y-87113188D01*
X185559000Y-87287259D01*
X185559000Y-87464741D01*
X185524376Y-87638812D01*
X185456456Y-87802784D01*
X185357853Y-87950354D01*
X185232354Y-88075853D01*
X185084784Y-88174456D01*
X184920812Y-88242376D01*
X184771512Y-88272073D01*
X184746742Y-88277000D01*
X184569258Y-88277000D01*
X184544488Y-88272073D01*
X184395188Y-88242376D01*
X184231216Y-88174456D01*
X184083646Y-88075853D01*
X183958147Y-87950354D01*
X183859544Y-87802784D01*
X183791624Y-87638812D01*
X183757000Y-87464741D01*
X183757000Y-87287259D01*
X183791624Y-87113188D01*
X183859544Y-86949216D01*
X183958147Y-86801646D01*
X184083646Y-86676147D01*
X184231216Y-86577544D01*
X184395188Y-86509624D01*
X184544488Y-86479927D01*
X184569258Y-86475000D01*
X184746742Y-86475000D01*
X184771512Y-86479927D01*
G37*
G36*
X185559000Y-85737000D02*
G01*
X183757000Y-85737000D01*
X183757000Y-83935000D01*
X185559000Y-83935000D01*
X185559000Y-85737000D01*
G37*
G36*
X97263880Y-79025776D02*
G01*
X97644593Y-79101504D01*
X98054249Y-79271189D01*
X98422929Y-79517534D01*
X98736466Y-79831071D01*
X98982811Y-80199751D01*
X99152496Y-80609407D01*
X99239000Y-81044296D01*
X99239000Y-81487704D01*
X99152496Y-81922593D01*
X98982811Y-82332249D01*
X98736466Y-82700929D01*
X98422929Y-83014466D01*
X98054249Y-83260811D01*
X97644593Y-83430496D01*
X97263880Y-83506224D01*
X97209705Y-83517000D01*
X96766295Y-83517000D01*
X96712120Y-83506224D01*
X96331407Y-83430496D01*
X95921751Y-83260811D01*
X95553071Y-83014466D01*
X95239534Y-82700929D01*
X94993189Y-82332249D01*
X94823504Y-81922593D01*
X94737000Y-81487704D01*
X94737000Y-81044296D01*
X94823504Y-80609407D01*
X94993189Y-80199751D01*
X95239534Y-79831071D01*
X95553071Y-79517534D01*
X95921751Y-79271189D01*
X96331407Y-79101504D01*
X96712120Y-79025776D01*
X96766295Y-79015000D01*
X97209705Y-79015000D01*
X97263880Y-79025776D01*
G37*
G36*
X109079512Y-79494927D02*
G01*
X109228812Y-79524624D01*
X109392784Y-79592544D01*
X109540354Y-79691147D01*
X109665853Y-79816646D01*
X109764456Y-79964216D01*
X109832376Y-80128188D01*
X109867000Y-80302259D01*
X109867000Y-80479741D01*
X109832376Y-80653812D01*
X109764456Y-80817784D01*
X109665853Y-80965354D01*
X109540354Y-81090853D01*
X109392784Y-81189456D01*
X109228812Y-81257376D01*
X109079512Y-81287073D01*
X109054742Y-81292000D01*
X108877258Y-81292000D01*
X108852488Y-81287073D01*
X108703188Y-81257376D01*
X108539216Y-81189456D01*
X108391646Y-81090853D01*
X108266147Y-80965354D01*
X108167544Y-80817784D01*
X108099624Y-80653812D01*
X108065000Y-80479741D01*
X108065000Y-80302259D01*
X108099624Y-80128188D01*
X108167544Y-79964216D01*
X108266147Y-79816646D01*
X108391646Y-79691147D01*
X108539216Y-79592544D01*
X108703188Y-79524624D01*
X108852488Y-79494927D01*
X108877258Y-79490000D01*
X109054742Y-79490000D01*
X109079512Y-79494927D01*
G37*
G36*
X109079512Y-76954927D02*
G01*
X109228812Y-76984624D01*
X109392784Y-77052544D01*
X109540354Y-77151147D01*
X109665853Y-77276646D01*
X109764456Y-77424216D01*
X109832376Y-77588188D01*
X109867000Y-77762259D01*
X109867000Y-77939741D01*
X109832376Y-78113812D01*
X109764456Y-78277784D01*
X109665853Y-78425354D01*
X109540354Y-78550853D01*
X109392784Y-78649456D01*
X109228812Y-78717376D01*
X109079512Y-78747073D01*
X109054742Y-78752000D01*
X108877258Y-78752000D01*
X108852488Y-78747073D01*
X108703188Y-78717376D01*
X108539216Y-78649456D01*
X108391646Y-78550853D01*
X108266147Y-78425354D01*
X108167544Y-78277784D01*
X108099624Y-78113812D01*
X108065000Y-77939741D01*
X108065000Y-77762259D01*
X108099624Y-77588188D01*
X108167544Y-77424216D01*
X108266147Y-77276646D01*
X108391646Y-77151147D01*
X108539216Y-77052544D01*
X108703188Y-76984624D01*
X108852488Y-76954927D01*
X108877258Y-76950000D01*
X109054742Y-76950000D01*
X109079512Y-76954927D01*
G37*
G36*
X109079512Y-74414927D02*
G01*
X109228812Y-74444624D01*
X109392784Y-74512544D01*
X109540354Y-74611147D01*
X109665853Y-74736646D01*
X109764456Y-74884216D01*
X109832376Y-75048188D01*
X109867000Y-75222259D01*
X109867000Y-75399741D01*
X109832376Y-75573812D01*
X109764456Y-75737784D01*
X109665853Y-75885354D01*
X109540354Y-76010853D01*
X109392784Y-76109456D01*
X109228812Y-76177376D01*
X109079512Y-76207073D01*
X109054742Y-76212000D01*
X108877258Y-76212000D01*
X108852488Y-76207073D01*
X108703188Y-76177376D01*
X108539216Y-76109456D01*
X108391646Y-76010853D01*
X108266147Y-75885354D01*
X108167544Y-75737784D01*
X108099624Y-75573812D01*
X108065000Y-75399741D01*
X108065000Y-75222259D01*
X108099624Y-75048188D01*
X108167544Y-74884216D01*
X108266147Y-74736646D01*
X108391646Y-74611147D01*
X108539216Y-74512544D01*
X108703188Y-74444624D01*
X108852488Y-74414927D01*
X108877258Y-74410000D01*
X109054742Y-74410000D01*
X109079512Y-74414927D01*
G37*
G36*
X97263880Y-71525776D02*
G01*
X97644593Y-71601504D01*
X98054249Y-71771189D01*
X98422929Y-72017534D01*
X98736466Y-72331071D01*
X98982811Y-72699751D01*
X99152496Y-73109407D01*
X99239000Y-73544296D01*
X99239000Y-73987704D01*
X99152496Y-74422593D01*
X98982811Y-74832249D01*
X98736466Y-75200929D01*
X98422929Y-75514466D01*
X98054249Y-75760811D01*
X97644593Y-75930496D01*
X97263880Y-76006224D01*
X97209705Y-76017000D01*
X96766295Y-76017000D01*
X96712120Y-76006224D01*
X96331407Y-75930496D01*
X95921751Y-75760811D01*
X95553071Y-75514466D01*
X95239534Y-75200929D01*
X94993189Y-74832249D01*
X94823504Y-74422593D01*
X94737000Y-73987704D01*
X94737000Y-73544296D01*
X94823504Y-73109407D01*
X94993189Y-72699751D01*
X95239534Y-72331071D01*
X95553071Y-72017534D01*
X95921751Y-71771189D01*
X96331407Y-71601504D01*
X96712120Y-71525776D01*
X96766295Y-71515000D01*
X97209705Y-71515000D01*
X97263880Y-71525776D01*
G37*
G36*
X109867000Y-73672000D02*
G01*
X108065000Y-73672000D01*
X108065000Y-71870000D01*
X109867000Y-71870000D01*
X109867000Y-73672000D01*
G37*
G36*
X186097241Y-67438760D02*
G01*
X186361305Y-67548139D01*
X186598958Y-67706934D01*
X186801066Y-67909042D01*
X186959861Y-68146695D01*
X187069240Y-68410759D01*
X187125000Y-68691088D01*
X187125000Y-68976912D01*
X187069240Y-69257241D01*
X186959861Y-69521305D01*
X186801066Y-69758958D01*
X186598958Y-69961066D01*
X186361305Y-70119861D01*
X186097241Y-70229240D01*
X185816912Y-70285000D01*
X185531088Y-70285000D01*
X185250759Y-70229240D01*
X184986695Y-70119861D01*
X184749042Y-69961066D01*
X184546934Y-69758958D01*
X184388139Y-69521305D01*
X184278760Y-69257241D01*
X184223000Y-68976912D01*
X184223000Y-68691088D01*
X184278760Y-68410759D01*
X184388139Y-68146695D01*
X184546934Y-67909042D01*
X184749042Y-67706934D01*
X184986695Y-67548139D01*
X185250759Y-67438760D01*
X185531088Y-67383000D01*
X185816912Y-67383000D01*
X186097241Y-67438760D01*
G37*
G36*
X97263880Y-64025776D02*
G01*
X97644593Y-64101504D01*
X98054249Y-64271189D01*
X98422929Y-64517534D01*
X98736466Y-64831071D01*
X98982811Y-65199751D01*
X99152496Y-65609407D01*
X99239000Y-66044296D01*
X99239000Y-66487704D01*
X99152496Y-66922593D01*
X98982811Y-67332249D01*
X98736466Y-67700929D01*
X98422929Y-68014466D01*
X98054249Y-68260811D01*
X97644593Y-68430496D01*
X97263880Y-68506224D01*
X97209705Y-68517000D01*
X96766295Y-68517000D01*
X96712120Y-68506224D01*
X96331407Y-68430496D01*
X95921751Y-68260811D01*
X95553071Y-68014466D01*
X95239534Y-67700929D01*
X94993189Y-67332249D01*
X94823504Y-66922593D01*
X94737000Y-66487704D01*
X94737000Y-66044296D01*
X94823504Y-65609407D01*
X94993189Y-65199751D01*
X95239534Y-64831071D01*
X95553071Y-64517534D01*
X95921751Y-64271189D01*
X96331407Y-64101504D01*
X96712120Y-64025776D01*
X96766295Y-64015000D01*
X97209705Y-64015000D01*
X97263880Y-64025776D01*
G37*
G36*
X169169564Y-61000389D02*
G01*
X169360833Y-61079615D01*
X169360835Y-61079616D01*
X169532973Y-61194635D01*
X169679365Y-61341027D01*
X169794385Y-61513167D01*
X169873611Y-61704436D01*
X169914000Y-61907484D01*
X169914000Y-62114516D01*
X169873611Y-62317564D01*
X169794385Y-62508833D01*
X169794384Y-62508835D01*
X169679365Y-62680973D01*
X169532973Y-62827365D01*
X169360835Y-62942384D01*
X169360834Y-62942385D01*
X169360833Y-62942385D01*
X169169564Y-63021611D01*
X168966516Y-63062000D01*
X168759484Y-63062000D01*
X168556436Y-63021611D01*
X168365167Y-62942385D01*
X168365166Y-62942385D01*
X168365165Y-62942384D01*
X168193027Y-62827365D01*
X168046635Y-62680973D01*
X167931616Y-62508835D01*
X167931615Y-62508833D01*
X167852389Y-62317564D01*
X167812000Y-62114516D01*
X167812000Y-61907484D01*
X167852389Y-61704436D01*
X167931615Y-61513167D01*
X168046635Y-61341027D01*
X168193027Y-61194635D01*
X168365165Y-61079616D01*
X168365167Y-61079615D01*
X168556436Y-61000389D01*
X168759484Y-60960000D01*
X168966516Y-60960000D01*
X169169564Y-61000389D01*
G37*
G36*
X176154564Y-61000389D02*
G01*
X176345833Y-61079615D01*
X176345835Y-61079616D01*
X176517973Y-61194635D01*
X176664365Y-61341027D01*
X176779385Y-61513167D01*
X176858611Y-61704436D01*
X176899000Y-61907484D01*
X176899000Y-62114516D01*
X176858611Y-62317564D01*
X176779385Y-62508833D01*
X176779384Y-62508835D01*
X176664365Y-62680973D01*
X176517973Y-62827365D01*
X176345835Y-62942384D01*
X176345834Y-62942385D01*
X176345833Y-62942385D01*
X176154564Y-63021611D01*
X175951516Y-63062000D01*
X175744484Y-63062000D01*
X175541436Y-63021611D01*
X175350167Y-62942385D01*
X175350166Y-62942385D01*
X175350165Y-62942384D01*
X175178027Y-62827365D01*
X175031635Y-62680973D01*
X174916616Y-62508835D01*
X174916615Y-62508833D01*
X174837389Y-62317564D01*
X174797000Y-62114516D01*
X174797000Y-61907484D01*
X174837389Y-61704436D01*
X174916615Y-61513167D01*
X175031635Y-61341027D01*
X175178027Y-61194635D01*
X175350165Y-61079616D01*
X175350167Y-61079615D01*
X175541436Y-61000389D01*
X175744484Y-60960000D01*
X175951516Y-60960000D01*
X176154564Y-61000389D01*
G37*
G36*
X143134564Y-61000389D02*
G01*
X143325833Y-61079615D01*
X143325835Y-61079616D01*
X143497973Y-61194635D01*
X143644365Y-61341027D01*
X143759385Y-61513167D01*
X143838611Y-61704436D01*
X143879000Y-61907484D01*
X143879000Y-62114516D01*
X143838611Y-62317564D01*
X143759385Y-62508833D01*
X143759384Y-62508835D01*
X143644365Y-62680973D01*
X143497973Y-62827365D01*
X143325835Y-62942384D01*
X143325834Y-62942385D01*
X143325833Y-62942385D01*
X143134564Y-63021611D01*
X142931516Y-63062000D01*
X142724484Y-63062000D01*
X142521436Y-63021611D01*
X142330167Y-62942385D01*
X142330166Y-62942385D01*
X142330165Y-62942384D01*
X142158027Y-62827365D01*
X142011635Y-62680973D01*
X141896616Y-62508835D01*
X141896615Y-62508833D01*
X141817389Y-62317564D01*
X141777000Y-62114516D01*
X141777000Y-61907484D01*
X141817389Y-61704436D01*
X141896615Y-61513167D01*
X142011635Y-61341027D01*
X142158027Y-61194635D01*
X142330165Y-61079616D01*
X142330167Y-61079615D01*
X142521436Y-61000389D01*
X142724484Y-60960000D01*
X142931516Y-60960000D01*
X143134564Y-61000389D01*
G37*
G36*
X136149564Y-61000389D02*
G01*
X136340833Y-61079615D01*
X136340835Y-61079616D01*
X136512973Y-61194635D01*
X136659365Y-61341027D01*
X136774385Y-61513167D01*
X136853611Y-61704436D01*
X136894000Y-61907484D01*
X136894000Y-62114516D01*
X136853611Y-62317564D01*
X136774385Y-62508833D01*
X136774384Y-62508835D01*
X136659365Y-62680973D01*
X136512973Y-62827365D01*
X136340835Y-62942384D01*
X136340834Y-62942385D01*
X136340833Y-62942385D01*
X136149564Y-63021611D01*
X135946516Y-63062000D01*
X135739484Y-63062000D01*
X135536436Y-63021611D01*
X135345167Y-62942385D01*
X135345166Y-62942385D01*
X135345165Y-62942384D01*
X135173027Y-62827365D01*
X135026635Y-62680973D01*
X134911616Y-62508835D01*
X134911615Y-62508833D01*
X134832389Y-62317564D01*
X134792000Y-62114516D01*
X134792000Y-61907484D01*
X134832389Y-61704436D01*
X134911615Y-61513167D01*
X135026635Y-61341027D01*
X135173027Y-61194635D01*
X135345165Y-61079616D01*
X135345167Y-61079615D01*
X135536436Y-61000389D01*
X135739484Y-60960000D01*
X135946516Y-60960000D01*
X136149564Y-61000389D01*
G37*
G36*
X113778512Y-58539927D02*
G01*
X113927812Y-58569624D01*
X114091784Y-58637544D01*
X114239354Y-58736147D01*
X114364853Y-58861646D01*
X114463456Y-59009216D01*
X114531376Y-59173188D01*
X114566000Y-59347259D01*
X114566000Y-59524741D01*
X114531376Y-59698812D01*
X114463456Y-59862784D01*
X114364853Y-60010354D01*
X114239354Y-60135853D01*
X114091784Y-60234456D01*
X113927812Y-60302376D01*
X113778512Y-60332073D01*
X113753742Y-60337000D01*
X113576258Y-60337000D01*
X113551488Y-60332073D01*
X113402188Y-60302376D01*
X113238216Y-60234456D01*
X113090646Y-60135853D01*
X112965147Y-60010354D01*
X112866544Y-59862784D01*
X112798624Y-59698812D01*
X112764000Y-59524741D01*
X112764000Y-59347259D01*
X112798624Y-59173188D01*
X112866544Y-59009216D01*
X112965147Y-58861646D01*
X113090646Y-58736147D01*
X113238216Y-58637544D01*
X113402188Y-58569624D01*
X113551488Y-58539927D01*
X113576258Y-58535000D01*
X113753742Y-58535000D01*
X113778512Y-58539927D01*
G37*
G36*
X117106000Y-60337000D02*
G01*
X115304000Y-60337000D01*
X115304000Y-58535000D01*
X117106000Y-58535000D01*
X117106000Y-60337000D01*
G37*
G36*
X108733880Y-54655776D02*
G01*
X109114593Y-54731504D01*
X109524249Y-54901189D01*
X109892929Y-55147534D01*
X110206466Y-55461071D01*
X110452811Y-55829751D01*
X110622496Y-56239407D01*
X110709000Y-56674296D01*
X110709000Y-57117704D01*
X110622496Y-57552593D01*
X110452811Y-57962249D01*
X110206466Y-58330929D01*
X109892929Y-58644466D01*
X109524249Y-58890811D01*
X109114593Y-59060496D01*
X108733880Y-59136224D01*
X108679705Y-59147000D01*
X108236295Y-59147000D01*
X108182120Y-59136224D01*
X107801407Y-59060496D01*
X107391751Y-58890811D01*
X107023071Y-58644466D01*
X106709534Y-58330929D01*
X106463189Y-57962249D01*
X106293504Y-57552593D01*
X106207000Y-57117704D01*
X106207000Y-56674296D01*
X106293504Y-56239407D01*
X106463189Y-55829751D01*
X106709534Y-55461071D01*
X107023071Y-55147534D01*
X107391751Y-54901189D01*
X107801407Y-54731504D01*
X108182120Y-54655776D01*
X108236295Y-54645000D01*
X108679705Y-54645000D01*
X108733880Y-54655776D01*
G37*
G36*
X121433880Y-54655776D02*
G01*
X121814593Y-54731504D01*
X122224249Y-54901189D01*
X122592929Y-55147534D01*
X122906466Y-55461071D01*
X123152811Y-55829751D01*
X123322496Y-56239407D01*
X123409000Y-56674296D01*
X123409000Y-57117704D01*
X123322496Y-57552593D01*
X123152811Y-57962249D01*
X122906466Y-58330929D01*
X122592929Y-58644466D01*
X122224249Y-58890811D01*
X121814593Y-59060496D01*
X121433880Y-59136224D01*
X121379705Y-59147000D01*
X120936295Y-59147000D01*
X120882120Y-59136224D01*
X120501407Y-59060496D01*
X120091751Y-58890811D01*
X119723071Y-58644466D01*
X119409534Y-58330929D01*
X119163189Y-57962249D01*
X118993504Y-57552593D01*
X118907000Y-57117704D01*
X118907000Y-56674296D01*
X118993504Y-56239407D01*
X119163189Y-55829751D01*
X119409534Y-55461071D01*
X119723071Y-55147534D01*
X120091751Y-54901189D01*
X120501407Y-54731504D01*
X120882120Y-54655776D01*
X120936295Y-54645000D01*
X121379705Y-54645000D01*
X121433880Y-54655776D01*
G37*
G36*
X158971512Y-57099927D02*
G01*
X159120812Y-57129624D01*
X159284784Y-57197544D01*
X159432354Y-57296147D01*
X159557853Y-57421646D01*
X159656456Y-57569216D01*
X159724376Y-57733188D01*
X159759000Y-57907259D01*
X159759000Y-58084741D01*
X159724376Y-58258812D01*
X159656456Y-58422784D01*
X159557853Y-58570354D01*
X159432354Y-58695853D01*
X159284784Y-58794456D01*
X159120812Y-58862376D01*
X158977856Y-58890811D01*
X158946742Y-58897000D01*
X158769258Y-58897000D01*
X158738144Y-58890811D01*
X158595188Y-58862376D01*
X158431216Y-58794456D01*
X158283646Y-58695853D01*
X158158147Y-58570354D01*
X158059544Y-58422784D01*
X157991624Y-58258812D01*
X157957000Y-58084741D01*
X157957000Y-57907259D01*
X157991624Y-57733188D01*
X158059544Y-57569216D01*
X158158147Y-57421646D01*
X158283646Y-57296147D01*
X158431216Y-57197544D01*
X158595188Y-57129624D01*
X158744488Y-57099927D01*
X158769258Y-57095000D01*
X158946742Y-57095000D01*
X158971512Y-57099927D01*
G37*
G36*
X152139000Y-58897000D02*
G01*
X150337000Y-58897000D01*
X150337000Y-57095000D01*
X152139000Y-57095000D01*
X152139000Y-58897000D01*
G37*
G36*
X153891512Y-57099927D02*
G01*
X154040812Y-57129624D01*
X154204784Y-57197544D01*
X154352354Y-57296147D01*
X154477853Y-57421646D01*
X154576456Y-57569216D01*
X154644376Y-57733188D01*
X154679000Y-57907259D01*
X154679000Y-58084741D01*
X154644376Y-58258812D01*
X154576456Y-58422784D01*
X154477853Y-58570354D01*
X154352354Y-58695853D01*
X154204784Y-58794456D01*
X154040812Y-58862376D01*
X153897856Y-58890811D01*
X153866742Y-58897000D01*
X153689258Y-58897000D01*
X153658144Y-58890811D01*
X153515188Y-58862376D01*
X153351216Y-58794456D01*
X153203646Y-58695853D01*
X153078147Y-58570354D01*
X152979544Y-58422784D01*
X152911624Y-58258812D01*
X152877000Y-58084741D01*
X152877000Y-57907259D01*
X152911624Y-57733188D01*
X152979544Y-57569216D01*
X153078147Y-57421646D01*
X153203646Y-57296147D01*
X153351216Y-57197544D01*
X153515188Y-57129624D01*
X153664488Y-57099927D01*
X153689258Y-57095000D01*
X153866742Y-57095000D01*
X153891512Y-57099927D01*
G37*
G36*
X156431512Y-57099927D02*
G01*
X156580812Y-57129624D01*
X156744784Y-57197544D01*
X156892354Y-57296147D01*
X157017853Y-57421646D01*
X157116456Y-57569216D01*
X157184376Y-57733188D01*
X157219000Y-57907259D01*
X157219000Y-58084741D01*
X157184376Y-58258812D01*
X157116456Y-58422784D01*
X157017853Y-58570354D01*
X156892354Y-58695853D01*
X156744784Y-58794456D01*
X156580812Y-58862376D01*
X156437856Y-58890811D01*
X156406742Y-58897000D01*
X156229258Y-58897000D01*
X156198144Y-58890811D01*
X156055188Y-58862376D01*
X155891216Y-58794456D01*
X155743646Y-58695853D01*
X155618147Y-58570354D01*
X155519544Y-58422784D01*
X155451624Y-58258812D01*
X155417000Y-58084741D01*
X155417000Y-57907259D01*
X155451624Y-57733188D01*
X155519544Y-57569216D01*
X155618147Y-57421646D01*
X155743646Y-57296147D01*
X155891216Y-57197544D01*
X156055188Y-57129624D01*
X156204488Y-57099927D01*
X156229258Y-57095000D01*
X156406742Y-57095000D01*
X156431512Y-57099927D01*
G37*
G36*
X161511512Y-57099927D02*
G01*
X161660812Y-57129624D01*
X161824784Y-57197544D01*
X161972354Y-57296147D01*
X162097853Y-57421646D01*
X162196456Y-57569216D01*
X162264376Y-57733188D01*
X162299000Y-57907259D01*
X162299000Y-58084741D01*
X162264376Y-58258812D01*
X162196456Y-58422784D01*
X162097853Y-58570354D01*
X161972354Y-58695853D01*
X161824784Y-58794456D01*
X161660812Y-58862376D01*
X161517856Y-58890811D01*
X161486742Y-58897000D01*
X161309258Y-58897000D01*
X161278144Y-58890811D01*
X161135188Y-58862376D01*
X160971216Y-58794456D01*
X160823646Y-58695853D01*
X160698147Y-58570354D01*
X160599544Y-58422784D01*
X160531624Y-58258812D01*
X160497000Y-58084741D01*
X160497000Y-57907259D01*
X160531624Y-57733188D01*
X160599544Y-57569216D01*
X160698147Y-57421646D01*
X160823646Y-57296147D01*
X160971216Y-57197544D01*
X161135188Y-57129624D01*
X161284488Y-57099927D01*
X161309258Y-57095000D01*
X161486742Y-57095000D01*
X161511512Y-57099927D01*
G37*
G36*
X171403589Y-56234876D02*
G01*
X171502893Y-56254629D01*
X171643206Y-56312748D01*
X171769484Y-56397125D01*
X171876875Y-56504516D01*
X171961252Y-56630794D01*
X172019371Y-56771107D01*
X172049000Y-56920063D01*
X172049000Y-57071937D01*
X172019371Y-57220893D01*
X171961252Y-57361206D01*
X171876875Y-57487484D01*
X171769484Y-57594875D01*
X171643206Y-57679252D01*
X171502893Y-57737371D01*
X171433123Y-57751249D01*
X171353938Y-57767000D01*
X171202062Y-57767000D01*
X171122877Y-57751249D01*
X171053107Y-57737371D01*
X170912794Y-57679252D01*
X170786516Y-57594875D01*
X170679125Y-57487484D01*
X170594748Y-57361206D01*
X170536629Y-57220893D01*
X170507000Y-57071937D01*
X170507000Y-56920063D01*
X170536629Y-56771107D01*
X170594748Y-56630794D01*
X170679125Y-56504516D01*
X170786516Y-56397125D01*
X170912794Y-56312748D01*
X171053107Y-56254629D01*
X171152411Y-56234876D01*
X171202062Y-56225000D01*
X171353938Y-56225000D01*
X171403589Y-56234876D01*
G37*
G36*
X168863589Y-56234876D02*
G01*
X168962893Y-56254629D01*
X169103206Y-56312748D01*
X169229484Y-56397125D01*
X169336875Y-56504516D01*
X169421252Y-56630794D01*
X169479371Y-56771107D01*
X169509000Y-56920063D01*
X169509000Y-57071937D01*
X169479371Y-57220893D01*
X169421252Y-57361206D01*
X169336875Y-57487484D01*
X169229484Y-57594875D01*
X169103206Y-57679252D01*
X168962893Y-57737371D01*
X168893123Y-57751249D01*
X168813938Y-57767000D01*
X168662062Y-57767000D01*
X168582877Y-57751249D01*
X168513107Y-57737371D01*
X168372794Y-57679252D01*
X168246516Y-57594875D01*
X168139125Y-57487484D01*
X168054748Y-57361206D01*
X167996629Y-57220893D01*
X167967000Y-57071937D01*
X167967000Y-56920063D01*
X167996629Y-56771107D01*
X168054748Y-56630794D01*
X168139125Y-56504516D01*
X168246516Y-56397125D01*
X168372794Y-56312748D01*
X168513107Y-56254629D01*
X168612411Y-56234876D01*
X168662062Y-56225000D01*
X168813938Y-56225000D01*
X168863589Y-56234876D01*
G37*
G36*
X166323589Y-56234876D02*
G01*
X166422893Y-56254629D01*
X166563206Y-56312748D01*
X166689484Y-56397125D01*
X166796875Y-56504516D01*
X166881252Y-56630794D01*
X166939371Y-56771107D01*
X166969000Y-56920063D01*
X166969000Y-57071937D01*
X166939371Y-57220893D01*
X166881252Y-57361206D01*
X166796875Y-57487484D01*
X166689484Y-57594875D01*
X166563206Y-57679252D01*
X166422893Y-57737371D01*
X166353123Y-57751249D01*
X166273938Y-57767000D01*
X166122062Y-57767000D01*
X166042877Y-57751249D01*
X165973107Y-57737371D01*
X165832794Y-57679252D01*
X165706516Y-57594875D01*
X165599125Y-57487484D01*
X165514748Y-57361206D01*
X165456629Y-57220893D01*
X165427000Y-57071937D01*
X165427000Y-56920063D01*
X165456629Y-56771107D01*
X165514748Y-56630794D01*
X165599125Y-56504516D01*
X165706516Y-56397125D01*
X165832794Y-56312748D01*
X165973107Y-56254629D01*
X166072411Y-56234876D01*
X166122062Y-56225000D01*
X166273938Y-56225000D01*
X166323589Y-56234876D01*
G37*
G36*
X173573589Y-56234876D02*
G01*
X173672893Y-56254629D01*
X173813206Y-56312748D01*
X173939484Y-56397125D01*
X174046875Y-56504516D01*
X174131252Y-56630794D01*
X174189371Y-56771107D01*
X174219000Y-56920063D01*
X174219000Y-57071937D01*
X174189371Y-57220893D01*
X174131252Y-57361206D01*
X174046875Y-57487484D01*
X173939484Y-57594875D01*
X173813206Y-57679252D01*
X173672893Y-57737371D01*
X173603123Y-57751249D01*
X173523938Y-57767000D01*
X173372062Y-57767000D01*
X173292877Y-57751249D01*
X173223107Y-57737371D01*
X173082794Y-57679252D01*
X172956516Y-57594875D01*
X172849125Y-57487484D01*
X172764748Y-57361206D01*
X172706629Y-57220893D01*
X172677000Y-57071937D01*
X172677000Y-56920063D01*
X172706629Y-56771107D01*
X172764748Y-56630794D01*
X172849125Y-56504516D01*
X172956516Y-56397125D01*
X173082794Y-56312748D01*
X173223107Y-56254629D01*
X173322411Y-56234876D01*
X173372062Y-56225000D01*
X173523938Y-56225000D01*
X173573589Y-56234876D01*
G37*
G36*
X176113589Y-56234876D02*
G01*
X176212893Y-56254629D01*
X176353206Y-56312748D01*
X176479484Y-56397125D01*
X176586875Y-56504516D01*
X176671252Y-56630794D01*
X176729371Y-56771107D01*
X176759000Y-56920063D01*
X176759000Y-57071937D01*
X176729371Y-57220893D01*
X176671252Y-57361206D01*
X176586875Y-57487484D01*
X176479484Y-57594875D01*
X176353206Y-57679252D01*
X176212893Y-57737371D01*
X176143123Y-57751249D01*
X176063938Y-57767000D01*
X175912062Y-57767000D01*
X175832877Y-57751249D01*
X175763107Y-57737371D01*
X175622794Y-57679252D01*
X175496516Y-57594875D01*
X175389125Y-57487484D01*
X175304748Y-57361206D01*
X175246629Y-57220893D01*
X175217000Y-57071937D01*
X175217000Y-56920063D01*
X175246629Y-56771107D01*
X175304748Y-56630794D01*
X175389125Y-56504516D01*
X175496516Y-56397125D01*
X175622794Y-56312748D01*
X175763107Y-56254629D01*
X175862411Y-56234876D01*
X175912062Y-56225000D01*
X176063938Y-56225000D01*
X176113589Y-56234876D01*
G37*
G36*
X178653589Y-56234876D02*
G01*
X178752893Y-56254629D01*
X178893206Y-56312748D01*
X179019484Y-56397125D01*
X179126875Y-56504516D01*
X179211252Y-56630794D01*
X179269371Y-56771107D01*
X179299000Y-56920063D01*
X179299000Y-57071937D01*
X179269371Y-57220893D01*
X179211252Y-57361206D01*
X179126875Y-57487484D01*
X179019484Y-57594875D01*
X178893206Y-57679252D01*
X178752893Y-57737371D01*
X178683123Y-57751249D01*
X178603938Y-57767000D01*
X178452062Y-57767000D01*
X178372877Y-57751249D01*
X178303107Y-57737371D01*
X178162794Y-57679252D01*
X178036516Y-57594875D01*
X177929125Y-57487484D01*
X177844748Y-57361206D01*
X177786629Y-57220893D01*
X177757000Y-57071937D01*
X177757000Y-56920063D01*
X177786629Y-56771107D01*
X177844748Y-56630794D01*
X177929125Y-56504516D01*
X178036516Y-56397125D01*
X178162794Y-56312748D01*
X178303107Y-56254629D01*
X178402411Y-56234876D01*
X178452062Y-56225000D01*
X178603938Y-56225000D01*
X178653589Y-56234876D01*
G37*
G36*
X145653589Y-56234876D02*
G01*
X145752893Y-56254629D01*
X145893206Y-56312748D01*
X146019484Y-56397125D01*
X146126875Y-56504516D01*
X146211252Y-56630794D01*
X146269371Y-56771107D01*
X146299000Y-56920063D01*
X146299000Y-57071937D01*
X146269371Y-57220893D01*
X146211252Y-57361206D01*
X146126875Y-57487484D01*
X146019484Y-57594875D01*
X145893206Y-57679252D01*
X145752893Y-57737371D01*
X145683123Y-57751249D01*
X145603938Y-57767000D01*
X145452062Y-57767000D01*
X145372877Y-57751249D01*
X145303107Y-57737371D01*
X145162794Y-57679252D01*
X145036516Y-57594875D01*
X144929125Y-57487484D01*
X144844748Y-57361206D01*
X144786629Y-57220893D01*
X144757000Y-57071937D01*
X144757000Y-56920063D01*
X144786629Y-56771107D01*
X144844748Y-56630794D01*
X144929125Y-56504516D01*
X145036516Y-56397125D01*
X145162794Y-56312748D01*
X145303107Y-56254629D01*
X145402411Y-56234876D01*
X145452062Y-56225000D01*
X145603938Y-56225000D01*
X145653589Y-56234876D01*
G37*
G36*
X143113589Y-56234876D02*
G01*
X143212893Y-56254629D01*
X143353206Y-56312748D01*
X143479484Y-56397125D01*
X143586875Y-56504516D01*
X143671252Y-56630794D01*
X143729371Y-56771107D01*
X143759000Y-56920063D01*
X143759000Y-57071937D01*
X143729371Y-57220893D01*
X143671252Y-57361206D01*
X143586875Y-57487484D01*
X143479484Y-57594875D01*
X143353206Y-57679252D01*
X143212893Y-57737371D01*
X143143123Y-57751249D01*
X143063938Y-57767000D01*
X142912062Y-57767000D01*
X142832877Y-57751249D01*
X142763107Y-57737371D01*
X142622794Y-57679252D01*
X142496516Y-57594875D01*
X142389125Y-57487484D01*
X142304748Y-57361206D01*
X142246629Y-57220893D01*
X142217000Y-57071937D01*
X142217000Y-56920063D01*
X142246629Y-56771107D01*
X142304748Y-56630794D01*
X142389125Y-56504516D01*
X142496516Y-56397125D01*
X142622794Y-56312748D01*
X142763107Y-56254629D01*
X142862411Y-56234876D01*
X142912062Y-56225000D01*
X143063938Y-56225000D01*
X143113589Y-56234876D01*
G37*
G36*
X140573589Y-56234876D02*
G01*
X140672893Y-56254629D01*
X140813206Y-56312748D01*
X140939484Y-56397125D01*
X141046875Y-56504516D01*
X141131252Y-56630794D01*
X141189371Y-56771107D01*
X141219000Y-56920063D01*
X141219000Y-57071937D01*
X141189371Y-57220893D01*
X141131252Y-57361206D01*
X141046875Y-57487484D01*
X140939484Y-57594875D01*
X140813206Y-57679252D01*
X140672893Y-57737371D01*
X140603123Y-57751249D01*
X140523938Y-57767000D01*
X140372062Y-57767000D01*
X140292877Y-57751249D01*
X140223107Y-57737371D01*
X140082794Y-57679252D01*
X139956516Y-57594875D01*
X139849125Y-57487484D01*
X139764748Y-57361206D01*
X139706629Y-57220893D01*
X139677000Y-57071937D01*
X139677000Y-56920063D01*
X139706629Y-56771107D01*
X139764748Y-56630794D01*
X139849125Y-56504516D01*
X139956516Y-56397125D01*
X140082794Y-56312748D01*
X140223107Y-56254629D01*
X140322411Y-56234876D01*
X140372062Y-56225000D01*
X140523938Y-56225000D01*
X140573589Y-56234876D01*
G37*
G36*
X138403589Y-56234876D02*
G01*
X138502893Y-56254629D01*
X138643206Y-56312748D01*
X138769484Y-56397125D01*
X138876875Y-56504516D01*
X138961252Y-56630794D01*
X139019371Y-56771107D01*
X139049000Y-56920063D01*
X139049000Y-57071937D01*
X139019371Y-57220893D01*
X138961252Y-57361206D01*
X138876875Y-57487484D01*
X138769484Y-57594875D01*
X138643206Y-57679252D01*
X138502893Y-57737371D01*
X138433123Y-57751249D01*
X138353938Y-57767000D01*
X138202062Y-57767000D01*
X138122877Y-57751249D01*
X138053107Y-57737371D01*
X137912794Y-57679252D01*
X137786516Y-57594875D01*
X137679125Y-57487484D01*
X137594748Y-57361206D01*
X137536629Y-57220893D01*
X137507000Y-57071937D01*
X137507000Y-56920063D01*
X137536629Y-56771107D01*
X137594748Y-56630794D01*
X137679125Y-56504516D01*
X137786516Y-56397125D01*
X137912794Y-56312748D01*
X138053107Y-56254629D01*
X138152411Y-56234876D01*
X138202062Y-56225000D01*
X138353938Y-56225000D01*
X138403589Y-56234876D01*
G37*
G36*
X135863589Y-56234876D02*
G01*
X135962893Y-56254629D01*
X136103206Y-56312748D01*
X136229484Y-56397125D01*
X136336875Y-56504516D01*
X136421252Y-56630794D01*
X136479371Y-56771107D01*
X136509000Y-56920063D01*
X136509000Y-57071937D01*
X136479371Y-57220893D01*
X136421252Y-57361206D01*
X136336875Y-57487484D01*
X136229484Y-57594875D01*
X136103206Y-57679252D01*
X135962893Y-57737371D01*
X135893123Y-57751249D01*
X135813938Y-57767000D01*
X135662062Y-57767000D01*
X135582877Y-57751249D01*
X135513107Y-57737371D01*
X135372794Y-57679252D01*
X135246516Y-57594875D01*
X135139125Y-57487484D01*
X135054748Y-57361206D01*
X134996629Y-57220893D01*
X134967000Y-57071937D01*
X134967000Y-56920063D01*
X134996629Y-56771107D01*
X135054748Y-56630794D01*
X135139125Y-56504516D01*
X135246516Y-56397125D01*
X135372794Y-56312748D01*
X135513107Y-56254629D01*
X135612411Y-56234876D01*
X135662062Y-56225000D01*
X135813938Y-56225000D01*
X135863589Y-56234876D01*
G37*
G36*
X133323589Y-56234876D02*
G01*
X133422893Y-56254629D01*
X133563206Y-56312748D01*
X133689484Y-56397125D01*
X133796875Y-56504516D01*
X133881252Y-56630794D01*
X133939371Y-56771107D01*
X133969000Y-56920063D01*
X133969000Y-57071937D01*
X133939371Y-57220893D01*
X133881252Y-57361206D01*
X133796875Y-57487484D01*
X133689484Y-57594875D01*
X133563206Y-57679252D01*
X133422893Y-57737371D01*
X133353123Y-57751249D01*
X133273938Y-57767000D01*
X133122062Y-57767000D01*
X133042877Y-57751249D01*
X132973107Y-57737371D01*
X132832794Y-57679252D01*
X132706516Y-57594875D01*
X132599125Y-57487484D01*
X132514748Y-57361206D01*
X132456629Y-57220893D01*
X132427000Y-57071937D01*
X132427000Y-56920063D01*
X132456629Y-56771107D01*
X132514748Y-56630794D01*
X132599125Y-56504516D01*
X132706516Y-56397125D01*
X132832794Y-56312748D01*
X132973107Y-56254629D01*
X133072411Y-56234876D01*
X133122062Y-56225000D01*
X133273938Y-56225000D01*
X133323589Y-56234876D01*
G37*
G36*
X186622239Y-50327467D02*
G01*
X186936282Y-50389934D01*
X187527926Y-50635001D01*
X188060392Y-50990784D01*
X188513216Y-51443608D01*
X188868999Y-51976074D01*
X189114066Y-52567718D01*
X189114066Y-52567719D01*
X189239000Y-53195803D01*
X189239000Y-53836197D01*
X189176533Y-54150239D01*
X189114066Y-54464282D01*
X188868999Y-55055926D01*
X188513216Y-55588392D01*
X188060392Y-56041216D01*
X187527926Y-56396999D01*
X186936282Y-56642066D01*
X186622239Y-56704533D01*
X186308197Y-56767000D01*
X185667803Y-56767000D01*
X185353761Y-56704533D01*
X185039718Y-56642066D01*
X184448074Y-56396999D01*
X183915608Y-56041216D01*
X183462784Y-55588392D01*
X183107001Y-55055926D01*
X182861934Y-54464282D01*
X182799467Y-54150239D01*
X182737000Y-53836197D01*
X182737000Y-53195803D01*
X182861934Y-52567719D01*
X182861934Y-52567718D01*
X183107001Y-51976074D01*
X183462784Y-51443608D01*
X183915608Y-50990784D01*
X184448074Y-50635001D01*
X185039718Y-50389934D01*
X185353761Y-50327467D01*
X185667803Y-50265000D01*
X186308197Y-50265000D01*
X186622239Y-50327467D01*
G37*
G36*
X96622239Y-50327467D02*
G01*
X96936282Y-50389934D01*
X97527926Y-50635001D01*
X98060392Y-50990784D01*
X98513216Y-51443608D01*
X98868999Y-51976074D01*
X99114066Y-52567718D01*
X99114066Y-52567719D01*
X99239000Y-53195803D01*
X99239000Y-53836197D01*
X99176533Y-54150239D01*
X99114066Y-54464282D01*
X98868999Y-55055926D01*
X98513216Y-55588392D01*
X98060392Y-56041216D01*
X97527926Y-56396999D01*
X96936282Y-56642066D01*
X96622239Y-56704533D01*
X96308197Y-56767000D01*
X95667803Y-56767000D01*
X95353761Y-56704533D01*
X95039718Y-56642066D01*
X94448074Y-56396999D01*
X93915608Y-56041216D01*
X93462784Y-55588392D01*
X93107001Y-55055926D01*
X92861934Y-54464282D01*
X92799467Y-54150239D01*
X92737000Y-53836197D01*
X92737000Y-53195803D01*
X92861934Y-52567719D01*
X92861934Y-52567718D01*
X93107001Y-51976074D01*
X93462784Y-51443608D01*
X93915608Y-50990784D01*
X94448074Y-50635001D01*
X95039718Y-50389934D01*
X95353761Y-50327467D01*
X95667803Y-50265000D01*
X96308197Y-50265000D01*
X96622239Y-50327467D01*
G37*
M02*
