M48
; DRILL file {KiCad (5.1.5)-3} date 27/10/2020 23:28:26
; FORMAT={-:-/ absolute / inch / decimal}
; #@! TF.CreationDate,2020-10-27T23:28:26+01:00
; #@! TF.GenerationSoftware,Kicad,Pcbnew,(5.1.5)-3
; #@! TF.FileFunction,Plated,1,2,PTH
FMAT,2
INCH
T1C0.0118
T2C0.0157
T3C0.0197
T4C0.0315
T5C0.0394
T6C0.0630
T7C0.0866
T8C0.1260
%
G90
G05
T1
X4.4609Y-5.0707
T2
X4.0709Y-2.752
X4.3819Y-3.7205
X4.4213Y-3.5236
X4.4646Y-3.6063
X4.4685Y-2.752
X4.4724Y-2.4646
X4.5315Y-3.5079
X4.6378Y-2.5945
X4.6394Y-3.0374
X4.6575Y-3.3622
X4.6575Y-3.8228
X4.7795Y-5.0551
X4.7913Y-3.0197
X4.7953Y-2.8425
X4.7953Y-2.9055
X4.7992Y-3.2756
X4.8031Y-3.4685
X4.8031Y-3.7717
X4.8465Y-3.7795
X4.8543Y-3.4094
X4.9449Y-2.5079
X4.9685Y-3.1457
X4.9882Y-2.6575
X5.0039Y-3.0787
X5.0118Y-3.9646
X5.0906Y-4.8228
X5.1299Y-3.6417
X5.1299Y-3.6929
X5.1339Y-2.8583
X5.1339Y-3.5433
X5.1535Y-3.3622
X5.1811Y-3.3307
X5.2598Y-3.878
X5.2992Y-3.0197
X5.311Y-2.7677
X5.3189Y-3.5394
X5.3937Y-3.4764
X5.4606Y-2.8583
X5.4724Y-2.5827
X5.4843Y-3.0354
X5.4882Y-2.7082
X5.563Y-2.8583
X5.6614Y-2.6929
X5.6614Y-3.0709
X5.689Y-3.1024
X5.7244Y-2.8425
X5.7677Y-2.9291
X5.7756Y-2.815
X5.7795Y-2.7565
X5.7835Y-2.4882
X5.7913Y-2.5512
X5.7913Y-2.6654
X5.8346Y-3.0394
X5.8583Y-2.4213
X6.0748Y-2.9685
X6.122Y-3.0354
X6.1378Y-2.8504
X6.3583Y-3.3701
X6.4567Y-2.4409
X6.4961Y-2.5354
X6.4961Y-2.7008
X6.5039Y-2.4882
X6.5118Y-2.7559
X6.5354Y-3.4764
X6.5512Y-2.8701
X6.5866Y-2.7598
X6.6417Y-2.8543
X6.7047Y-2.9843
X6.7677Y-2.7087
X6.7677Y-2.878
X6.8819Y-2.8701
X6.8858Y-2.5276
X6.9567Y-3.0039
X6.9606Y-2.7913
X3.7556Y-3.8368
X3.7746Y-3.7908
X3.7746Y-3.8827
X3.8206Y-3.7718
X3.8206Y-3.9017
X3.8665Y-3.7908
X3.8665Y-3.8827
X3.8855Y-3.8368
X3.7535Y-2.9042
X3.7725Y-2.8582
X3.7725Y-2.9501
X3.8184Y-2.8392
X3.8184Y-2.9691
X3.8644Y-2.8582
X3.8644Y-2.9501
X3.8834Y-2.9042
X6.005Y-5.44
X6.0241Y-5.3941
X6.0241Y-5.4859
X6.07Y-5.375
X6.07Y-5.505
X6.1159Y-5.3941
X6.1159Y-5.4859
X6.135Y-5.44
X3.7535Y-3.4947
X3.7725Y-3.4488
X3.7725Y-3.5407
X3.8184Y-3.4298
X3.8184Y-3.5597
X3.8644Y-3.4488
X3.8644Y-3.5407
X3.8834Y-3.4947
X3.7535Y-2.6089
X3.7725Y-2.563
X3.7725Y-2.6548
X3.8184Y-2.5439
X3.8184Y-2.6739
X3.8644Y-2.563
X3.8644Y-2.6548
X3.8834Y-2.6089
X4.705Y-2.24
X4.7241Y-2.1941
X4.7241Y-2.2859
X4.77Y-2.175
X4.77Y-2.305
X4.8159Y-2.1941
X4.8159Y-2.2859
X4.835Y-2.24
X3.7556Y-4.0618
X3.7746Y-4.0158
X3.7746Y-4.1077
X3.8206Y-3.9968
X3.8206Y-4.1267
X3.8665Y-4.0158
X3.8665Y-4.1077
X3.8855Y-4.0618
X7.159Y-4.725
X7.178Y-4.6791
X7.178Y-4.771
X7.2239Y-4.6601
X7.2239Y-4.79
X7.2699Y-4.6791
X7.2699Y-4.771
X7.2889Y-4.725
X5.505Y-5.44
X5.5241Y-5.3941
X5.5241Y-5.4859
X5.57Y-5.375
X5.57Y-5.505
X5.6159Y-5.3941
X5.6159Y-5.4859
X5.635Y-5.44
X3.7535Y-3.1994
X3.7725Y-3.1535
X3.7725Y-3.2454
X3.8184Y-3.1345
X3.8184Y-3.2644
X3.8644Y-3.1535
X3.8644Y-3.2454
X3.8834Y-3.1994
X7.159Y-5.1778
X7.178Y-5.1319
X7.178Y-5.2237
X7.2239Y-5.1128
X7.2239Y-5.2428
X7.2699Y-5.1319
X7.2699Y-5.2237
X7.2889Y-5.1778
X4.205Y-2.24
X4.2241Y-2.1941
X4.2241Y-2.2859
X4.27Y-2.175
X4.27Y-2.305
X4.3159Y-2.1941
X4.3159Y-2.2859
X4.335Y-2.24
X3.7332Y-4.6664
X3.7522Y-4.6204
X3.7522Y-4.7123
X3.7981Y-4.6014
X3.7981Y-4.7313
X3.8441Y-4.6204
X3.8441Y-4.7123
X3.8631Y-4.6664
X3.7332Y-5.1664
X3.7522Y-5.1204
X3.7522Y-5.2123
X3.7981Y-5.1014
X3.7981Y-5.2313
X3.8441Y-5.1204
X3.8441Y-5.2123
X3.8631Y-5.1664
X3.7556Y-4.2868
X3.7746Y-4.2408
X3.7746Y-4.3327
X3.8206Y-4.2218
X3.8206Y-4.3517
X3.8665Y-4.2408
X3.8665Y-4.3327
X3.8855Y-4.2868
X5.755Y-5.44
X5.7741Y-5.3941
X5.7741Y-5.4859
X5.82Y-5.375
X5.82Y-5.505
X5.8659Y-5.3941
X5.8659Y-5.4859
X5.885Y-5.44
X3.7332Y-4.9164
X3.7522Y-4.8704
X3.7522Y-4.9623
X3.7981Y-4.8514
X3.7981Y-4.9813
X3.8441Y-4.8704
X3.8441Y-4.9623
X3.8631Y-4.9164
T3
X4.248Y-5.2756
X4.2598Y-5.189
X4.2717Y-5.2362
X4.4646Y-4.0984
X4.4961Y-3.8307
X4.52Y-5.2872
X4.6339Y-2.7874
X4.6732Y-2.4055
X4.8153Y-4.303
X4.8153Y-4.4014
X4.8153Y-4.5392
X4.8153Y-4.6376
X4.8743Y-4.303
X4.8743Y-4.4014
X4.8743Y-4.5392
X4.8743Y-4.6376
X4.8743Y-5.2872
X4.9252Y-3.9646
X4.9334Y-4.303
X4.9334Y-4.6376
X4.9685Y-2.6142
X4.9724Y-2.7087
X4.9924Y-4.303
X4.9924Y-4.6376
X5.0515Y-4.303
X5.0515Y-4.4014
X5.0515Y-4.5392
X5.0515Y-4.6376
X5.0712Y-4.9329
X5.0712Y-5.0313
X5.0712Y-5.1691
X5.0712Y-5.2676
X5.1106Y-4.303
X5.1106Y-4.4014
X5.1106Y-4.5392
X5.1106Y-4.6376
X5.1302Y-4.9329
X5.1302Y-5.0313
X5.1302Y-5.1691
X5.1302Y-5.2676
X5.1893Y-4.9329
X5.1893Y-5.2676
X5.2483Y-4.9329
X5.2483Y-5.2676
X5.3074Y-4.9329
X5.3074Y-5.0313
X5.3074Y-5.1691
X5.3074Y-5.2676
X5.3665Y-4.9329
X5.3665Y-5.0313
X5.3665Y-5.1691
X5.3665Y-5.2676
X5.6575Y-3.3346
X6.0748Y-5.2244
X3.6846Y-2.1069
X3.7122Y-2.0401
X3.7122Y-2.1737
X3.7791Y-2.0124
X3.7791Y-2.2014
X3.8459Y-2.0401
X3.8459Y-2.1737
X3.8735Y-2.1069
X7.2279Y-5.4534
X7.2555Y-5.3866
X7.2555Y-5.5202
X7.3224Y-5.3589
X7.3224Y-5.5479
X7.3892Y-5.3866
X7.3892Y-5.5202
X7.4169Y-5.4534
X3.6846Y-5.4534
X3.7122Y-5.3866
X3.7122Y-5.5202
X3.7791Y-5.3589
X3.7791Y-5.5479
X3.8459Y-5.3866
X3.8459Y-5.5202
X3.8735Y-5.4534
X7.2279Y-2.1069
X7.2555Y-2.0401
X7.2555Y-2.1737
X7.3224Y-2.0124
X7.3224Y-2.2014
X7.3892Y-2.0401
X7.3892Y-2.1737
X7.4169Y-2.1069
T4
X6.5432Y-2.2439
X6.6432Y-2.2439
X6.7432Y-2.2439
X6.8287Y-2.2439
X6.9287Y-2.2439
X7.0287Y-2.2439
X5.244Y-2.2439
X5.344Y-2.2439
X5.444Y-2.2439
X5.5294Y-2.2439
X5.6294Y-2.2439
X5.7294Y-2.2439
T5
X7.27Y-3.34
X7.27Y-3.44
X7.27Y-3.54
X7.27Y-3.64
X7.27Y-3.74
X6.9231Y-2.4414
X5.3481Y-2.4414
X5.9543Y-2.2833
X6.0543Y-2.2833
X6.1543Y-2.2833
X6.2543Y-2.2833
X6.3543Y-2.2833
X6.6481Y-2.4414
X7.2239Y-4.9022
X7.2239Y-5.0022
X5.72Y-5.255
X5.82Y-5.255
X5.92Y-5.255
X4.29Y-2.865
X4.29Y-2.965
X4.29Y-3.065
X4.29Y-3.165
X5.6231Y-2.4414
X4.0181Y-3.9543
X4.0181Y-4.0543
X4.0181Y-4.1543
X4.475Y-2.34
X4.575Y-2.34
X6.095Y-3.645
X6.095Y-4.945
X6.195Y-3.645
X6.195Y-4.945
X6.295Y-3.645
X6.295Y-4.945
X6.395Y-3.645
X6.395Y-4.945
X6.495Y-3.645
X6.495Y-4.945
T6
X7.31Y-2.71
X4.211Y-3.631
T7
X3.7981Y-5.1664
X3.8206Y-4.2868
X5.82Y-5.44
X3.7981Y-4.9164
X3.8206Y-3.8368
X3.8184Y-2.9042
X6.07Y-5.44
X3.8184Y-3.4947
X3.8184Y-2.6089
X4.77Y-2.24
X3.8206Y-4.0618
X7.2239Y-4.725
X5.57Y-5.44
X3.8184Y-3.1994
X7.2239Y-5.1778
X4.27Y-2.24
X3.7981Y-4.6664
T8
X5.795Y-3.645
X5.795Y-4.945
X6.795Y-3.645
X6.795Y-4.945
X3.7791Y-2.1069
X7.3224Y-5.4534
X3.7791Y-5.4534
X7.3224Y-2.1069
T0
M30
