G04 #@! TF.GenerationSoftware,KiCad,Pcbnew,(5.1.5)-3*
G04 #@! TF.CreationDate,2020-10-27T23:28:23+01:00*
G04 #@! TF.ProjectId,control_loop_1,636f6e74-726f-46c5-9f6c-6f6f705f312e,rev?*
G04 #@! TF.SameCoordinates,Original*
G04 #@! TF.FileFunction,Legend,Top*
G04 #@! TF.FilePolarity,Positive*
%FSLAX46Y46*%
G04 Gerber Fmt 4.6, Leading zero omitted, Abs format (unit mm)*
G04 Created by KiCad (PCBNEW (5.1.5)-3) date 2020-10-27 23:28:23*
%MOMM*%
%LPD*%
G04 APERTURE LIST*
%ADD10C,0.400000*%
%ADD11C,0.120000*%
%ADD12C,0.300000*%
%ADD13C,0.150000*%
G04 APERTURE END LIST*
D10*
X173704761Y-139904761D02*
X174371428Y-141904761D01*
X175038095Y-139904761D01*
X175704761Y-141714285D02*
X175800000Y-141809523D01*
X175704761Y-141904761D01*
X175609523Y-141809523D01*
X175704761Y-141714285D01*
X175704761Y-141904761D01*
X177704761Y-141904761D02*
X176561904Y-141904761D01*
X177133333Y-141904761D02*
X177133333Y-139904761D01*
X176942857Y-140190476D01*
X176752380Y-140380952D01*
X176561904Y-140476190D01*
X165923809Y-140504761D02*
X164971428Y-140504761D01*
X164971428Y-138504761D01*
X166971428Y-138504761D02*
X167352380Y-138504761D01*
X167542857Y-138600000D01*
X167733333Y-138790476D01*
X167828571Y-139171428D01*
X167828571Y-139838095D01*
X167733333Y-140219047D01*
X167542857Y-140409523D01*
X167352380Y-140504761D01*
X166971428Y-140504761D01*
X166780952Y-140409523D01*
X166590476Y-140219047D01*
X166495238Y-139838095D01*
X166495238Y-139171428D01*
X166590476Y-138790476D01*
X166780952Y-138600000D01*
X166971428Y-138504761D01*
X169066666Y-138504761D02*
X169447619Y-138504761D01*
X169638095Y-138600000D01*
X169828571Y-138790476D01*
X169923809Y-139171428D01*
X169923809Y-139838095D01*
X169828571Y-140219047D01*
X169638095Y-140409523D01*
X169447619Y-140504761D01*
X169066666Y-140504761D01*
X168876190Y-140409523D01*
X168685714Y-140219047D01*
X168590476Y-139838095D01*
X168590476Y-139171428D01*
X168685714Y-138790476D01*
X168876190Y-138600000D01*
X169066666Y-138504761D01*
X170780952Y-140504761D02*
X170780952Y-138504761D01*
X171542857Y-138504761D01*
X171733333Y-138600000D01*
X171828571Y-138695238D01*
X171923809Y-138885714D01*
X171923809Y-139171428D01*
X171828571Y-139361904D01*
X171733333Y-139457142D01*
X171542857Y-139552380D01*
X170780952Y-139552380D01*
X165638095Y-134809523D02*
X165923809Y-134904761D01*
X166400000Y-134904761D01*
X166590476Y-134809523D01*
X166685714Y-134714285D01*
X166780952Y-134523809D01*
X166780952Y-134333333D01*
X166685714Y-134142857D01*
X166590476Y-134047619D01*
X166400000Y-133952380D01*
X166019047Y-133857142D01*
X165828571Y-133761904D01*
X165733333Y-133666666D01*
X165638095Y-133476190D01*
X165638095Y-133285714D01*
X165733333Y-133095238D01*
X165828571Y-133000000D01*
X166019047Y-132904761D01*
X166495238Y-132904761D01*
X166780952Y-133000000D01*
X167638095Y-134904761D02*
X167638095Y-132904761D01*
X168304761Y-134333333D01*
X168971428Y-132904761D01*
X168971428Y-134904761D01*
X169923809Y-132904761D02*
X169923809Y-134523809D01*
X170019047Y-134714285D01*
X170114285Y-134809523D01*
X170304761Y-134904761D01*
X170685714Y-134904761D01*
X170876190Y-134809523D01*
X170971428Y-134714285D01*
X171066666Y-134523809D01*
X171066666Y-132904761D01*
X163304761Y-137514285D02*
X163209523Y-137609523D01*
X162923809Y-137704761D01*
X162733333Y-137704761D01*
X162447619Y-137609523D01*
X162257142Y-137419047D01*
X162161904Y-137228571D01*
X162066666Y-136847619D01*
X162066666Y-136561904D01*
X162161904Y-136180952D01*
X162257142Y-135990476D01*
X162447619Y-135800000D01*
X162733333Y-135704761D01*
X162923809Y-135704761D01*
X163209523Y-135800000D01*
X163304761Y-135895238D01*
X164542857Y-135704761D02*
X164923809Y-135704761D01*
X165114285Y-135800000D01*
X165304761Y-135990476D01*
X165400000Y-136371428D01*
X165400000Y-137038095D01*
X165304761Y-137419047D01*
X165114285Y-137609523D01*
X164923809Y-137704761D01*
X164542857Y-137704761D01*
X164352380Y-137609523D01*
X164161904Y-137419047D01*
X164066666Y-137038095D01*
X164066666Y-136371428D01*
X164161904Y-135990476D01*
X164352380Y-135800000D01*
X164542857Y-135704761D01*
X166257142Y-137704761D02*
X166257142Y-135704761D01*
X167400000Y-137704761D01*
X167400000Y-135704761D01*
X168066666Y-135704761D02*
X169209523Y-135704761D01*
X168638095Y-137704761D02*
X168638095Y-135704761D01*
X171019047Y-137704761D02*
X170352380Y-136752380D01*
X169876190Y-137704761D02*
X169876190Y-135704761D01*
X170638095Y-135704761D01*
X170828571Y-135800000D01*
X170923809Y-135895238D01*
X171019047Y-136085714D01*
X171019047Y-136371428D01*
X170923809Y-136561904D01*
X170828571Y-136657142D01*
X170638095Y-136752380D01*
X169876190Y-136752380D01*
X172257142Y-135704761D02*
X172638095Y-135704761D01*
X172828571Y-135800000D01*
X173019047Y-135990476D01*
X173114285Y-136371428D01*
X173114285Y-137038095D01*
X173019047Y-137419047D01*
X172828571Y-137609523D01*
X172638095Y-137704761D01*
X172257142Y-137704761D01*
X172066666Y-137609523D01*
X171876190Y-137419047D01*
X171780952Y-137038095D01*
X171780952Y-136371428D01*
X171876190Y-135990476D01*
X172066666Y-135800000D01*
X172257142Y-135704761D01*
X174923809Y-137704761D02*
X173971428Y-137704761D01*
X173971428Y-135704761D01*
D11*
X152600000Y-116600000D02*
X152600000Y-111000000D01*
X167800000Y-116600000D02*
X152600000Y-116600000D01*
X167800000Y-111000000D02*
X167800000Y-116600000D01*
X152600000Y-111000000D02*
X167800000Y-111000000D01*
D10*
X155819047Y-115723809D02*
X155819047Y-114123809D01*
X156352380Y-115266666D01*
X156885714Y-114123809D01*
X156885714Y-115723809D01*
X157952380Y-114123809D02*
X158257142Y-114123809D01*
X158409523Y-114200000D01*
X158561904Y-114352380D01*
X158638095Y-114657142D01*
X158638095Y-115190476D01*
X158561904Y-115495238D01*
X158409523Y-115647619D01*
X158257142Y-115723809D01*
X157952380Y-115723809D01*
X157800000Y-115647619D01*
X157647619Y-115495238D01*
X157571428Y-115190476D01*
X157571428Y-114657142D01*
X157647619Y-114352380D01*
X157800000Y-114200000D01*
X157952380Y-114123809D01*
X159323809Y-115723809D02*
X159323809Y-114123809D01*
X159704761Y-114123809D01*
X159933333Y-114200000D01*
X160085714Y-114352380D01*
X160161904Y-114504761D01*
X160238095Y-114809523D01*
X160238095Y-115038095D01*
X160161904Y-115342857D01*
X160085714Y-115495238D01*
X159933333Y-115647619D01*
X159704761Y-115723809D01*
X159323809Y-115723809D01*
X160923809Y-114123809D02*
X160923809Y-115419047D01*
X161000000Y-115571428D01*
X161076190Y-115647619D01*
X161228571Y-115723809D01*
X161533333Y-115723809D01*
X161685714Y-115647619D01*
X161761904Y-115571428D01*
X161838095Y-115419047D01*
X161838095Y-114123809D01*
X163361904Y-115723809D02*
X162600000Y-115723809D01*
X162600000Y-114123809D01*
X163895238Y-114885714D02*
X164428571Y-114885714D01*
X164657142Y-115723809D02*
X163895238Y-115723809D01*
X163895238Y-114123809D01*
X164657142Y-114123809D01*
X153609523Y-112485714D02*
X154142857Y-112485714D01*
X154371428Y-113323809D02*
X153609523Y-113323809D01*
X153609523Y-111723809D01*
X154371428Y-111723809D01*
X155971428Y-113323809D02*
X155438095Y-112561904D01*
X155057142Y-113323809D02*
X155057142Y-111723809D01*
X155666666Y-111723809D01*
X155819047Y-111800000D01*
X155895238Y-111876190D01*
X155971428Y-112028571D01*
X155971428Y-112257142D01*
X155895238Y-112409523D01*
X155819047Y-112485714D01*
X155666666Y-112561904D01*
X155057142Y-112561904D01*
X157571428Y-113323809D02*
X157038095Y-112561904D01*
X156657142Y-113323809D02*
X156657142Y-111723809D01*
X157266666Y-111723809D01*
X157419047Y-111800000D01*
X157495238Y-111876190D01*
X157571428Y-112028571D01*
X157571428Y-112257142D01*
X157495238Y-112409523D01*
X157419047Y-112485714D01*
X157266666Y-112561904D01*
X156657142Y-112561904D01*
X158561904Y-111723809D02*
X158866666Y-111723809D01*
X159019047Y-111800000D01*
X159171428Y-111952380D01*
X159247619Y-112257142D01*
X159247619Y-112790476D01*
X159171428Y-113095238D01*
X159019047Y-113247619D01*
X158866666Y-113323809D01*
X158561904Y-113323809D01*
X158409523Y-113247619D01*
X158257142Y-113095238D01*
X158180952Y-112790476D01*
X158180952Y-112257142D01*
X158257142Y-111952380D01*
X158409523Y-111800000D01*
X158561904Y-111723809D01*
X160847619Y-113323809D02*
X160314285Y-112561904D01*
X159933333Y-113323809D02*
X159933333Y-111723809D01*
X160542857Y-111723809D01*
X160695238Y-111800000D01*
X160771428Y-111876190D01*
X160847619Y-112028571D01*
X160847619Y-112257142D01*
X160771428Y-112409523D01*
X160695238Y-112485714D01*
X160542857Y-112561904D01*
X159933333Y-112561904D01*
X162676190Y-112866666D02*
X163438095Y-112866666D01*
X162523809Y-113323809D02*
X163057142Y-111723809D01*
X163590476Y-113323809D01*
X164123809Y-113323809D02*
X164123809Y-111723809D01*
X164657142Y-112866666D01*
X165190476Y-111723809D01*
X165190476Y-113323809D01*
X165952380Y-113323809D02*
X165952380Y-111723809D01*
X166561904Y-111723809D01*
X166714285Y-111800000D01*
X166790476Y-111876190D01*
X166866666Y-112028571D01*
X166866666Y-112257142D01*
X166790476Y-112409523D01*
X166714285Y-112485714D01*
X166561904Y-112561904D01*
X165952380Y-112561904D01*
D12*
X154850000Y-123966666D02*
X154850000Y-122900000D01*
X155383333Y-123433333D02*
X154316666Y-123433333D01*
X155383333Y-121500000D02*
X155383333Y-122300000D01*
X155383333Y-121900000D02*
X153983333Y-121900000D01*
X154183333Y-122033333D01*
X154316666Y-122166666D01*
X154383333Y-122300000D01*
X153983333Y-120233333D02*
X153983333Y-120900000D01*
X154650000Y-120966666D01*
X154583333Y-120900000D01*
X154516666Y-120766666D01*
X154516666Y-120433333D01*
X154583333Y-120300000D01*
X154650000Y-120233333D01*
X154783333Y-120166666D01*
X155116666Y-120166666D01*
X155250000Y-120233333D01*
X155316666Y-120300000D01*
X155383333Y-120433333D01*
X155383333Y-120766666D01*
X155316666Y-120900000D01*
X155250000Y-120966666D01*
X153983333Y-119766666D02*
X155383333Y-119300000D01*
X153983333Y-118833333D01*
X157350000Y-124050000D02*
X157350000Y-122983333D01*
X157883333Y-123516666D02*
X156816666Y-123516666D01*
X156483333Y-121650000D02*
X156483333Y-122316666D01*
X157150000Y-122383333D01*
X157083333Y-122316666D01*
X157016666Y-122183333D01*
X157016666Y-121850000D01*
X157083333Y-121716666D01*
X157150000Y-121650000D01*
X157283333Y-121583333D01*
X157616666Y-121583333D01*
X157750000Y-121650000D01*
X157816666Y-121716666D01*
X157883333Y-121850000D01*
X157883333Y-122183333D01*
X157816666Y-122316666D01*
X157750000Y-122383333D01*
X156483333Y-121183333D02*
X157883333Y-120716666D01*
X156483333Y-120250000D01*
X159850000Y-124050000D02*
X159850000Y-122983333D01*
X158983333Y-121650000D02*
X158983333Y-122316666D01*
X159650000Y-122383333D01*
X159583333Y-122316666D01*
X159516666Y-122183333D01*
X159516666Y-121850000D01*
X159583333Y-121716666D01*
X159650000Y-121650000D01*
X159783333Y-121583333D01*
X160116666Y-121583333D01*
X160250000Y-121650000D01*
X160316666Y-121716666D01*
X160383333Y-121850000D01*
X160383333Y-122183333D01*
X160316666Y-122316666D01*
X160250000Y-122383333D01*
X158983333Y-121183333D02*
X160383333Y-120716666D01*
X158983333Y-120250000D01*
X162600000Y-123966666D02*
X162600000Y-122900000D01*
X163133333Y-121500000D02*
X163133333Y-122300000D01*
X163133333Y-121900000D02*
X161733333Y-121900000D01*
X161933333Y-122033333D01*
X162066666Y-122166666D01*
X162133333Y-122300000D01*
X161733333Y-120233333D02*
X161733333Y-120900000D01*
X162400000Y-120966666D01*
X162333333Y-120900000D01*
X162266666Y-120766666D01*
X162266666Y-120433333D01*
X162333333Y-120300000D01*
X162400000Y-120233333D01*
X162533333Y-120166666D01*
X162866666Y-120166666D01*
X163000000Y-120233333D01*
X163066666Y-120300000D01*
X163133333Y-120433333D01*
X163133333Y-120766666D01*
X163066666Y-120900000D01*
X163000000Y-120966666D01*
X161733333Y-119766666D02*
X163133333Y-119300000D01*
X161733333Y-118833333D01*
X164300000Y-122816666D02*
X164233333Y-122950000D01*
X164233333Y-123150000D01*
X164300000Y-123350000D01*
X164433333Y-123483333D01*
X164566666Y-123550000D01*
X164833333Y-123616666D01*
X165033333Y-123616666D01*
X165300000Y-123550000D01*
X165433333Y-123483333D01*
X165566666Y-123350000D01*
X165633333Y-123150000D01*
X165633333Y-123016666D01*
X165566666Y-122816666D01*
X165500000Y-122750000D01*
X165033333Y-122750000D01*
X165033333Y-123016666D01*
X165633333Y-122150000D02*
X164233333Y-122150000D01*
X165633333Y-121350000D01*
X164233333Y-121350000D01*
X165633333Y-120683333D02*
X164233333Y-120683333D01*
X164233333Y-120350000D01*
X164300000Y-120150000D01*
X164433333Y-120016666D01*
X164566666Y-119950000D01*
X164833333Y-119883333D01*
X165033333Y-119883333D01*
X165300000Y-119950000D01*
X165433333Y-120016666D01*
X165566666Y-120150000D01*
X165633333Y-120350000D01*
X165633333Y-120683333D01*
X164300000Y-97566666D02*
X164233333Y-97700000D01*
X164233333Y-97900000D01*
X164300000Y-98100000D01*
X164433333Y-98233333D01*
X164566666Y-98300000D01*
X164833333Y-98366666D01*
X165033333Y-98366666D01*
X165300000Y-98300000D01*
X165433333Y-98233333D01*
X165566666Y-98100000D01*
X165633333Y-97900000D01*
X165633333Y-97766666D01*
X165566666Y-97566666D01*
X165500000Y-97500000D01*
X165033333Y-97500000D01*
X165033333Y-97766666D01*
X165633333Y-96900000D02*
X164233333Y-96900000D01*
X165633333Y-96100000D01*
X164233333Y-96100000D01*
X165633333Y-95433333D02*
X164233333Y-95433333D01*
X164233333Y-95100000D01*
X164300000Y-94900000D01*
X164433333Y-94766666D01*
X164566666Y-94700000D01*
X164833333Y-94633333D01*
X165033333Y-94633333D01*
X165300000Y-94700000D01*
X165433333Y-94766666D01*
X165566666Y-94900000D01*
X165633333Y-95100000D01*
X165633333Y-95433333D01*
X163000000Y-105433333D02*
X163066666Y-105500000D01*
X163133333Y-105700000D01*
X163133333Y-105833333D01*
X163066666Y-106033333D01*
X162933333Y-106166666D01*
X162800000Y-106233333D01*
X162533333Y-106300000D01*
X162333333Y-106300000D01*
X162066666Y-106233333D01*
X161933333Y-106166666D01*
X161800000Y-106033333D01*
X161733333Y-105833333D01*
X161733333Y-105700000D01*
X161800000Y-105500000D01*
X161866666Y-105433333D01*
X161733333Y-105033333D02*
X161733333Y-104233333D01*
X163133333Y-104633333D02*
X161733333Y-104633333D01*
X163133333Y-102966666D02*
X162466666Y-103433333D01*
X163133333Y-103766666D02*
X161733333Y-103766666D01*
X161733333Y-103233333D01*
X161800000Y-103100000D01*
X161866666Y-103033333D01*
X162000000Y-102966666D01*
X162200000Y-102966666D01*
X162333333Y-103033333D01*
X162400000Y-103100000D01*
X162466666Y-103233333D01*
X162466666Y-103766666D01*
X163266666Y-102700000D02*
X163266666Y-101633333D01*
X163066666Y-101366666D02*
X163133333Y-101166666D01*
X163133333Y-100833333D01*
X163066666Y-100700000D01*
X163000000Y-100633333D01*
X162866666Y-100566666D01*
X162733333Y-100566666D01*
X162600000Y-100633333D01*
X162533333Y-100700000D01*
X162466666Y-100833333D01*
X162400000Y-101100000D01*
X162333333Y-101233333D01*
X162266666Y-101300000D01*
X162133333Y-101366666D01*
X162000000Y-101366666D01*
X161866666Y-101300000D01*
X161800000Y-101233333D01*
X161733333Y-101100000D01*
X161733333Y-100766666D01*
X161800000Y-100566666D01*
X163133333Y-99966666D02*
X161733333Y-99966666D01*
X161800000Y-98566666D02*
X161733333Y-98700000D01*
X161733333Y-98900000D01*
X161800000Y-99100000D01*
X161933333Y-99233333D01*
X162066666Y-99300000D01*
X162333333Y-99366666D01*
X162533333Y-99366666D01*
X162800000Y-99300000D01*
X162933333Y-99233333D01*
X163066666Y-99100000D01*
X163133333Y-98900000D01*
X163133333Y-98766666D01*
X163066666Y-98566666D01*
X163000000Y-98500000D01*
X162533333Y-98500000D01*
X162533333Y-98766666D01*
X163133333Y-97900000D02*
X161733333Y-97900000D01*
X163133333Y-97100000D01*
X161733333Y-97100000D01*
X162733333Y-96500000D02*
X162733333Y-95833333D01*
X163133333Y-96633333D02*
X161733333Y-96166666D01*
X163133333Y-95700000D01*
X163133333Y-94566666D02*
X163133333Y-95233333D01*
X161733333Y-95233333D01*
X160633333Y-107883333D02*
X160633333Y-108550000D01*
X159233333Y-108550000D01*
X160633333Y-107416666D02*
X159233333Y-107416666D01*
X160633333Y-106750000D02*
X159233333Y-106750000D01*
X160233333Y-106283333D01*
X159233333Y-105816666D01*
X160633333Y-105816666D01*
X160633333Y-105150000D02*
X159233333Y-105150000D01*
X159233333Y-104683333D02*
X159233333Y-103883333D01*
X160633333Y-104283333D02*
X159233333Y-104283333D01*
X160766666Y-103750000D02*
X160766666Y-102683333D01*
X160500000Y-101550000D02*
X160566666Y-101616666D01*
X160633333Y-101816666D01*
X160633333Y-101950000D01*
X160566666Y-102150000D01*
X160433333Y-102283333D01*
X160300000Y-102350000D01*
X160033333Y-102416666D01*
X159833333Y-102416666D01*
X159566666Y-102350000D01*
X159433333Y-102283333D01*
X159300000Y-102150000D01*
X159233333Y-101950000D01*
X159233333Y-101816666D01*
X159300000Y-101616666D01*
X159366666Y-101550000D01*
X160633333Y-100283333D02*
X160633333Y-100950000D01*
X159233333Y-100950000D01*
X160233333Y-99883333D02*
X160233333Y-99216666D01*
X160633333Y-100016666D02*
X159233333Y-99550000D01*
X160633333Y-99083333D01*
X160633333Y-98616666D02*
X159233333Y-98616666D01*
X160233333Y-98150000D01*
X159233333Y-97683333D01*
X160633333Y-97683333D01*
X160633333Y-97016666D02*
X159233333Y-97016666D01*
X159233333Y-96483333D01*
X159300000Y-96350000D01*
X159366666Y-96283333D01*
X159500000Y-96216666D01*
X159700000Y-96216666D01*
X159833333Y-96283333D01*
X159900000Y-96350000D01*
X159966666Y-96483333D01*
X159966666Y-97016666D01*
X160566666Y-95683333D02*
X160633333Y-95483333D01*
X160633333Y-95150000D01*
X160566666Y-95016666D01*
X160500000Y-94950000D01*
X160366666Y-94883333D01*
X160233333Y-94883333D01*
X160100000Y-94950000D01*
X160033333Y-95016666D01*
X159966666Y-95150000D01*
X159900000Y-95416666D01*
X159833333Y-95550000D01*
X159766666Y-95616666D01*
X159633333Y-95683333D01*
X159500000Y-95683333D01*
X159366666Y-95616666D01*
X159300000Y-95550000D01*
X159233333Y-95416666D01*
X159233333Y-95083333D01*
X159300000Y-94883333D01*
X156733333Y-101866666D02*
X156733333Y-101600000D01*
X156800000Y-101466666D01*
X156933333Y-101333333D01*
X157200000Y-101266666D01*
X157666666Y-101266666D01*
X157933333Y-101333333D01*
X158066666Y-101466666D01*
X158133333Y-101600000D01*
X158133333Y-101866666D01*
X158066666Y-102000000D01*
X157933333Y-102133333D01*
X157666666Y-102200000D01*
X157200000Y-102200000D01*
X156933333Y-102133333D01*
X156800000Y-102000000D01*
X156733333Y-101866666D01*
X156733333Y-100666666D02*
X157866666Y-100666666D01*
X158000000Y-100600000D01*
X158066666Y-100533333D01*
X158133333Y-100400000D01*
X158133333Y-100133333D01*
X158066666Y-100000000D01*
X158000000Y-99933333D01*
X157866666Y-99866666D01*
X156733333Y-99866666D01*
X156733333Y-99400000D02*
X156733333Y-98600000D01*
X158133333Y-99000000D02*
X156733333Y-99000000D01*
X158133333Y-98133333D02*
X156733333Y-98133333D01*
X156733333Y-97600000D01*
X156800000Y-97466666D01*
X156866666Y-97400000D01*
X157000000Y-97333333D01*
X157200000Y-97333333D01*
X157333333Y-97400000D01*
X157400000Y-97466666D01*
X157466666Y-97600000D01*
X157466666Y-98133333D01*
X156733333Y-96733333D02*
X157866666Y-96733333D01*
X158000000Y-96666666D01*
X158066666Y-96600000D01*
X158133333Y-96466666D01*
X158133333Y-96200000D01*
X158066666Y-96066666D01*
X158000000Y-96000000D01*
X157866666Y-95933333D01*
X156733333Y-95933333D01*
X156733333Y-95466666D02*
X156733333Y-94666666D01*
X158133333Y-95066666D02*
X156733333Y-95066666D01*
X154300000Y-97566666D02*
X154233333Y-97700000D01*
X154233333Y-97900000D01*
X154300000Y-98100000D01*
X154433333Y-98233333D01*
X154566666Y-98300000D01*
X154833333Y-98366666D01*
X155033333Y-98366666D01*
X155300000Y-98300000D01*
X155433333Y-98233333D01*
X155566666Y-98100000D01*
X155633333Y-97900000D01*
X155633333Y-97766666D01*
X155566666Y-97566666D01*
X155500000Y-97500000D01*
X155033333Y-97500000D01*
X155033333Y-97766666D01*
X155633333Y-96900000D02*
X154233333Y-96900000D01*
X155633333Y-96100000D01*
X154233333Y-96100000D01*
X155633333Y-95433333D02*
X154233333Y-95433333D01*
X154233333Y-95100000D01*
X154300000Y-94900000D01*
X154433333Y-94766666D01*
X154566666Y-94700000D01*
X154833333Y-94633333D01*
X155033333Y-94633333D01*
X155300000Y-94700000D01*
X155433333Y-94766666D01*
X155566666Y-94900000D01*
X155633333Y-95100000D01*
X155633333Y-95433333D01*
X186933333Y-84300000D02*
X186800000Y-84233333D01*
X186600000Y-84233333D01*
X186400000Y-84300000D01*
X186266666Y-84433333D01*
X186200000Y-84566666D01*
X186133333Y-84833333D01*
X186133333Y-85033333D01*
X186200000Y-85300000D01*
X186266666Y-85433333D01*
X186400000Y-85566666D01*
X186600000Y-85633333D01*
X186733333Y-85633333D01*
X186933333Y-85566666D01*
X187000000Y-85500000D01*
X187000000Y-85033333D01*
X186733333Y-85033333D01*
X187600000Y-85633333D02*
X187600000Y-84233333D01*
X188400000Y-85633333D01*
X188400000Y-84233333D01*
X189066666Y-85633333D02*
X189066666Y-84233333D01*
X189400000Y-84233333D01*
X189600000Y-84300000D01*
X189733333Y-84433333D01*
X189800000Y-84566666D01*
X189866666Y-84833333D01*
X189866666Y-85033333D01*
X189800000Y-85300000D01*
X189733333Y-85433333D01*
X189600000Y-85566666D01*
X189400000Y-85633333D01*
X189066666Y-85633333D01*
X186766666Y-95633333D02*
X186766666Y-94233333D01*
X187100000Y-95766666D02*
X188166666Y-95766666D01*
X188500000Y-95633333D02*
X188500000Y-94233333D01*
X189033333Y-94233333D01*
X189166666Y-94300000D01*
X189233333Y-94366666D01*
X189300000Y-94500000D01*
X189300000Y-94700000D01*
X189233333Y-94833333D01*
X189166666Y-94900000D01*
X189033333Y-94966666D01*
X188500000Y-94966666D01*
X186900000Y-93133333D02*
X186900000Y-91733333D01*
X187233333Y-93266666D02*
X188300000Y-93266666D01*
X189300000Y-93133333D02*
X188633333Y-93133333D01*
X188633333Y-91733333D01*
X186366666Y-89233333D02*
X186366666Y-90366666D01*
X186433333Y-90500000D01*
X186500000Y-90566666D01*
X186633333Y-90633333D01*
X186900000Y-90633333D01*
X187033333Y-90566666D01*
X187100000Y-90500000D01*
X187166666Y-90366666D01*
X187166666Y-89233333D01*
X187500000Y-90766666D02*
X188566666Y-90766666D01*
X188900000Y-90633333D02*
X188900000Y-89233333D01*
X189433333Y-89233333D01*
X189566666Y-89300000D01*
X189633333Y-89366666D01*
X189700000Y-89500000D01*
X189700000Y-89700000D01*
X189633333Y-89833333D01*
X189566666Y-89900000D01*
X189433333Y-89966666D01*
X188900000Y-89966666D01*
X186333333Y-86733333D02*
X186333333Y-87866666D01*
X186400000Y-88000000D01*
X186466666Y-88066666D01*
X186600000Y-88133333D01*
X186866666Y-88133333D01*
X187000000Y-88066666D01*
X187066666Y-88000000D01*
X187133333Y-87866666D01*
X187133333Y-86733333D01*
X187466666Y-88266666D02*
X188533333Y-88266666D01*
X188866666Y-88133333D02*
X188866666Y-86733333D01*
X189666666Y-88133333D01*
X189666666Y-86733333D01*
X181833333Y-81733333D02*
X182633333Y-81733333D01*
X182233333Y-83133333D02*
X182233333Y-81733333D01*
X183900000Y-83133333D02*
X183433333Y-82466666D01*
X183100000Y-83133333D02*
X183100000Y-81733333D01*
X183633333Y-81733333D01*
X183766666Y-81800000D01*
X183833333Y-81866666D01*
X183900000Y-82000000D01*
X183900000Y-82200000D01*
X183833333Y-82333333D01*
X183766666Y-82400000D01*
X183633333Y-82466666D01*
X183100000Y-82466666D01*
X184500000Y-83133333D02*
X184500000Y-81733333D01*
X185900000Y-81800000D02*
X185766666Y-81733333D01*
X185566666Y-81733333D01*
X185366666Y-81800000D01*
X185233333Y-81933333D01*
X185166666Y-82066666D01*
X185100000Y-82333333D01*
X185100000Y-82533333D01*
X185166666Y-82800000D01*
X185233333Y-82933333D01*
X185366666Y-83066666D01*
X185566666Y-83133333D01*
X185700000Y-83133333D01*
X185900000Y-83066666D01*
X185966666Y-83000000D01*
X185966666Y-82533333D01*
X185700000Y-82533333D01*
X187300000Y-81800000D02*
X187166666Y-81733333D01*
X186966666Y-81733333D01*
X186766666Y-81800000D01*
X186633333Y-81933333D01*
X186566666Y-82066666D01*
X186500000Y-82333333D01*
X186500000Y-82533333D01*
X186566666Y-82800000D01*
X186633333Y-82933333D01*
X186766666Y-83066666D01*
X186966666Y-83133333D01*
X187100000Y-83133333D01*
X187300000Y-83066666D01*
X187366666Y-83000000D01*
X187366666Y-82533333D01*
X187100000Y-82533333D01*
X187966666Y-82400000D02*
X188433333Y-82400000D01*
X188633333Y-83133333D02*
X187966666Y-83133333D01*
X187966666Y-81733333D01*
X188633333Y-81733333D01*
X190033333Y-83133333D02*
X189566666Y-82466666D01*
X189233333Y-83133333D02*
X189233333Y-81733333D01*
X189766666Y-81733333D01*
X189900000Y-81800000D01*
X189966666Y-81866666D01*
X190033333Y-82000000D01*
X190033333Y-82200000D01*
X189966666Y-82333333D01*
X189900000Y-82400000D01*
X189766666Y-82466666D01*
X189233333Y-82466666D01*
X150800000Y-55566666D02*
X150733333Y-55700000D01*
X150733333Y-55900000D01*
X150800000Y-56100000D01*
X150933333Y-56233333D01*
X151066666Y-56300000D01*
X151333333Y-56366666D01*
X151533333Y-56366666D01*
X151800000Y-56300000D01*
X151933333Y-56233333D01*
X152066666Y-56100000D01*
X152133333Y-55900000D01*
X152133333Y-55766666D01*
X152066666Y-55566666D01*
X152000000Y-55500000D01*
X151533333Y-55500000D01*
X151533333Y-55766666D01*
X152133333Y-54900000D02*
X150733333Y-54900000D01*
X152133333Y-54100000D01*
X150733333Y-54100000D01*
X152133333Y-53433333D02*
X150733333Y-53433333D01*
X150733333Y-53100000D01*
X150800000Y-52900000D01*
X150933333Y-52766666D01*
X151066666Y-52700000D01*
X151333333Y-52633333D01*
X151533333Y-52633333D01*
X151800000Y-52700000D01*
X151933333Y-52766666D01*
X152066666Y-52900000D01*
X152133333Y-53100000D01*
X152133333Y-53433333D01*
X158233333Y-56000000D02*
X159366666Y-56000000D01*
X159500000Y-55933333D01*
X159566666Y-55866666D01*
X159633333Y-55733333D01*
X159633333Y-55466666D01*
X159566666Y-55333333D01*
X159500000Y-55266666D01*
X159366666Y-55200000D01*
X158233333Y-55200000D01*
X159766666Y-54866666D02*
X159766666Y-53800000D01*
X159633333Y-53466666D02*
X158233333Y-53466666D01*
X159633333Y-52666666D01*
X158233333Y-52666666D01*
X158900000Y-52000000D02*
X158900000Y-51533333D01*
X159633333Y-51333333D02*
X159633333Y-52000000D01*
X158233333Y-52000000D01*
X158233333Y-51333333D01*
X158300000Y-50000000D02*
X158233333Y-50133333D01*
X158233333Y-50333333D01*
X158300000Y-50533333D01*
X158433333Y-50666666D01*
X158566666Y-50733333D01*
X158833333Y-50800000D01*
X159033333Y-50800000D01*
X159300000Y-50733333D01*
X159433333Y-50666666D01*
X159566666Y-50533333D01*
X159633333Y-50333333D01*
X159633333Y-50200000D01*
X159566666Y-50000000D01*
X159500000Y-49933333D01*
X159033333Y-49933333D01*
X159033333Y-50200000D01*
X160733333Y-56033333D02*
X161866666Y-56033333D01*
X162000000Y-55966666D01*
X162066666Y-55900000D01*
X162133333Y-55766666D01*
X162133333Y-55500000D01*
X162066666Y-55366666D01*
X162000000Y-55300000D01*
X161866666Y-55233333D01*
X160733333Y-55233333D01*
X162266666Y-54900000D02*
X162266666Y-53833333D01*
X162133333Y-53500000D02*
X160733333Y-53500000D01*
X160733333Y-52966666D01*
X160800000Y-52833333D01*
X160866666Y-52766666D01*
X161000000Y-52700000D01*
X161200000Y-52700000D01*
X161333333Y-52766666D01*
X161400000Y-52833333D01*
X161466666Y-52966666D01*
X161466666Y-53500000D01*
X160733333Y-51833333D02*
X160733333Y-51566666D01*
X160800000Y-51433333D01*
X160933333Y-51300000D01*
X161200000Y-51233333D01*
X161666666Y-51233333D01*
X161933333Y-51300000D01*
X162066666Y-51433333D01*
X162133333Y-51566666D01*
X162133333Y-51833333D01*
X162066666Y-51966666D01*
X161933333Y-52100000D01*
X161666666Y-52166666D01*
X161200000Y-52166666D01*
X160933333Y-52100000D01*
X160800000Y-51966666D01*
X160733333Y-51833333D01*
X162066666Y-50700000D02*
X162133333Y-50500000D01*
X162133333Y-50166666D01*
X162066666Y-50033333D01*
X162000000Y-49966666D01*
X161866666Y-49900000D01*
X161733333Y-49900000D01*
X161600000Y-49966666D01*
X161533333Y-50033333D01*
X161466666Y-50166666D01*
X161400000Y-50433333D01*
X161333333Y-50566666D01*
X161266666Y-50633333D01*
X161133333Y-50700000D01*
X161000000Y-50700000D01*
X160866666Y-50633333D01*
X160800000Y-50566666D01*
X160733333Y-50433333D01*
X160733333Y-50100000D01*
X160800000Y-49900000D01*
X154633333Y-56100000D02*
X153233333Y-56100000D01*
X154766666Y-55766666D02*
X154766666Y-54700000D01*
X154633333Y-54366666D02*
X153233333Y-54366666D01*
X154633333Y-53566666D01*
X153233333Y-53566666D01*
X153900000Y-52900000D02*
X153900000Y-52433333D01*
X154633333Y-52233333D02*
X154633333Y-52900000D01*
X153233333Y-52900000D01*
X153233333Y-52233333D01*
X153300000Y-50900000D02*
X153233333Y-51033333D01*
X153233333Y-51233333D01*
X153300000Y-51433333D01*
X153433333Y-51566666D01*
X153566666Y-51633333D01*
X153833333Y-51700000D01*
X154033333Y-51700000D01*
X154300000Y-51633333D01*
X154433333Y-51566666D01*
X154566666Y-51433333D01*
X154633333Y-51233333D01*
X154633333Y-51100000D01*
X154566666Y-50900000D01*
X154500000Y-50833333D01*
X154033333Y-50833333D01*
X154033333Y-51100000D01*
X157133333Y-56133333D02*
X155733333Y-56133333D01*
X157266666Y-55800000D02*
X157266666Y-54733333D01*
X157133333Y-54400000D02*
X155733333Y-54400000D01*
X155733333Y-53866666D01*
X155800000Y-53733333D01*
X155866666Y-53666666D01*
X156000000Y-53600000D01*
X156200000Y-53600000D01*
X156333333Y-53666666D01*
X156400000Y-53733333D01*
X156466666Y-53866666D01*
X156466666Y-54400000D01*
X155733333Y-52733333D02*
X155733333Y-52466666D01*
X155800000Y-52333333D01*
X155933333Y-52200000D01*
X156200000Y-52133333D01*
X156666666Y-52133333D01*
X156933333Y-52200000D01*
X157066666Y-52333333D01*
X157133333Y-52466666D01*
X157133333Y-52733333D01*
X157066666Y-52866666D01*
X156933333Y-53000000D01*
X156666666Y-53066666D01*
X156200000Y-53066666D01*
X155933333Y-53000000D01*
X155800000Y-52866666D01*
X155733333Y-52733333D01*
X157066666Y-51600000D02*
X157133333Y-51400000D01*
X157133333Y-51066666D01*
X157066666Y-50933333D01*
X157000000Y-50866666D01*
X156866666Y-50800000D01*
X156733333Y-50800000D01*
X156600000Y-50866666D01*
X156533333Y-50933333D01*
X156466666Y-51066666D01*
X156400000Y-51333333D01*
X156333333Y-51466666D01*
X156266666Y-51533333D01*
X156133333Y-51600000D01*
X156000000Y-51600000D01*
X155866666Y-51533333D01*
X155800000Y-51466666D01*
X155733333Y-51333333D01*
X155733333Y-51000000D01*
X155800000Y-50800000D01*
X179000000Y-53766666D02*
X179000000Y-52633333D01*
X178933333Y-52500000D01*
X178866666Y-52433333D01*
X178733333Y-52366666D01*
X178466666Y-52366666D01*
X178333333Y-52433333D01*
X178266666Y-52500000D01*
X178200000Y-52633333D01*
X178200000Y-53766666D01*
X177866666Y-52233333D02*
X176800000Y-52233333D01*
X176466666Y-52366666D02*
X176466666Y-53766666D01*
X175666666Y-52366666D01*
X175666666Y-53766666D01*
X175000000Y-53100000D02*
X174533333Y-53100000D01*
X174333333Y-52366666D02*
X175000000Y-52366666D01*
X175000000Y-53766666D01*
X174333333Y-53766666D01*
X173000000Y-53700000D02*
X173133333Y-53766666D01*
X173333333Y-53766666D01*
X173533333Y-53700000D01*
X173666666Y-53566666D01*
X173733333Y-53433333D01*
X173800000Y-53166666D01*
X173800000Y-52966666D01*
X173733333Y-52700000D01*
X173666666Y-52566666D01*
X173533333Y-52433333D01*
X173333333Y-52366666D01*
X173200000Y-52366666D01*
X173000000Y-52433333D01*
X172933333Y-52500000D01*
X172933333Y-52966666D01*
X173200000Y-52966666D01*
X171533333Y-53766666D02*
X171533333Y-52633333D01*
X171466666Y-52500000D01*
X171400000Y-52433333D01*
X171266666Y-52366666D01*
X171000000Y-52366666D01*
X170866666Y-52433333D01*
X170800000Y-52500000D01*
X170733333Y-52633333D01*
X170733333Y-53766666D01*
X170400000Y-52233333D02*
X169333333Y-52233333D01*
X169000000Y-52366666D02*
X169000000Y-53766666D01*
X168466666Y-53766666D01*
X168333333Y-53700000D01*
X168266666Y-53633333D01*
X168200000Y-53500000D01*
X168200000Y-53300000D01*
X168266666Y-53166666D01*
X168333333Y-53100000D01*
X168466666Y-53033333D01*
X169000000Y-53033333D01*
X167333333Y-53766666D02*
X167066666Y-53766666D01*
X166933333Y-53700000D01*
X166800000Y-53566666D01*
X166733333Y-53300000D01*
X166733333Y-52833333D01*
X166800000Y-52566666D01*
X166933333Y-52433333D01*
X167066666Y-52366666D01*
X167333333Y-52366666D01*
X167466666Y-52433333D01*
X167600000Y-52566666D01*
X167666666Y-52833333D01*
X167666666Y-53300000D01*
X167600000Y-53566666D01*
X167466666Y-53700000D01*
X167333333Y-53766666D01*
X166200000Y-52433333D02*
X166000000Y-52366666D01*
X165666666Y-52366666D01*
X165533333Y-52433333D01*
X165466666Y-52500000D01*
X165400000Y-52633333D01*
X165400000Y-52766666D01*
X165466666Y-52900000D01*
X165533333Y-52966666D01*
X165666666Y-53033333D01*
X165933333Y-53100000D01*
X166066666Y-53166666D01*
X166133333Y-53233333D01*
X166200000Y-53366666D01*
X166200000Y-53500000D01*
X166133333Y-53633333D01*
X166066666Y-53700000D01*
X165933333Y-53766666D01*
X165600000Y-53766666D01*
X165400000Y-53700000D01*
X138633333Y-52366666D02*
X138633333Y-53766666D01*
X138300000Y-52233333D02*
X137233333Y-52233333D01*
X136900000Y-52366666D02*
X136900000Y-53766666D01*
X136366666Y-53766666D01*
X136233333Y-53700000D01*
X136166666Y-53633333D01*
X136100000Y-53500000D01*
X136100000Y-53300000D01*
X136166666Y-53166666D01*
X136233333Y-53100000D01*
X136366666Y-53033333D01*
X136900000Y-53033333D01*
X135233333Y-53766666D02*
X134966666Y-53766666D01*
X134833333Y-53700000D01*
X134700000Y-53566666D01*
X134633333Y-53300000D01*
X134633333Y-52833333D01*
X134700000Y-52566666D01*
X134833333Y-52433333D01*
X134966666Y-52366666D01*
X135233333Y-52366666D01*
X135366666Y-52433333D01*
X135500000Y-52566666D01*
X135566666Y-52833333D01*
X135566666Y-53300000D01*
X135500000Y-53566666D01*
X135366666Y-53700000D01*
X135233333Y-53766666D01*
X134100000Y-52433333D02*
X133900000Y-52366666D01*
X133566666Y-52366666D01*
X133433333Y-52433333D01*
X133366666Y-52500000D01*
X133300000Y-52633333D01*
X133300000Y-52766666D01*
X133366666Y-52900000D01*
X133433333Y-52966666D01*
X133566666Y-53033333D01*
X133833333Y-53100000D01*
X133966666Y-53166666D01*
X134033333Y-53233333D01*
X134100000Y-53366666D01*
X134100000Y-53500000D01*
X134033333Y-53633333D01*
X133966666Y-53700000D01*
X133833333Y-53766666D01*
X133500000Y-53766666D01*
X133300000Y-53700000D01*
X145600000Y-52366666D02*
X145600000Y-53766666D01*
X145266666Y-52233333D02*
X144200000Y-52233333D01*
X143866666Y-52366666D02*
X143866666Y-53766666D01*
X143066666Y-52366666D01*
X143066666Y-53766666D01*
X142400000Y-53100000D02*
X141933333Y-53100000D01*
X141733333Y-52366666D02*
X142400000Y-52366666D01*
X142400000Y-53766666D01*
X141733333Y-53766666D01*
X140400000Y-53700000D02*
X140533333Y-53766666D01*
X140733333Y-53766666D01*
X140933333Y-53700000D01*
X141066666Y-53566666D01*
X141133333Y-53433333D01*
X141200000Y-53166666D01*
X141200000Y-52966666D01*
X141133333Y-52700000D01*
X141066666Y-52566666D01*
X140933333Y-52433333D01*
X140733333Y-52366666D01*
X140600000Y-52366666D01*
X140400000Y-52433333D01*
X140333333Y-52500000D01*
X140333333Y-52966666D01*
X140600000Y-52966666D01*
X184531142Y-71132000D02*
X184388285Y-71060571D01*
X184174000Y-71060571D01*
X183959714Y-71132000D01*
X183816857Y-71274857D01*
X183745428Y-71417714D01*
X183674000Y-71703428D01*
X183674000Y-71917714D01*
X183745428Y-72203428D01*
X183816857Y-72346285D01*
X183959714Y-72489142D01*
X184174000Y-72560571D01*
X184316857Y-72560571D01*
X184531142Y-72489142D01*
X184602571Y-72417714D01*
X184602571Y-71917714D01*
X184316857Y-71917714D01*
X185245428Y-72560571D02*
X185245428Y-71060571D01*
X186102571Y-72560571D01*
X186102571Y-71060571D01*
X186816857Y-72560571D02*
X186816857Y-71060571D01*
X187174000Y-71060571D01*
X187388285Y-71132000D01*
X187531142Y-71274857D01*
X187602571Y-71417714D01*
X187674000Y-71703428D01*
X187674000Y-71917714D01*
X187602571Y-72203428D01*
X187531142Y-72346285D01*
X187388285Y-72489142D01*
X187174000Y-72560571D01*
X186816857Y-72560571D01*
X105817142Y-94780000D02*
X105674285Y-94708571D01*
X105460000Y-94708571D01*
X105245714Y-94780000D01*
X105102857Y-94922857D01*
X105031428Y-95065714D01*
X104960000Y-95351428D01*
X104960000Y-95565714D01*
X105031428Y-95851428D01*
X105102857Y-95994285D01*
X105245714Y-96137142D01*
X105460000Y-96208571D01*
X105602857Y-96208571D01*
X105817142Y-96137142D01*
X105888571Y-96065714D01*
X105888571Y-95565714D01*
X105602857Y-95565714D01*
X106531428Y-96208571D02*
X106531428Y-94708571D01*
X107388571Y-96208571D01*
X107388571Y-94708571D01*
X108102857Y-96208571D02*
X108102857Y-94708571D01*
X108460000Y-94708571D01*
X108674285Y-94780000D01*
X108817142Y-94922857D01*
X108888571Y-95065714D01*
X108960000Y-95351428D01*
X108960000Y-95565714D01*
X108888571Y-95851428D01*
X108817142Y-95994285D01*
X108674285Y-96137142D01*
X108460000Y-96208571D01*
X108102857Y-96208571D01*
X92299428Y-95489714D02*
X93799428Y-95489714D01*
X92370857Y-96132571D02*
X92299428Y-96346857D01*
X92299428Y-96704000D01*
X92370857Y-96846857D01*
X92442285Y-96918285D01*
X92585142Y-96989714D01*
X92728000Y-96989714D01*
X92870857Y-96918285D01*
X92942285Y-96846857D01*
X93013714Y-96704000D01*
X93085142Y-96418285D01*
X93156571Y-96275428D01*
X93228000Y-96204000D01*
X93370857Y-96132571D01*
X93513714Y-96132571D01*
X93656571Y-96204000D01*
X93728000Y-96275428D01*
X93799428Y-96418285D01*
X93799428Y-96775428D01*
X93728000Y-96989714D01*
X93085142Y-97632571D02*
X93085142Y-98132571D01*
X92299428Y-98346857D02*
X92299428Y-97632571D01*
X93799428Y-97632571D01*
X93799428Y-98346857D01*
X93799428Y-98775428D02*
X93799428Y-99632571D01*
X92299428Y-99204000D02*
X93799428Y-99204000D01*
X93799428Y-100903142D02*
X92585142Y-100903142D01*
X92442285Y-100974571D01*
X92370857Y-101046000D01*
X92299428Y-101188857D01*
X92299428Y-101474571D01*
X92370857Y-101617428D01*
X92442285Y-101688857D01*
X92585142Y-101760285D01*
X93799428Y-101760285D01*
X92370857Y-102403142D02*
X92299428Y-102617428D01*
X92299428Y-102974571D01*
X92370857Y-103117428D01*
X92442285Y-103188857D01*
X92585142Y-103260285D01*
X92728000Y-103260285D01*
X92870857Y-103188857D01*
X92942285Y-103117428D01*
X93013714Y-102974571D01*
X93085142Y-102688857D01*
X93156571Y-102546000D01*
X93228000Y-102474571D01*
X93370857Y-102403142D01*
X93513714Y-102403142D01*
X93656571Y-102474571D01*
X93728000Y-102546000D01*
X93799428Y-102688857D01*
X93799428Y-103046000D01*
X93728000Y-103260285D01*
X93085142Y-103903142D02*
X93085142Y-104403142D01*
X92299428Y-104617428D02*
X92299428Y-103903142D01*
X93799428Y-103903142D01*
X93799428Y-104617428D01*
X93799428Y-105046000D02*
X93799428Y-105903142D01*
X92299428Y-105474571D02*
X93799428Y-105474571D01*
X93728000Y-107741142D02*
X93799428Y-107598285D01*
X93799428Y-107384000D01*
X93728000Y-107169714D01*
X93585142Y-107026857D01*
X93442285Y-106955428D01*
X93156571Y-106884000D01*
X92942285Y-106884000D01*
X92656571Y-106955428D01*
X92513714Y-107026857D01*
X92370857Y-107169714D01*
X92299428Y-107384000D01*
X92299428Y-107526857D01*
X92370857Y-107741142D01*
X92442285Y-107812571D01*
X92942285Y-107812571D01*
X92942285Y-107526857D01*
X92299428Y-108455428D02*
X93799428Y-108455428D01*
X92299428Y-109312571D01*
X93799428Y-109312571D01*
X92299428Y-110026857D02*
X93799428Y-110026857D01*
X93799428Y-110384000D01*
X93728000Y-110598285D01*
X93585142Y-110741142D01*
X93442285Y-110812571D01*
X93156571Y-110884000D01*
X92942285Y-110884000D01*
X92656571Y-110812571D01*
X92513714Y-110741142D01*
X92370857Y-110598285D01*
X92299428Y-110384000D01*
X92299428Y-110026857D01*
X122300857Y-53963000D02*
X122443714Y-54034428D01*
X122658000Y-54034428D01*
X122872285Y-53963000D01*
X123015142Y-53820142D01*
X123086571Y-53677285D01*
X123158000Y-53391571D01*
X123158000Y-53177285D01*
X123086571Y-52891571D01*
X123015142Y-52748714D01*
X122872285Y-52605857D01*
X122658000Y-52534428D01*
X122515142Y-52534428D01*
X122300857Y-52605857D01*
X122229428Y-52677285D01*
X122229428Y-53177285D01*
X122515142Y-53177285D01*
X121586571Y-52534428D02*
X121586571Y-54034428D01*
X120729428Y-52534428D01*
X120729428Y-54034428D01*
X120015142Y-52534428D02*
X120015142Y-54034428D01*
X119658000Y-54034428D01*
X119443714Y-53963000D01*
X119300857Y-53820142D01*
X119229428Y-53677285D01*
X119158000Y-53391571D01*
X119158000Y-53177285D01*
X119229428Y-52891571D01*
X119300857Y-52748714D01*
X119443714Y-52605857D01*
X119658000Y-52534428D01*
X120015142Y-52534428D01*
X110914285Y-49921428D02*
X110914285Y-51421428D01*
X110414285Y-50350000D01*
X109914285Y-51421428D01*
X109914285Y-49921428D01*
X108914285Y-51421428D02*
X108628571Y-51421428D01*
X108485714Y-51350000D01*
X108342857Y-51207142D01*
X108271428Y-50921428D01*
X108271428Y-50421428D01*
X108342857Y-50135714D01*
X108485714Y-49992857D01*
X108628571Y-49921428D01*
X108914285Y-49921428D01*
X109057142Y-49992857D01*
X109200000Y-50135714D01*
X109271428Y-50421428D01*
X109271428Y-50921428D01*
X109200000Y-51207142D01*
X109057142Y-51350000D01*
X108914285Y-51421428D01*
X107628571Y-49921428D02*
X107628571Y-51421428D01*
X107271428Y-51421428D01*
X107057142Y-51350000D01*
X106914285Y-51207142D01*
X106842857Y-51064285D01*
X106771428Y-50778571D01*
X106771428Y-50564285D01*
X106842857Y-50278571D01*
X106914285Y-50135714D01*
X107057142Y-49992857D01*
X107271428Y-49921428D01*
X107628571Y-49921428D01*
X106128571Y-50707142D02*
X105628571Y-50707142D01*
X105414285Y-49921428D02*
X106128571Y-49921428D01*
X106128571Y-51421428D01*
X105414285Y-51421428D01*
X109257142Y-52464285D02*
X109328571Y-52392857D01*
X109542857Y-52321428D01*
X109685714Y-52321428D01*
X109900000Y-52392857D01*
X110042857Y-52535714D01*
X110114285Y-52678571D01*
X110185714Y-52964285D01*
X110185714Y-53178571D01*
X110114285Y-53464285D01*
X110042857Y-53607142D01*
X109900000Y-53750000D01*
X109685714Y-53821428D01*
X109542857Y-53821428D01*
X109328571Y-53750000D01*
X109257142Y-53678571D01*
X108828571Y-53821428D02*
X107971428Y-53821428D01*
X108400000Y-52321428D02*
X108400000Y-53821428D01*
X106614285Y-52321428D02*
X107114285Y-53035714D01*
X107471428Y-52321428D02*
X107471428Y-53821428D01*
X106900000Y-53821428D01*
X106757142Y-53750000D01*
X106685714Y-53678571D01*
X106614285Y-53535714D01*
X106614285Y-53321428D01*
X106685714Y-53178571D01*
X106757142Y-53107142D01*
X106900000Y-53035714D01*
X107471428Y-53035714D01*
X139549428Y-142093142D02*
X140692285Y-142093142D01*
X142120857Y-141164571D02*
X141406571Y-141164571D01*
X141335142Y-141878857D01*
X141406571Y-141807428D01*
X141549428Y-141736000D01*
X141906571Y-141736000D01*
X142049428Y-141807428D01*
X142120857Y-141878857D01*
X142192285Y-142021714D01*
X142192285Y-142378857D01*
X142120857Y-142521714D01*
X142049428Y-142593142D01*
X141906571Y-142664571D01*
X141549428Y-142664571D01*
X141406571Y-142593142D01*
X141335142Y-142521714D01*
X142620857Y-141164571D02*
X143120857Y-142664571D01*
X143620857Y-141164571D01*
X146685142Y-141236000D02*
X146542285Y-141164571D01*
X146328000Y-141164571D01*
X146113714Y-141236000D01*
X145970857Y-141378857D01*
X145899428Y-141521714D01*
X145828000Y-141807428D01*
X145828000Y-142021714D01*
X145899428Y-142307428D01*
X145970857Y-142450285D01*
X146113714Y-142593142D01*
X146328000Y-142664571D01*
X146470857Y-142664571D01*
X146685142Y-142593142D01*
X146756571Y-142521714D01*
X146756571Y-142021714D01*
X146470857Y-142021714D01*
X147399428Y-142664571D02*
X147399428Y-141164571D01*
X148256571Y-142664571D01*
X148256571Y-141164571D01*
X148970857Y-142664571D02*
X148970857Y-141164571D01*
X149328000Y-141164571D01*
X149542285Y-141236000D01*
X149685142Y-141378857D01*
X149756571Y-141521714D01*
X149828000Y-141807428D01*
X149828000Y-142021714D01*
X149756571Y-142307428D01*
X149685142Y-142450285D01*
X149542285Y-142593142D01*
X149328000Y-142664571D01*
X148970857Y-142664571D01*
X151694428Y-142093142D02*
X152837285Y-142093142D01*
X152265857Y-142664571D02*
X152265857Y-141521714D01*
X154265857Y-141164571D02*
X153551571Y-141164571D01*
X153480142Y-141878857D01*
X153551571Y-141807428D01*
X153694428Y-141736000D01*
X154051571Y-141736000D01*
X154194428Y-141807428D01*
X154265857Y-141878857D01*
X154337285Y-142021714D01*
X154337285Y-142378857D01*
X154265857Y-142521714D01*
X154194428Y-142593142D01*
X154051571Y-142664571D01*
X153694428Y-142664571D01*
X153551571Y-142593142D01*
X153480142Y-142521714D01*
X154765857Y-141164571D02*
X155265857Y-142664571D01*
X155765857Y-141164571D01*
D10*
X190488000Y-132766000D02*
X185988000Y-132766000D01*
X190488000Y-125766000D02*
X190488000Y-132766000D01*
X190488000Y-118516000D02*
X185738000Y-118516000D01*
X190488000Y-125766000D02*
X190488000Y-118516000D01*
X185488000Y-125766000D02*
X190488000Y-125766000D01*
X188702285Y-123158857D02*
X188797523Y-123254095D01*
X188892761Y-123539809D01*
X188892761Y-123730285D01*
X188797523Y-124016000D01*
X188607047Y-124206476D01*
X188416571Y-124301714D01*
X188035619Y-124396952D01*
X187749904Y-124396952D01*
X187368952Y-124301714D01*
X187178476Y-124206476D01*
X186988000Y-124016000D01*
X186892761Y-123730285D01*
X186892761Y-123539809D01*
X186988000Y-123254095D01*
X187083238Y-123158857D01*
X186892761Y-122587428D02*
X186892761Y-121444571D01*
X188892761Y-122016000D02*
X186892761Y-122016000D01*
X188892761Y-119635047D02*
X187940380Y-120301714D01*
X188892761Y-120777904D02*
X186892761Y-120777904D01*
X186892761Y-120016000D01*
X186988000Y-119825523D01*
X187083238Y-119730285D01*
X187273714Y-119635047D01*
X187559428Y-119635047D01*
X187749904Y-119730285D01*
X187845142Y-119825523D01*
X187940380Y-120016000D01*
X187940380Y-120777904D01*
X186988000Y-130789809D02*
X186892761Y-130980285D01*
X186892761Y-131266000D01*
X186988000Y-131551714D01*
X187178476Y-131742190D01*
X187368952Y-131837428D01*
X187749904Y-131932666D01*
X188035619Y-131932666D01*
X188416571Y-131837428D01*
X188607047Y-131742190D01*
X188797523Y-131551714D01*
X188892761Y-131266000D01*
X188892761Y-131075523D01*
X188797523Y-130789809D01*
X188702285Y-130694571D01*
X188035619Y-130694571D01*
X188035619Y-131075523D01*
X188892761Y-129837428D02*
X186892761Y-129837428D01*
X188892761Y-128694571D01*
X186892761Y-128694571D01*
X188892761Y-127742190D02*
X186892761Y-127742190D01*
X186892761Y-127266000D01*
X186988000Y-126980285D01*
X187178476Y-126789809D01*
X187368952Y-126694571D01*
X187749904Y-126599333D01*
X188035619Y-126599333D01*
X188416571Y-126694571D01*
X188607047Y-126789809D01*
X188797523Y-126980285D01*
X188892761Y-127266000D01*
X188892761Y-127742190D01*
X99299190Y-131368857D02*
X100823000Y-131368857D01*
X102823000Y-132130761D02*
X101680142Y-132130761D01*
X102251571Y-132130761D02*
X102251571Y-130130761D01*
X102061095Y-130416476D01*
X101870619Y-130606952D01*
X101680142Y-130702190D01*
X104632523Y-130130761D02*
X103680142Y-130130761D01*
X103584904Y-131083142D01*
X103680142Y-130987904D01*
X103870619Y-130892666D01*
X104346809Y-130892666D01*
X104537285Y-130987904D01*
X104632523Y-131083142D01*
X104727761Y-131273619D01*
X104727761Y-131749809D01*
X104632523Y-131940285D01*
X104537285Y-132035523D01*
X104346809Y-132130761D01*
X103870619Y-132130761D01*
X103680142Y-132035523D01*
X103584904Y-131940285D01*
X105299190Y-130130761D02*
X105965857Y-132130761D01*
X106632523Y-130130761D01*
X99299190Y-118668857D02*
X100823000Y-118668857D01*
X100061095Y-119430761D02*
X100061095Y-117906952D01*
X102823000Y-119430761D02*
X101680142Y-119430761D01*
X102251571Y-119430761D02*
X102251571Y-117430761D01*
X102061095Y-117716476D01*
X101870619Y-117906952D01*
X101680142Y-118002190D01*
X104632523Y-117430761D02*
X103680142Y-117430761D01*
X103584904Y-118383142D01*
X103680142Y-118287904D01*
X103870619Y-118192666D01*
X104346809Y-118192666D01*
X104537285Y-118287904D01*
X104632523Y-118383142D01*
X104727761Y-118573619D01*
X104727761Y-119049809D01*
X104632523Y-119240285D01*
X104537285Y-119335523D01*
X104346809Y-119430761D01*
X103870619Y-119430761D01*
X103680142Y-119335523D01*
X103584904Y-119240285D01*
X105299190Y-117430761D02*
X105965857Y-119430761D01*
X106632523Y-117430761D01*
X101934190Y-123876000D02*
X101743714Y-123780761D01*
X101458000Y-123780761D01*
X101172285Y-123876000D01*
X100981809Y-124066476D01*
X100886571Y-124256952D01*
X100791333Y-124637904D01*
X100791333Y-124923619D01*
X100886571Y-125304571D01*
X100981809Y-125495047D01*
X101172285Y-125685523D01*
X101458000Y-125780761D01*
X101648476Y-125780761D01*
X101934190Y-125685523D01*
X102029428Y-125590285D01*
X102029428Y-124923619D01*
X101648476Y-124923619D01*
X102886571Y-125780761D02*
X102886571Y-123780761D01*
X104029428Y-125780761D01*
X104029428Y-123780761D01*
X104981809Y-125780761D02*
X104981809Y-123780761D01*
X105458000Y-123780761D01*
X105743714Y-123876000D01*
X105934190Y-124066476D01*
X106029428Y-124256952D01*
X106124666Y-124637904D01*
X106124666Y-124923619D01*
X106029428Y-125304571D01*
X105934190Y-125495047D01*
X105743714Y-125685523D01*
X105458000Y-125780761D01*
X104981809Y-125780761D01*
X101464190Y-72766000D02*
X101273714Y-72670761D01*
X100988000Y-72670761D01*
X100702285Y-72766000D01*
X100511809Y-72956476D01*
X100416571Y-73146952D01*
X100321333Y-73527904D01*
X100321333Y-73813619D01*
X100416571Y-74194571D01*
X100511809Y-74385047D01*
X100702285Y-74575523D01*
X100988000Y-74670761D01*
X101178476Y-74670761D01*
X101464190Y-74575523D01*
X101559428Y-74480285D01*
X101559428Y-73813619D01*
X101178476Y-73813619D01*
X102416571Y-74670761D02*
X102416571Y-72670761D01*
X103559428Y-74670761D01*
X103559428Y-72670761D01*
X104511809Y-74670761D02*
X104511809Y-72670761D01*
X104988000Y-72670761D01*
X105273714Y-72766000D01*
X105464190Y-72956476D01*
X105559428Y-73146952D01*
X105654666Y-73527904D01*
X105654666Y-73813619D01*
X105559428Y-74194571D01*
X105464190Y-74385047D01*
X105273714Y-74575523D01*
X104988000Y-74670761D01*
X104511809Y-74670761D01*
X101464190Y-87766000D02*
X101273714Y-87670761D01*
X100988000Y-87670761D01*
X100702285Y-87766000D01*
X100511809Y-87956476D01*
X100416571Y-88146952D01*
X100321333Y-88527904D01*
X100321333Y-88813619D01*
X100416571Y-89194571D01*
X100511809Y-89385047D01*
X100702285Y-89575523D01*
X100988000Y-89670761D01*
X101178476Y-89670761D01*
X101464190Y-89575523D01*
X101559428Y-89480285D01*
X101559428Y-88813619D01*
X101178476Y-88813619D01*
X102416571Y-89670761D02*
X102416571Y-87670761D01*
X103559428Y-89670761D01*
X103559428Y-87670761D01*
X104511809Y-89670761D02*
X104511809Y-87670761D01*
X104988000Y-87670761D01*
X105273714Y-87766000D01*
X105464190Y-87956476D01*
X105559428Y-88146952D01*
X105654666Y-88527904D01*
X105654666Y-88813619D01*
X105559428Y-89194571D01*
X105464190Y-89385047D01*
X105273714Y-89575523D01*
X104988000Y-89670761D01*
X104511809Y-89670761D01*
X100130857Y-80170761D02*
X100130857Y-81789809D01*
X100226095Y-81980285D01*
X100321333Y-82075523D01*
X100511809Y-82170761D01*
X100892761Y-82170761D01*
X101083238Y-82075523D01*
X101178476Y-81980285D01*
X101273714Y-81789809D01*
X101273714Y-80170761D01*
X101749904Y-82361238D02*
X103273714Y-82361238D01*
X103749904Y-82170761D02*
X103749904Y-80170761D01*
X104702285Y-82170761D02*
X104702285Y-80170761D01*
X105845142Y-82170761D01*
X105845142Y-80170761D01*
X100702285Y-67170761D02*
X100702285Y-65170761D01*
X101178476Y-67361238D02*
X102702285Y-67361238D01*
X103178476Y-67170761D02*
X103178476Y-65170761D01*
X104130857Y-67170761D02*
X104130857Y-65170761D01*
X105273714Y-67170761D01*
X105273714Y-65170761D01*
D13*
X108710000Y-92228000D02*
G75*
G03X108710000Y-92228000I-1750000J0D01*
G01*
X187424000Y-68834000D02*
G75*
G03X187424000Y-68834000I-1750000J0D01*
G01*
D11*
X107636000Y-71441000D02*
X108966000Y-71441000D01*
X107636000Y-72771000D02*
X107636000Y-71441000D01*
X107636000Y-74041000D02*
X110296000Y-74041000D01*
X110296000Y-74041000D02*
X110296000Y-81721000D01*
X107636000Y-74041000D02*
X107636000Y-81721000D01*
X107636000Y-81721000D02*
X110296000Y-81721000D01*
D13*
X177248000Y-62011000D02*
G75*
G03X177248000Y-62011000I-1400000J0D01*
G01*
X170263000Y-62011000D02*
G75*
G03X170263000Y-62011000I-1400000J0D01*
G01*
X144228000Y-62011000D02*
G75*
G03X144228000Y-62011000I-1400000J0D01*
G01*
X137243000Y-62011000D02*
G75*
G03X137243000Y-62011000I-1400000J0D01*
G01*
D11*
X108659267Y-67756000D02*
X108316733Y-67756000D01*
X108659267Y-68776000D02*
X108316733Y-68776000D01*
X108659267Y-88336000D02*
X108316733Y-88336000D01*
X108659267Y-89356000D02*
X108316733Y-89356000D01*
X142113000Y-130683000D02*
X142113000Y-87503000D01*
X177673000Y-130683000D02*
X142113000Y-130683000D01*
X177673000Y-87503000D02*
X177673000Y-130683000D01*
X142113000Y-87503000D02*
X177673000Y-87503000D01*
X179408000Y-54526000D02*
X172568000Y-54526000D01*
X179408000Y-59466000D02*
X172568000Y-59466000D01*
X172568000Y-57646000D02*
X172568000Y-59466000D01*
X172568000Y-54526000D02*
X172568000Y-56346000D01*
X179408000Y-57646000D02*
X179408000Y-59466000D01*
X179408000Y-54526000D02*
X179408000Y-56346000D01*
X172158000Y-54526000D02*
X165318000Y-54526000D01*
X172158000Y-59466000D02*
X165318000Y-59466000D01*
X165318000Y-57646000D02*
X165318000Y-59466000D01*
X165318000Y-54526000D02*
X165318000Y-56346000D01*
X172158000Y-57646000D02*
X172158000Y-59466000D01*
X172158000Y-54526000D02*
X172158000Y-56346000D01*
X146408000Y-54526000D02*
X139568000Y-54526000D01*
X146408000Y-59466000D02*
X139568000Y-59466000D01*
X139568000Y-57646000D02*
X139568000Y-59466000D01*
X139568000Y-54526000D02*
X139568000Y-56346000D01*
X146408000Y-57646000D02*
X146408000Y-59466000D01*
X146408000Y-54526000D02*
X146408000Y-56346000D01*
X139158000Y-54526000D02*
X132318000Y-54526000D01*
X139158000Y-59466000D02*
X132318000Y-59466000D01*
X132318000Y-57646000D02*
X132318000Y-59466000D01*
X132318000Y-54526000D02*
X132318000Y-56346000D01*
X139158000Y-57646000D02*
X139158000Y-59466000D01*
X139158000Y-54526000D02*
X139158000Y-56346000D01*
X172488000Y-66456000D02*
X169038000Y-66456000D01*
X172488000Y-66456000D02*
X174438000Y-66456000D01*
X172488000Y-71576000D02*
X170538000Y-71576000D01*
X172488000Y-71576000D02*
X174438000Y-71576000D01*
X139238000Y-66456000D02*
X135788000Y-66456000D01*
X139238000Y-66456000D02*
X141188000Y-66456000D01*
X139238000Y-71576000D02*
X137288000Y-71576000D01*
X139238000Y-71576000D02*
X141188000Y-71576000D01*
X155988000Y-64331000D02*
X152538000Y-64331000D01*
X155988000Y-64331000D02*
X157938000Y-64331000D01*
X155988000Y-73201000D02*
X154038000Y-73201000D01*
X155988000Y-73201000D02*
X157938000Y-73201000D01*
X130238000Y-78656000D02*
X127313000Y-78656000D01*
X130238000Y-78656000D02*
X131738000Y-78656000D01*
X130238000Y-81876000D02*
X128738000Y-81876000D01*
X130238000Y-81876000D02*
X131738000Y-81876000D01*
X125988000Y-86831000D02*
X122538000Y-86831000D01*
X125988000Y-86831000D02*
X127938000Y-86831000D01*
X125988000Y-95701000D02*
X124038000Y-95701000D01*
X125988000Y-95701000D02*
X127938000Y-95701000D01*
X125988000Y-65581000D02*
X122538000Y-65581000D01*
X125988000Y-65581000D02*
X127938000Y-65581000D01*
X125988000Y-74451000D02*
X124038000Y-74451000D01*
X125988000Y-74451000D02*
X127938000Y-74451000D01*
X125208000Y-126386000D02*
X131218000Y-126386000D01*
X127458000Y-133206000D02*
X131218000Y-133206000D01*
X131218000Y-126386000D02*
X131218000Y-127646000D01*
X131218000Y-133206000D02*
X131218000Y-131946000D01*
X118708000Y-110386000D02*
X124718000Y-110386000D01*
X120958000Y-117206000D02*
X124718000Y-117206000D01*
X124718000Y-110386000D02*
X124718000Y-111646000D01*
X124718000Y-117206000D02*
X124718000Y-115946000D01*
X132670733Y-102364000D02*
X133013267Y-102364000D01*
X132670733Y-101344000D02*
X133013267Y-101344000D01*
X130812000Y-101263267D02*
X130812000Y-100920733D01*
X129792000Y-101263267D02*
X129792000Y-100920733D01*
X138258733Y-76202000D02*
X138601267Y-76202000D01*
X138258733Y-75182000D02*
X138601267Y-75182000D01*
X136400000Y-75101267D02*
X136400000Y-74758733D01*
X135380000Y-75101267D02*
X135380000Y-74758733D01*
X180723000Y-82086267D02*
X180723000Y-81743733D01*
X179703000Y-82086267D02*
X179703000Y-81743733D01*
X175135000Y-82086267D02*
X175135000Y-81743733D01*
X174115000Y-82086267D02*
X174115000Y-81743733D01*
X148719000Y-82848267D02*
X148719000Y-82505733D01*
X147699000Y-82848267D02*
X147699000Y-82505733D01*
X141861000Y-82848267D02*
X141861000Y-82505733D01*
X140841000Y-82848267D02*
X140841000Y-82505733D01*
X179152733Y-79758000D02*
X179495267Y-79758000D01*
X179152733Y-78738000D02*
X179495267Y-78738000D01*
X173564733Y-79758000D02*
X173907267Y-79758000D01*
X173564733Y-78738000D02*
X173907267Y-78738000D01*
X147148733Y-80520000D02*
X147491267Y-80520000D01*
X147148733Y-79500000D02*
X147491267Y-79500000D01*
X140290733Y-80520000D02*
X140633267Y-80520000D01*
X140290733Y-79500000D02*
X140633267Y-79500000D01*
X165606000Y-83394733D02*
X165606000Y-83737267D01*
X166626000Y-83394733D02*
X166626000Y-83737267D01*
X163832000Y-80181267D02*
X163832000Y-79838733D01*
X162812000Y-80181267D02*
X162812000Y-79838733D01*
X157986000Y-83521733D02*
X157986000Y-83864267D01*
X159006000Y-83521733D02*
X159006000Y-83864267D01*
X156085000Y-80181267D02*
X156085000Y-79838733D01*
X155065000Y-80181267D02*
X155065000Y-79838733D01*
X162566733Y-63776000D02*
X162909267Y-63776000D01*
X162566733Y-62756000D02*
X162909267Y-62756000D01*
X162566733Y-66776000D02*
X162909267Y-66776000D01*
X162566733Y-65756000D02*
X162909267Y-65756000D01*
X162566733Y-73526000D02*
X162909267Y-73526000D01*
X162566733Y-72506000D02*
X162909267Y-72506000D01*
X162566733Y-70526000D02*
X162909267Y-70526000D01*
X162566733Y-69506000D02*
X162909267Y-69506000D01*
X149409267Y-72506000D02*
X149066733Y-72506000D01*
X149409267Y-73526000D02*
X149066733Y-73526000D01*
X149409267Y-69506000D02*
X149066733Y-69506000D01*
X149409267Y-70526000D02*
X149066733Y-70526000D01*
X149409267Y-62756000D02*
X149066733Y-62756000D01*
X149409267Y-63776000D02*
X149066733Y-63776000D01*
X149409267Y-65756000D02*
X149066733Y-65756000D01*
X149409267Y-66776000D02*
X149066733Y-66776000D01*
X116316733Y-84776000D02*
X116659267Y-84776000D01*
X116316733Y-83756000D02*
X116659267Y-83756000D01*
X119816733Y-84776000D02*
X120159267Y-84776000D01*
X119816733Y-83756000D02*
X120159267Y-83756000D01*
X116316733Y-98526000D02*
X116659267Y-98526000D01*
X116316733Y-97506000D02*
X116659267Y-97506000D01*
X119816733Y-98526000D02*
X120159267Y-98526000D01*
X119816733Y-97506000D02*
X120159267Y-97506000D01*
X115816733Y-64526000D02*
X116159267Y-64526000D01*
X115816733Y-63506000D02*
X116159267Y-63506000D01*
X119566733Y-64526000D02*
X119909267Y-64526000D01*
X119566733Y-63506000D02*
X119909267Y-63506000D01*
X115816733Y-78526000D02*
X116159267Y-78526000D01*
X115816733Y-77506000D02*
X116159267Y-77506000D01*
X119566733Y-78526000D02*
X119909267Y-78526000D01*
X119566733Y-77506000D02*
X119909267Y-77506000D01*
X120159267Y-86756000D02*
X119816733Y-86756000D01*
X120159267Y-87776000D02*
X119816733Y-87776000D01*
X120159267Y-94506000D02*
X119816733Y-94506000D01*
X120159267Y-95526000D02*
X119816733Y-95526000D01*
X119909267Y-66506000D02*
X119566733Y-66506000D01*
X119909267Y-67526000D02*
X119566733Y-67526000D01*
X119909267Y-74506000D02*
X119566733Y-74506000D01*
X119909267Y-75526000D02*
X119566733Y-75526000D01*
X116659267Y-86756000D02*
X116316733Y-86756000D01*
X116659267Y-87776000D02*
X116316733Y-87776000D01*
X116659267Y-94506000D02*
X116316733Y-94506000D01*
X116659267Y-95526000D02*
X116316733Y-95526000D01*
X116159267Y-66506000D02*
X115816733Y-66506000D01*
X116159267Y-67526000D02*
X115816733Y-67526000D01*
X116159267Y-74506000D02*
X115816733Y-74506000D01*
X116159267Y-75526000D02*
X115816733Y-75526000D01*
X114763733Y-56961500D02*
X115106267Y-56961500D01*
X114763733Y-55941500D02*
X115106267Y-55941500D01*
X108316733Y-67276000D02*
X108659267Y-67276000D01*
X108316733Y-66256000D02*
X108659267Y-66256000D01*
X108659267Y-64756000D02*
X108316733Y-64756000D01*
X108659267Y-65776000D02*
X108316733Y-65776000D01*
X108316733Y-64276000D02*
X108659267Y-64276000D01*
X108316733Y-63256000D02*
X108659267Y-63256000D01*
X111298000Y-128124733D02*
X111298000Y-128467267D01*
X112318000Y-128124733D02*
X112318000Y-128467267D01*
X111298000Y-132124733D02*
X111298000Y-132467267D01*
X112318000Y-132124733D02*
X112318000Y-132467267D01*
X111298000Y-136124733D02*
X111298000Y-136467267D01*
X112318000Y-136124733D02*
X112318000Y-136467267D01*
X115979267Y-105286000D02*
X115636733Y-105286000D01*
X115979267Y-106306000D02*
X115636733Y-106306000D01*
X119979267Y-105286000D02*
X119636733Y-105286000D01*
X119979267Y-106306000D02*
X119636733Y-106306000D01*
X123979267Y-105286000D02*
X123636733Y-105286000D01*
X123979267Y-106306000D02*
X123636733Y-106306000D01*
X108316733Y-87856000D02*
X108659267Y-87856000D01*
X108316733Y-86836000D02*
X108659267Y-86836000D01*
X108659267Y-85336000D02*
X108316733Y-85336000D01*
X108659267Y-86356000D02*
X108316733Y-86356000D01*
X108316733Y-84856000D02*
X108659267Y-84856000D01*
X108316733Y-83836000D02*
X108659267Y-83836000D01*
X175966000Y-82675000D02*
X175966000Y-81215000D01*
X179126000Y-82675000D02*
X179126000Y-80515000D01*
X179126000Y-82675000D02*
X178196000Y-82675000D01*
X175966000Y-82675000D02*
X176896000Y-82675000D01*
X170505000Y-82675000D02*
X170505000Y-81215000D01*
X173665000Y-82675000D02*
X173665000Y-80515000D01*
X173665000Y-82675000D02*
X172735000Y-82675000D01*
X170505000Y-82675000D02*
X171435000Y-82675000D01*
X143962000Y-83437000D02*
X143962000Y-81977000D01*
X147122000Y-83437000D02*
X147122000Y-81277000D01*
X147122000Y-83437000D02*
X146192000Y-83437000D01*
X143962000Y-83437000D02*
X144892000Y-83437000D01*
X137104000Y-83437000D02*
X137104000Y-81977000D01*
X140264000Y-83437000D02*
X140264000Y-81277000D01*
X140264000Y-83437000D02*
X139334000Y-83437000D01*
X137104000Y-83437000D02*
X138034000Y-83437000D01*
X182158000Y-123186000D02*
X183488000Y-123186000D01*
X182158000Y-124516000D02*
X182158000Y-123186000D01*
X182158000Y-125786000D02*
X184818000Y-125786000D01*
X184818000Y-125786000D02*
X184818000Y-128386000D01*
X182158000Y-125786000D02*
X182158000Y-128386000D01*
X182158000Y-128386000D02*
X184818000Y-128386000D01*
X183328000Y-83506000D02*
X184658000Y-83506000D01*
X183328000Y-84836000D02*
X183328000Y-83506000D01*
X183328000Y-86106000D02*
X185988000Y-86106000D01*
X185988000Y-86106000D02*
X185988000Y-96326000D01*
X183328000Y-86106000D02*
X183328000Y-96326000D01*
X183328000Y-96326000D02*
X185988000Y-96326000D01*
X149908000Y-59326000D02*
X149908000Y-57996000D01*
X151238000Y-59326000D02*
X149908000Y-59326000D01*
X152508000Y-59326000D02*
X152508000Y-56666000D01*
X152508000Y-56666000D02*
X162728000Y-56666000D01*
X152508000Y-59326000D02*
X162728000Y-59326000D01*
X162728000Y-59326000D02*
X162728000Y-56666000D01*
X117535000Y-58106000D02*
X117535000Y-59436000D01*
X116205000Y-58106000D02*
X117535000Y-58106000D01*
X114935000Y-58106000D02*
X114935000Y-60766000D01*
X114935000Y-60766000D02*
X112335000Y-60766000D01*
X114935000Y-58106000D02*
X112335000Y-58106000D01*
X112335000Y-58106000D02*
X112335000Y-60766000D01*
X151698000Y-132147000D02*
X151698000Y-133477000D01*
X150368000Y-132147000D02*
X151698000Y-132147000D01*
X149098000Y-132147000D02*
X149098000Y-134807000D01*
X149098000Y-134807000D02*
X143958000Y-134807000D01*
X149098000Y-132147000D02*
X143958000Y-132147000D01*
X143958000Y-132147000D02*
X143958000Y-134807000D01*
X103388500Y-106848500D02*
X102058500Y-106848500D01*
X103388500Y-105518500D02*
X103388500Y-106848500D01*
X103388500Y-104248500D02*
X100728500Y-104248500D01*
X100728500Y-104248500D02*
X100728500Y-99108500D01*
X103388500Y-104248500D02*
X103388500Y-99108500D01*
X103388500Y-99108500D02*
X100728500Y-99108500D01*
X167911000Y-80690000D02*
X167911000Y-79280000D01*
X165591000Y-79280000D02*
X165591000Y-81310000D01*
X165591000Y-79280000D02*
X166251000Y-79280000D01*
X167251000Y-79280000D02*
X167911000Y-79280000D01*
X164482000Y-84246000D02*
X164482000Y-82836000D01*
X162162000Y-82836000D02*
X162162000Y-84866000D01*
X162162000Y-82836000D02*
X162822000Y-82836000D01*
X163822000Y-82836000D02*
X164482000Y-82836000D01*
X160295000Y-80731000D02*
X160295000Y-79321000D01*
X157975000Y-79321000D02*
X157975000Y-81351000D01*
X157975000Y-79321000D02*
X158635000Y-79321000D01*
X159635000Y-79321000D02*
X160295000Y-79321000D01*
X156739000Y-84292000D02*
X156739000Y-82882000D01*
X154419000Y-82882000D02*
X154419000Y-84912000D01*
X154419000Y-82882000D02*
X155079000Y-82882000D01*
X156079000Y-82882000D02*
X156739000Y-82882000D01*
X120628000Y-127956000D02*
X122038000Y-127956000D01*
X122038000Y-125636000D02*
X120008000Y-125636000D01*
X122038000Y-125636000D02*
X122038000Y-126296000D01*
X122038000Y-127296000D02*
X122038000Y-127956000D01*
X132128000Y-109456000D02*
X133538000Y-109456000D01*
X133538000Y-107136000D02*
X131508000Y-107136000D01*
X133538000Y-107136000D02*
X133538000Y-107796000D01*
X133538000Y-108796000D02*
X133538000Y-109456000D01*
X134488000Y-135136000D02*
X133078000Y-135136000D01*
X133078000Y-137456000D02*
X135108000Y-137456000D01*
X133078000Y-137456000D02*
X133078000Y-136796000D01*
X133078000Y-135796000D02*
X133078000Y-135136000D01*
X115148000Y-112116000D02*
X115148000Y-113526000D01*
X117468000Y-113526000D02*
X117468000Y-111496000D01*
X117468000Y-113526000D02*
X116808000Y-113526000D01*
X115808000Y-113526000D02*
X115148000Y-113526000D01*
X174409267Y-65006000D02*
X174066733Y-65006000D01*
X174409267Y-66026000D02*
X174066733Y-66026000D01*
X141159267Y-65006000D02*
X140816733Y-65006000D01*
X141159267Y-66026000D02*
X140816733Y-66026000D01*
X155816733Y-74776000D02*
X156159267Y-74776000D01*
X155816733Y-73756000D02*
X156159267Y-73756000D01*
X132670733Y-100840000D02*
X133013267Y-100840000D01*
X132670733Y-99820000D02*
X133013267Y-99820000D01*
X138258733Y-74678000D02*
X138601267Y-74678000D01*
X138258733Y-73658000D02*
X138601267Y-73658000D01*
X162566733Y-65276000D02*
X162909267Y-65276000D01*
X162566733Y-64256000D02*
X162909267Y-64256000D01*
X162566733Y-68276000D02*
X162909267Y-68276000D01*
X162566733Y-67256000D02*
X162909267Y-67256000D01*
X162566733Y-75026000D02*
X162909267Y-75026000D01*
X162566733Y-74006000D02*
X162909267Y-74006000D01*
X162566733Y-72026000D02*
X162909267Y-72026000D01*
X162566733Y-71006000D02*
X162909267Y-71006000D01*
X149409267Y-74006000D02*
X149066733Y-74006000D01*
X149409267Y-75026000D02*
X149066733Y-75026000D01*
X149409267Y-71006000D02*
X149066733Y-71006000D01*
X149409267Y-72026000D02*
X149066733Y-72026000D01*
X149409267Y-64256000D02*
X149066733Y-64256000D01*
X149409267Y-65276000D02*
X149066733Y-65276000D01*
X149409267Y-67256000D02*
X149066733Y-67256000D01*
X149409267Y-68276000D02*
X149066733Y-68276000D01*
X130066733Y-83526000D02*
X130409267Y-83526000D01*
X130066733Y-82506000D02*
X130409267Y-82506000D01*
X125816733Y-97276000D02*
X126159267Y-97276000D01*
X125816733Y-96256000D02*
X126159267Y-96256000D01*
X125816733Y-76026000D02*
X126159267Y-76026000D01*
X125816733Y-75006000D02*
X126159267Y-75006000D01*
X123566733Y-84776000D02*
X123909267Y-84776000D01*
X123566733Y-83756000D02*
X123909267Y-83756000D01*
X123498000Y-98187267D02*
X123498000Y-97844733D01*
X122478000Y-98187267D02*
X122478000Y-97844733D01*
X123316733Y-64526000D02*
X123659267Y-64526000D01*
X123316733Y-63506000D02*
X123659267Y-63506000D01*
X123248000Y-76937267D02*
X123248000Y-76594733D01*
X122228000Y-76937267D02*
X122228000Y-76594733D01*
X120159267Y-88506000D02*
X119816733Y-88506000D01*
X120159267Y-89526000D02*
X119816733Y-89526000D01*
X120159267Y-92756000D02*
X119816733Y-92756000D01*
X120159267Y-93776000D02*
X119816733Y-93776000D01*
X119909267Y-68256000D02*
X119566733Y-68256000D01*
X119909267Y-69276000D02*
X119566733Y-69276000D01*
X119909267Y-72756000D02*
X119566733Y-72756000D01*
X119909267Y-73776000D02*
X119566733Y-73776000D01*
X124066750Y-142839750D02*
X124854250Y-142839750D01*
X124460500Y-143233500D02*
X124460500Y-142446000D01*
X128653563Y-142206000D02*
X129718000Y-141141563D01*
X123962437Y-142206000D02*
X122898000Y-141141563D01*
X123962437Y-142206000D02*
X125248000Y-142206000D01*
X128653563Y-142206000D02*
X127368000Y-142206000D01*
X129718000Y-141141563D02*
X129718000Y-135386000D01*
X122898000Y-141141563D02*
X122898000Y-135386000D01*
X122898000Y-135386000D02*
X125248000Y-135386000D01*
X129718000Y-135386000D02*
X127368000Y-135386000D01*
X138549250Y-111252250D02*
X137761750Y-111252250D01*
X138155500Y-110858500D02*
X138155500Y-111646000D01*
X133962437Y-111886000D02*
X132898000Y-112950437D01*
X138653563Y-111886000D02*
X139718000Y-112950437D01*
X138653563Y-111886000D02*
X137368000Y-111886000D01*
X133962437Y-111886000D02*
X135248000Y-111886000D01*
X132898000Y-112950437D02*
X132898000Y-118706000D01*
X139718000Y-112950437D02*
X139718000Y-118706000D01*
X139718000Y-118706000D02*
X137368000Y-118706000D01*
X132898000Y-118706000D02*
X135248000Y-118706000D01*
X134368000Y-140887267D02*
X134368000Y-140544733D01*
X133348000Y-140887267D02*
X133348000Y-140544733D01*
X132318000Y-114092267D02*
X132318000Y-113749733D01*
X131298000Y-114092267D02*
X131298000Y-113749733D01*
X109318000Y-136467267D02*
X109318000Y-136124733D01*
X108298000Y-136467267D02*
X108298000Y-136124733D01*
X115636733Y-103306000D02*
X115979267Y-103306000D01*
X115636733Y-102286000D02*
X115979267Y-102286000D01*
X123318000Y-131967267D02*
X123318000Y-131624733D01*
X122298000Y-131967267D02*
X122298000Y-131624733D01*
X117318000Y-117467267D02*
X117318000Y-117124733D01*
X116298000Y-117467267D02*
X116298000Y-117124733D01*
X115066750Y-138339750D02*
X115854250Y-138339750D01*
X115460500Y-138733500D02*
X115460500Y-137946000D01*
X119653563Y-137706000D02*
X120718000Y-136641563D01*
X114962437Y-137706000D02*
X113898000Y-136641563D01*
X114962437Y-137706000D02*
X116248000Y-137706000D01*
X119653563Y-137706000D02*
X118368000Y-137706000D01*
X120718000Y-136641563D02*
X120718000Y-130886000D01*
X113898000Y-136641563D02*
X113898000Y-130886000D01*
X113898000Y-130886000D02*
X116248000Y-130886000D01*
X120718000Y-130886000D02*
X118368000Y-130886000D01*
X113549250Y-114252250D02*
X112761750Y-114252250D01*
X113155500Y-113858500D02*
X113155500Y-114646000D01*
X108962437Y-114886000D02*
X107898000Y-115950437D01*
X113653563Y-114886000D02*
X114718000Y-115950437D01*
X113653563Y-114886000D02*
X112368000Y-114886000D01*
X108962437Y-114886000D02*
X110248000Y-114886000D01*
X107898000Y-115950437D02*
X107898000Y-121706000D01*
X114718000Y-115950437D02*
X114718000Y-121706000D01*
X114718000Y-121706000D02*
X112368000Y-121706000D01*
X107898000Y-121706000D02*
X110248000Y-121706000D01*
D13*
X109238095Y-91852380D02*
X109809523Y-91852380D01*
X109523809Y-92852380D02*
X109523809Y-91852380D01*
X110142857Y-92852380D02*
X110142857Y-91852380D01*
X110523809Y-91852380D01*
X110619047Y-91900000D01*
X110666666Y-91947619D01*
X110714285Y-92042857D01*
X110714285Y-92185714D01*
X110666666Y-92280952D01*
X110619047Y-92328571D01*
X110523809Y-92376190D01*
X110142857Y-92376190D01*
X111571428Y-91852380D02*
X111380952Y-91852380D01*
X111285714Y-91900000D01*
X111238095Y-91947619D01*
X111142857Y-92090476D01*
X111095238Y-92280952D01*
X111095238Y-92661904D01*
X111142857Y-92757142D01*
X111190476Y-92804761D01*
X111285714Y-92852380D01*
X111476190Y-92852380D01*
X111571428Y-92804761D01*
X111619047Y-92757142D01*
X111666666Y-92661904D01*
X111666666Y-92423809D01*
X111619047Y-92328571D01*
X111571428Y-92280952D01*
X111476190Y-92233333D01*
X111285714Y-92233333D01*
X111190476Y-92280952D01*
X111142857Y-92328571D01*
X111095238Y-92423809D01*
X184412095Y-65536380D02*
X184983523Y-65536380D01*
X184697809Y-66536380D02*
X184697809Y-65536380D01*
X185316857Y-66536380D02*
X185316857Y-65536380D01*
X185697809Y-65536380D01*
X185793047Y-65584000D01*
X185840666Y-65631619D01*
X185888285Y-65726857D01*
X185888285Y-65869714D01*
X185840666Y-65964952D01*
X185793047Y-66012571D01*
X185697809Y-66060190D01*
X185316857Y-66060190D01*
X186793047Y-65536380D02*
X186316857Y-65536380D01*
X186269238Y-66012571D01*
X186316857Y-65964952D01*
X186412095Y-65917333D01*
X186650190Y-65917333D01*
X186745428Y-65964952D01*
X186793047Y-66012571D01*
X186840666Y-66107809D01*
X186840666Y-66345904D01*
X186793047Y-66441142D01*
X186745428Y-66488761D01*
X186650190Y-66536380D01*
X186412095Y-66536380D01*
X186316857Y-66488761D01*
X186269238Y-66441142D01*
X108156476Y-69893380D02*
X108156476Y-70607666D01*
X108108857Y-70750523D01*
X108013619Y-70845761D01*
X107870761Y-70893380D01*
X107775523Y-70893380D01*
X108585047Y-69988619D02*
X108632666Y-69941000D01*
X108727904Y-69893380D01*
X108966000Y-69893380D01*
X109061238Y-69941000D01*
X109108857Y-69988619D01*
X109156476Y-70083857D01*
X109156476Y-70179095D01*
X109108857Y-70321952D01*
X108537428Y-70893380D01*
X109156476Y-70893380D01*
X110013619Y-70226714D02*
X110013619Y-70893380D01*
X109775523Y-69845761D02*
X109537428Y-70560047D01*
X110156476Y-70560047D01*
X100226095Y-138968380D02*
X100226095Y-137968380D01*
X100226095Y-138444571D02*
X100797523Y-138444571D01*
X100797523Y-138968380D02*
X100797523Y-137968380D01*
X101702285Y-138301714D02*
X101702285Y-138968380D01*
X101464190Y-137920761D02*
X101226095Y-138635047D01*
X101845142Y-138635047D01*
X180226095Y-138968380D02*
X180226095Y-137968380D01*
X180226095Y-138444571D02*
X180797523Y-138444571D01*
X180797523Y-138968380D02*
X180797523Y-137968380D01*
X181178476Y-137968380D02*
X181797523Y-137968380D01*
X181464190Y-138349333D01*
X181607047Y-138349333D01*
X181702285Y-138396952D01*
X181749904Y-138444571D01*
X181797523Y-138539809D01*
X181797523Y-138777904D01*
X181749904Y-138873142D01*
X181702285Y-138920761D01*
X181607047Y-138968380D01*
X181321333Y-138968380D01*
X181226095Y-138920761D01*
X181178476Y-138873142D01*
X180226095Y-53968380D02*
X180226095Y-52968380D01*
X180226095Y-53444571D02*
X180797523Y-53444571D01*
X180797523Y-53968380D02*
X180797523Y-52968380D01*
X181226095Y-53063619D02*
X181273714Y-53016000D01*
X181368952Y-52968380D01*
X181607047Y-52968380D01*
X181702285Y-53016000D01*
X181749904Y-53063619D01*
X181797523Y-53158857D01*
X181797523Y-53254095D01*
X181749904Y-53396952D01*
X181178476Y-53968380D01*
X181797523Y-53968380D01*
X100226095Y-53968380D02*
X100226095Y-52968380D01*
X100226095Y-53444571D02*
X100797523Y-53444571D01*
X100797523Y-53968380D02*
X100797523Y-52968380D01*
X101797523Y-53968380D02*
X101226095Y-53968380D01*
X101511809Y-53968380D02*
X101511809Y-52968380D01*
X101416571Y-53111238D01*
X101321333Y-53206476D01*
X101226095Y-53254095D01*
X177761095Y-60193380D02*
X178332523Y-60193380D01*
X178046809Y-61193380D02*
X178046809Y-60193380D01*
X178665857Y-61193380D02*
X178665857Y-60193380D01*
X179046809Y-60193380D01*
X179142047Y-60241000D01*
X179189666Y-60288619D01*
X179237285Y-60383857D01*
X179237285Y-60526714D01*
X179189666Y-60621952D01*
X179142047Y-60669571D01*
X179046809Y-60717190D01*
X178665857Y-60717190D01*
X180094428Y-60526714D02*
X180094428Y-61193380D01*
X179856333Y-60145761D02*
X179618238Y-60860047D01*
X180237285Y-60860047D01*
X164426095Y-60193380D02*
X164997523Y-60193380D01*
X164711809Y-61193380D02*
X164711809Y-60193380D01*
X165330857Y-61193380D02*
X165330857Y-60193380D01*
X165711809Y-60193380D01*
X165807047Y-60241000D01*
X165854666Y-60288619D01*
X165902285Y-60383857D01*
X165902285Y-60526714D01*
X165854666Y-60621952D01*
X165807047Y-60669571D01*
X165711809Y-60717190D01*
X165330857Y-60717190D01*
X166235619Y-60193380D02*
X166854666Y-60193380D01*
X166521333Y-60574333D01*
X166664190Y-60574333D01*
X166759428Y-60621952D01*
X166807047Y-60669571D01*
X166854666Y-60764809D01*
X166854666Y-61002904D01*
X166807047Y-61098142D01*
X166759428Y-61145761D01*
X166664190Y-61193380D01*
X166378476Y-61193380D01*
X166283238Y-61145761D01*
X166235619Y-61098142D01*
X144741095Y-60193380D02*
X145312523Y-60193380D01*
X145026809Y-61193380D02*
X145026809Y-60193380D01*
X145645857Y-61193380D02*
X145645857Y-60193380D01*
X146026809Y-60193380D01*
X146122047Y-60241000D01*
X146169666Y-60288619D01*
X146217285Y-60383857D01*
X146217285Y-60526714D01*
X146169666Y-60621952D01*
X146122047Y-60669571D01*
X146026809Y-60717190D01*
X145645857Y-60717190D01*
X146598238Y-60288619D02*
X146645857Y-60241000D01*
X146741095Y-60193380D01*
X146979190Y-60193380D01*
X147074428Y-60241000D01*
X147122047Y-60288619D01*
X147169666Y-60383857D01*
X147169666Y-60479095D01*
X147122047Y-60621952D01*
X146550619Y-61193380D01*
X147169666Y-61193380D01*
X131406095Y-60193380D02*
X131977523Y-60193380D01*
X131691809Y-61193380D02*
X131691809Y-60193380D01*
X132310857Y-61193380D02*
X132310857Y-60193380D01*
X132691809Y-60193380D01*
X132787047Y-60241000D01*
X132834666Y-60288619D01*
X132882285Y-60383857D01*
X132882285Y-60526714D01*
X132834666Y-60621952D01*
X132787047Y-60669571D01*
X132691809Y-60717190D01*
X132310857Y-60717190D01*
X133834666Y-61193380D02*
X133263238Y-61193380D01*
X133548952Y-61193380D02*
X133548952Y-60193380D01*
X133453714Y-60336238D01*
X133358476Y-60431476D01*
X133263238Y-60479095D01*
X110821333Y-68623142D02*
X110773714Y-68670761D01*
X110630857Y-68718380D01*
X110535619Y-68718380D01*
X110392761Y-68670761D01*
X110297523Y-68575523D01*
X110249904Y-68480285D01*
X110202285Y-68289809D01*
X110202285Y-68146952D01*
X110249904Y-67956476D01*
X110297523Y-67861238D01*
X110392761Y-67766000D01*
X110535619Y-67718380D01*
X110630857Y-67718380D01*
X110773714Y-67766000D01*
X110821333Y-67813619D01*
X111392761Y-68146952D02*
X111297523Y-68099333D01*
X111249904Y-68051714D01*
X111202285Y-67956476D01*
X111202285Y-67908857D01*
X111249904Y-67813619D01*
X111297523Y-67766000D01*
X111392761Y-67718380D01*
X111583238Y-67718380D01*
X111678476Y-67766000D01*
X111726095Y-67813619D01*
X111773714Y-67908857D01*
X111773714Y-67956476D01*
X111726095Y-68051714D01*
X111678476Y-68099333D01*
X111583238Y-68146952D01*
X111392761Y-68146952D01*
X111297523Y-68194571D01*
X111249904Y-68242190D01*
X111202285Y-68337428D01*
X111202285Y-68527904D01*
X111249904Y-68623142D01*
X111297523Y-68670761D01*
X111392761Y-68718380D01*
X111583238Y-68718380D01*
X111678476Y-68670761D01*
X111726095Y-68623142D01*
X111773714Y-68527904D01*
X111773714Y-68337428D01*
X111726095Y-68242190D01*
X111678476Y-68194571D01*
X111583238Y-68146952D01*
X110821333Y-89203142D02*
X110773714Y-89250761D01*
X110630857Y-89298380D01*
X110535619Y-89298380D01*
X110392761Y-89250761D01*
X110297523Y-89155523D01*
X110249904Y-89060285D01*
X110202285Y-88869809D01*
X110202285Y-88726952D01*
X110249904Y-88536476D01*
X110297523Y-88441238D01*
X110392761Y-88346000D01*
X110535619Y-88298380D01*
X110630857Y-88298380D01*
X110773714Y-88346000D01*
X110821333Y-88393619D01*
X111726095Y-88298380D02*
X111249904Y-88298380D01*
X111202285Y-88774571D01*
X111249904Y-88726952D01*
X111345142Y-88679333D01*
X111583238Y-88679333D01*
X111678476Y-88726952D01*
X111726095Y-88774571D01*
X111773714Y-88869809D01*
X111773714Y-89107904D01*
X111726095Y-89203142D01*
X111678476Y-89250761D01*
X111583238Y-89298380D01*
X111345142Y-89298380D01*
X111249904Y-89250761D01*
X111202285Y-89203142D01*
X143533952Y-120451571D02*
X143867285Y-120451571D01*
X144010142Y-120975380D02*
X143533952Y-120975380D01*
X143533952Y-119975380D01*
X144010142Y-119975380D01*
X144391095Y-120689666D02*
X144867285Y-120689666D01*
X144295857Y-120975380D02*
X144629190Y-119975380D01*
X144962523Y-120975380D01*
X145819666Y-120975380D02*
X145248238Y-120975380D01*
X145533952Y-120975380D02*
X145533952Y-119975380D01*
X145438714Y-120118238D01*
X145343476Y-120213476D01*
X145248238Y-120261095D01*
X180990380Y-57662666D02*
X180514190Y-57996000D01*
X180990380Y-58234095D02*
X179990380Y-58234095D01*
X179990380Y-57853142D01*
X180038000Y-57757904D01*
X180085619Y-57710285D01*
X180180857Y-57662666D01*
X180323714Y-57662666D01*
X180418952Y-57710285D01*
X180466571Y-57757904D01*
X180514190Y-57853142D01*
X180514190Y-58234095D01*
X180990380Y-57234095D02*
X179990380Y-57234095D01*
X179990380Y-56853142D01*
X180038000Y-56757904D01*
X180085619Y-56710285D01*
X180180857Y-56662666D01*
X180323714Y-56662666D01*
X180418952Y-56710285D01*
X180466571Y-56757904D01*
X180514190Y-56853142D01*
X180514190Y-57234095D01*
X180323714Y-55805523D02*
X180990380Y-55805523D01*
X179942761Y-56043619D02*
X180657047Y-56281714D01*
X180657047Y-55662666D01*
X164690380Y-57662666D02*
X164214190Y-57996000D01*
X164690380Y-58234095D02*
X163690380Y-58234095D01*
X163690380Y-57853142D01*
X163738000Y-57757904D01*
X163785619Y-57710285D01*
X163880857Y-57662666D01*
X164023714Y-57662666D01*
X164118952Y-57710285D01*
X164166571Y-57757904D01*
X164214190Y-57853142D01*
X164214190Y-58234095D01*
X164690380Y-57234095D02*
X163690380Y-57234095D01*
X163690380Y-56853142D01*
X163738000Y-56757904D01*
X163785619Y-56710285D01*
X163880857Y-56662666D01*
X164023714Y-56662666D01*
X164118952Y-56710285D01*
X164166571Y-56757904D01*
X164214190Y-56853142D01*
X164214190Y-57234095D01*
X163690380Y-56329333D02*
X163690380Y-55710285D01*
X164071333Y-56043619D01*
X164071333Y-55900761D01*
X164118952Y-55805523D01*
X164166571Y-55757904D01*
X164261809Y-55710285D01*
X164499904Y-55710285D01*
X164595142Y-55757904D01*
X164642761Y-55805523D01*
X164690380Y-55900761D01*
X164690380Y-56186476D01*
X164642761Y-56281714D01*
X164595142Y-56329333D01*
X147990380Y-57662666D02*
X147514190Y-57996000D01*
X147990380Y-58234095D02*
X146990380Y-58234095D01*
X146990380Y-57853142D01*
X147038000Y-57757904D01*
X147085619Y-57710285D01*
X147180857Y-57662666D01*
X147323714Y-57662666D01*
X147418952Y-57710285D01*
X147466571Y-57757904D01*
X147514190Y-57853142D01*
X147514190Y-58234095D01*
X147990380Y-57234095D02*
X146990380Y-57234095D01*
X146990380Y-56853142D01*
X147038000Y-56757904D01*
X147085619Y-56710285D01*
X147180857Y-56662666D01*
X147323714Y-56662666D01*
X147418952Y-56710285D01*
X147466571Y-56757904D01*
X147514190Y-56853142D01*
X147514190Y-57234095D01*
X147085619Y-56281714D02*
X147038000Y-56234095D01*
X146990380Y-56138857D01*
X146990380Y-55900761D01*
X147038000Y-55805523D01*
X147085619Y-55757904D01*
X147180857Y-55710285D01*
X147276095Y-55710285D01*
X147418952Y-55757904D01*
X147990380Y-56329333D01*
X147990380Y-55710285D01*
X131440380Y-57662666D02*
X130964190Y-57996000D01*
X131440380Y-58234095D02*
X130440380Y-58234095D01*
X130440380Y-57853142D01*
X130488000Y-57757904D01*
X130535619Y-57710285D01*
X130630857Y-57662666D01*
X130773714Y-57662666D01*
X130868952Y-57710285D01*
X130916571Y-57757904D01*
X130964190Y-57853142D01*
X130964190Y-58234095D01*
X131440380Y-57234095D02*
X130440380Y-57234095D01*
X130440380Y-56853142D01*
X130488000Y-56757904D01*
X130535619Y-56710285D01*
X130630857Y-56662666D01*
X130773714Y-56662666D01*
X130868952Y-56710285D01*
X130916571Y-56757904D01*
X130964190Y-56853142D01*
X130964190Y-57234095D01*
X131440380Y-55710285D02*
X131440380Y-56281714D01*
X131440380Y-55996000D02*
X130440380Y-55996000D01*
X130583238Y-56091238D01*
X130678476Y-56186476D01*
X130726095Y-56281714D01*
X168726095Y-65068380D02*
X168726095Y-65877904D01*
X168773714Y-65973142D01*
X168821333Y-66020761D01*
X168916571Y-66068380D01*
X169107047Y-66068380D01*
X169202285Y-66020761D01*
X169249904Y-65973142D01*
X169297523Y-65877904D01*
X169297523Y-65068380D01*
X169821333Y-66068380D02*
X170011809Y-66068380D01*
X170107047Y-66020761D01*
X170154666Y-65973142D01*
X170249904Y-65830285D01*
X170297523Y-65639809D01*
X170297523Y-65258857D01*
X170249904Y-65163619D01*
X170202285Y-65116000D01*
X170107047Y-65068380D01*
X169916571Y-65068380D01*
X169821333Y-65116000D01*
X169773714Y-65163619D01*
X169726095Y-65258857D01*
X169726095Y-65496952D01*
X169773714Y-65592190D01*
X169821333Y-65639809D01*
X169916571Y-65687428D01*
X170107047Y-65687428D01*
X170202285Y-65639809D01*
X170249904Y-65592190D01*
X170297523Y-65496952D01*
X135476095Y-64968380D02*
X135476095Y-65777904D01*
X135523714Y-65873142D01*
X135571333Y-65920761D01*
X135666571Y-65968380D01*
X135857047Y-65968380D01*
X135952285Y-65920761D01*
X135999904Y-65873142D01*
X136047523Y-65777904D01*
X136047523Y-64968380D01*
X136666571Y-65396952D02*
X136571333Y-65349333D01*
X136523714Y-65301714D01*
X136476095Y-65206476D01*
X136476095Y-65158857D01*
X136523714Y-65063619D01*
X136571333Y-65016000D01*
X136666571Y-64968380D01*
X136857047Y-64968380D01*
X136952285Y-65016000D01*
X136999904Y-65063619D01*
X137047523Y-65158857D01*
X137047523Y-65206476D01*
X136999904Y-65301714D01*
X136952285Y-65349333D01*
X136857047Y-65396952D01*
X136666571Y-65396952D01*
X136571333Y-65444571D01*
X136523714Y-65492190D01*
X136476095Y-65587428D01*
X136476095Y-65777904D01*
X136523714Y-65873142D01*
X136571333Y-65920761D01*
X136666571Y-65968380D01*
X136857047Y-65968380D01*
X136952285Y-65920761D01*
X136999904Y-65873142D01*
X137047523Y-65777904D01*
X137047523Y-65587428D01*
X136999904Y-65492190D01*
X136952285Y-65444571D01*
X136857047Y-65396952D01*
X155226095Y-62938380D02*
X155226095Y-63747904D01*
X155273714Y-63843142D01*
X155321333Y-63890761D01*
X155416571Y-63938380D01*
X155607047Y-63938380D01*
X155702285Y-63890761D01*
X155749904Y-63843142D01*
X155797523Y-63747904D01*
X155797523Y-62938380D01*
X156178476Y-62938380D02*
X156845142Y-62938380D01*
X156416571Y-63938380D01*
X129476095Y-77268380D02*
X129476095Y-78077904D01*
X129523714Y-78173142D01*
X129571333Y-78220761D01*
X129666571Y-78268380D01*
X129857047Y-78268380D01*
X129952285Y-78220761D01*
X129999904Y-78173142D01*
X130047523Y-78077904D01*
X130047523Y-77268380D01*
X130952285Y-77268380D02*
X130761809Y-77268380D01*
X130666571Y-77316000D01*
X130618952Y-77363619D01*
X130523714Y-77506476D01*
X130476095Y-77696952D01*
X130476095Y-78077904D01*
X130523714Y-78173142D01*
X130571333Y-78220761D01*
X130666571Y-78268380D01*
X130857047Y-78268380D01*
X130952285Y-78220761D01*
X130999904Y-78173142D01*
X131047523Y-78077904D01*
X131047523Y-77839809D01*
X130999904Y-77744571D01*
X130952285Y-77696952D01*
X130857047Y-77649333D01*
X130666571Y-77649333D01*
X130571333Y-77696952D01*
X130523714Y-77744571D01*
X130476095Y-77839809D01*
X127226095Y-85438380D02*
X127226095Y-86247904D01*
X127273714Y-86343142D01*
X127321333Y-86390761D01*
X127416571Y-86438380D01*
X127607047Y-86438380D01*
X127702285Y-86390761D01*
X127749904Y-86343142D01*
X127797523Y-86247904D01*
X127797523Y-85438380D01*
X128749904Y-85438380D02*
X128273714Y-85438380D01*
X128226095Y-85914571D01*
X128273714Y-85866952D01*
X128368952Y-85819333D01*
X128607047Y-85819333D01*
X128702285Y-85866952D01*
X128749904Y-85914571D01*
X128797523Y-86009809D01*
X128797523Y-86247904D01*
X128749904Y-86343142D01*
X128702285Y-86390761D01*
X128607047Y-86438380D01*
X128368952Y-86438380D01*
X128273714Y-86390761D01*
X128226095Y-86343142D01*
X126476095Y-64188380D02*
X126476095Y-64997904D01*
X126523714Y-65093142D01*
X126571333Y-65140761D01*
X126666571Y-65188380D01*
X126857047Y-65188380D01*
X126952285Y-65140761D01*
X126999904Y-65093142D01*
X127047523Y-64997904D01*
X127047523Y-64188380D01*
X127952285Y-64521714D02*
X127952285Y-65188380D01*
X127714190Y-64140761D02*
X127476095Y-64855047D01*
X128095142Y-64855047D01*
X126046095Y-124748380D02*
X126046095Y-125557904D01*
X126093714Y-125653142D01*
X126141333Y-125700761D01*
X126236571Y-125748380D01*
X126427047Y-125748380D01*
X126522285Y-125700761D01*
X126569904Y-125653142D01*
X126617523Y-125557904D01*
X126617523Y-124748380D01*
X127046095Y-124843619D02*
X127093714Y-124796000D01*
X127188952Y-124748380D01*
X127427047Y-124748380D01*
X127522285Y-124796000D01*
X127569904Y-124843619D01*
X127617523Y-124938857D01*
X127617523Y-125034095D01*
X127569904Y-125176952D01*
X126998476Y-125748380D01*
X127617523Y-125748380D01*
X119046095Y-108748380D02*
X119046095Y-109557904D01*
X119093714Y-109653142D01*
X119141333Y-109700761D01*
X119236571Y-109748380D01*
X119427047Y-109748380D01*
X119522285Y-109700761D01*
X119569904Y-109653142D01*
X119617523Y-109557904D01*
X119617523Y-108748380D01*
X120617523Y-109748380D02*
X120046095Y-109748380D01*
X120331809Y-109748380D02*
X120331809Y-108748380D01*
X120236571Y-108891238D01*
X120141333Y-108986476D01*
X120046095Y-109034095D01*
X135501142Y-102560380D02*
X135167809Y-102084190D01*
X134929714Y-102560380D02*
X134929714Y-101560380D01*
X135310666Y-101560380D01*
X135405904Y-101608000D01*
X135453523Y-101655619D01*
X135501142Y-101750857D01*
X135501142Y-101893714D01*
X135453523Y-101988952D01*
X135405904Y-102036571D01*
X135310666Y-102084190D01*
X134929714Y-102084190D01*
X136405904Y-101560380D02*
X135929714Y-101560380D01*
X135882095Y-102036571D01*
X135929714Y-101988952D01*
X136024952Y-101941333D01*
X136263047Y-101941333D01*
X136358285Y-101988952D01*
X136405904Y-102036571D01*
X136453523Y-102131809D01*
X136453523Y-102369904D01*
X136405904Y-102465142D01*
X136358285Y-102512761D01*
X136263047Y-102560380D01*
X136024952Y-102560380D01*
X135929714Y-102512761D01*
X135882095Y-102465142D01*
X136786857Y-101560380D02*
X137405904Y-101560380D01*
X137072571Y-101941333D01*
X137215428Y-101941333D01*
X137310666Y-101988952D01*
X137358285Y-102036571D01*
X137405904Y-102131809D01*
X137405904Y-102369904D01*
X137358285Y-102465142D01*
X137310666Y-102512761D01*
X137215428Y-102560380D01*
X136929714Y-102560380D01*
X136834476Y-102512761D01*
X136786857Y-102465142D01*
X129324380Y-101734857D02*
X128848190Y-102068190D01*
X129324380Y-102306285D02*
X128324380Y-102306285D01*
X128324380Y-101925333D01*
X128372000Y-101830095D01*
X128419619Y-101782476D01*
X128514857Y-101734857D01*
X128657714Y-101734857D01*
X128752952Y-101782476D01*
X128800571Y-101830095D01*
X128848190Y-101925333D01*
X128848190Y-102306285D01*
X128324380Y-100830095D02*
X128324380Y-101306285D01*
X128800571Y-101353904D01*
X128752952Y-101306285D01*
X128705333Y-101211047D01*
X128705333Y-100972952D01*
X128752952Y-100877714D01*
X128800571Y-100830095D01*
X128895809Y-100782476D01*
X129133904Y-100782476D01*
X129229142Y-100830095D01*
X129276761Y-100877714D01*
X129324380Y-100972952D01*
X129324380Y-101211047D01*
X129276761Y-101306285D01*
X129229142Y-101353904D01*
X128419619Y-100401523D02*
X128372000Y-100353904D01*
X128324380Y-100258666D01*
X128324380Y-100020571D01*
X128372000Y-99925333D01*
X128419619Y-99877714D01*
X128514857Y-99830095D01*
X128610095Y-99830095D01*
X128752952Y-99877714D01*
X129324380Y-100449142D01*
X129324380Y-99830095D01*
X140835142Y-76144380D02*
X140501809Y-75668190D01*
X140263714Y-76144380D02*
X140263714Y-75144380D01*
X140644666Y-75144380D01*
X140739904Y-75192000D01*
X140787523Y-75239619D01*
X140835142Y-75334857D01*
X140835142Y-75477714D01*
X140787523Y-75572952D01*
X140739904Y-75620571D01*
X140644666Y-75668190D01*
X140263714Y-75668190D01*
X141739904Y-75144380D02*
X141263714Y-75144380D01*
X141216095Y-75620571D01*
X141263714Y-75572952D01*
X141358952Y-75525333D01*
X141597047Y-75525333D01*
X141692285Y-75572952D01*
X141739904Y-75620571D01*
X141787523Y-75715809D01*
X141787523Y-75953904D01*
X141739904Y-76049142D01*
X141692285Y-76096761D01*
X141597047Y-76144380D01*
X141358952Y-76144380D01*
X141263714Y-76096761D01*
X141216095Y-76049142D01*
X142739904Y-76144380D02*
X142168476Y-76144380D01*
X142454190Y-76144380D02*
X142454190Y-75144380D01*
X142358952Y-75287238D01*
X142263714Y-75382476D01*
X142168476Y-75430095D01*
X134912380Y-75572857D02*
X134436190Y-75906190D01*
X134912380Y-76144285D02*
X133912380Y-76144285D01*
X133912380Y-75763333D01*
X133960000Y-75668095D01*
X134007619Y-75620476D01*
X134102857Y-75572857D01*
X134245714Y-75572857D01*
X134340952Y-75620476D01*
X134388571Y-75668095D01*
X134436190Y-75763333D01*
X134436190Y-76144285D01*
X133912380Y-74668095D02*
X133912380Y-75144285D01*
X134388571Y-75191904D01*
X134340952Y-75144285D01*
X134293333Y-75049047D01*
X134293333Y-74810952D01*
X134340952Y-74715714D01*
X134388571Y-74668095D01*
X134483809Y-74620476D01*
X134721904Y-74620476D01*
X134817142Y-74668095D01*
X134864761Y-74715714D01*
X134912380Y-74810952D01*
X134912380Y-75049047D01*
X134864761Y-75144285D01*
X134817142Y-75191904D01*
X133912380Y-74001428D02*
X133912380Y-73906190D01*
X133960000Y-73810952D01*
X134007619Y-73763333D01*
X134102857Y-73715714D01*
X134293333Y-73668095D01*
X134531428Y-73668095D01*
X134721904Y-73715714D01*
X134817142Y-73763333D01*
X134864761Y-73810952D01*
X134912380Y-73906190D01*
X134912380Y-74001428D01*
X134864761Y-74096666D01*
X134817142Y-74144285D01*
X134721904Y-74191904D01*
X134531428Y-74239523D01*
X134293333Y-74239523D01*
X134102857Y-74191904D01*
X134007619Y-74144285D01*
X133960000Y-74096666D01*
X133912380Y-74001428D01*
X180538380Y-85746857D02*
X180062190Y-86080190D01*
X180538380Y-86318285D02*
X179538380Y-86318285D01*
X179538380Y-85937333D01*
X179586000Y-85842095D01*
X179633619Y-85794476D01*
X179728857Y-85746857D01*
X179871714Y-85746857D01*
X179966952Y-85794476D01*
X180014571Y-85842095D01*
X180062190Y-85937333D01*
X180062190Y-86318285D01*
X179871714Y-84889714D02*
X180538380Y-84889714D01*
X179490761Y-85127809D02*
X180205047Y-85365904D01*
X180205047Y-84746857D01*
X180538380Y-84318285D02*
X180538380Y-84127809D01*
X180490761Y-84032571D01*
X180443142Y-83984952D01*
X180300285Y-83889714D01*
X180109809Y-83842095D01*
X179728857Y-83842095D01*
X179633619Y-83889714D01*
X179586000Y-83937333D01*
X179538380Y-84032571D01*
X179538380Y-84223047D01*
X179586000Y-84318285D01*
X179633619Y-84365904D01*
X179728857Y-84413523D01*
X179966952Y-84413523D01*
X180062190Y-84365904D01*
X180109809Y-84318285D01*
X180157428Y-84223047D01*
X180157428Y-84032571D01*
X180109809Y-83937333D01*
X180062190Y-83889714D01*
X179966952Y-83842095D01*
X175077380Y-85859857D02*
X174601190Y-86193190D01*
X175077380Y-86431285D02*
X174077380Y-86431285D01*
X174077380Y-86050333D01*
X174125000Y-85955095D01*
X174172619Y-85907476D01*
X174267857Y-85859857D01*
X174410714Y-85859857D01*
X174505952Y-85907476D01*
X174553571Y-85955095D01*
X174601190Y-86050333D01*
X174601190Y-86431285D01*
X174410714Y-85002714D02*
X175077380Y-85002714D01*
X174029761Y-85240809D02*
X174744047Y-85478904D01*
X174744047Y-84859857D01*
X174505952Y-84336047D02*
X174458333Y-84431285D01*
X174410714Y-84478904D01*
X174315476Y-84526523D01*
X174267857Y-84526523D01*
X174172619Y-84478904D01*
X174125000Y-84431285D01*
X174077380Y-84336047D01*
X174077380Y-84145571D01*
X174125000Y-84050333D01*
X174172619Y-84002714D01*
X174267857Y-83955095D01*
X174315476Y-83955095D01*
X174410714Y-84002714D01*
X174458333Y-84050333D01*
X174505952Y-84145571D01*
X174505952Y-84336047D01*
X174553571Y-84431285D01*
X174601190Y-84478904D01*
X174696428Y-84526523D01*
X174886904Y-84526523D01*
X174982142Y-84478904D01*
X175029761Y-84431285D01*
X175077380Y-84336047D01*
X175077380Y-84145571D01*
X175029761Y-84050333D01*
X174982142Y-84002714D01*
X174886904Y-83955095D01*
X174696428Y-83955095D01*
X174601190Y-84002714D01*
X174553571Y-84050333D01*
X174505952Y-84145571D01*
X150058380Y-83319857D02*
X149582190Y-83653190D01*
X150058380Y-83891285D02*
X149058380Y-83891285D01*
X149058380Y-83510333D01*
X149106000Y-83415095D01*
X149153619Y-83367476D01*
X149248857Y-83319857D01*
X149391714Y-83319857D01*
X149486952Y-83367476D01*
X149534571Y-83415095D01*
X149582190Y-83510333D01*
X149582190Y-83891285D01*
X149391714Y-82462714D02*
X150058380Y-82462714D01*
X149010761Y-82700809D02*
X149725047Y-82938904D01*
X149725047Y-82319857D01*
X149058380Y-82034142D02*
X149058380Y-81367476D01*
X150058380Y-81796047D01*
X143200380Y-83319857D02*
X142724190Y-83653190D01*
X143200380Y-83891285D02*
X142200380Y-83891285D01*
X142200380Y-83510333D01*
X142248000Y-83415095D01*
X142295619Y-83367476D01*
X142390857Y-83319857D01*
X142533714Y-83319857D01*
X142628952Y-83367476D01*
X142676571Y-83415095D01*
X142724190Y-83510333D01*
X142724190Y-83891285D01*
X142533714Y-82462714D02*
X143200380Y-82462714D01*
X142152761Y-82700809D02*
X142867047Y-82938904D01*
X142867047Y-82319857D01*
X142200380Y-81510333D02*
X142200380Y-81700809D01*
X142248000Y-81796047D01*
X142295619Y-81843666D01*
X142438476Y-81938904D01*
X142628952Y-81986523D01*
X143009904Y-81986523D01*
X143105142Y-81938904D01*
X143152761Y-81891285D01*
X143200380Y-81796047D01*
X143200380Y-81605571D01*
X143152761Y-81510333D01*
X143105142Y-81462714D01*
X143009904Y-81415095D01*
X142771809Y-81415095D01*
X142676571Y-81462714D01*
X142628952Y-81510333D01*
X142581333Y-81605571D01*
X142581333Y-81796047D01*
X142628952Y-81891285D01*
X142676571Y-81938904D01*
X142771809Y-81986523D01*
X178681142Y-78176380D02*
X178347809Y-77700190D01*
X178109714Y-78176380D02*
X178109714Y-77176380D01*
X178490666Y-77176380D01*
X178585904Y-77224000D01*
X178633523Y-77271619D01*
X178681142Y-77366857D01*
X178681142Y-77509714D01*
X178633523Y-77604952D01*
X178585904Y-77652571D01*
X178490666Y-77700190D01*
X178109714Y-77700190D01*
X179538285Y-77509714D02*
X179538285Y-78176380D01*
X179300190Y-77128761D02*
X179062095Y-77843047D01*
X179681142Y-77843047D01*
X180538285Y-77176380D02*
X180062095Y-77176380D01*
X180014476Y-77652571D01*
X180062095Y-77604952D01*
X180157333Y-77557333D01*
X180395428Y-77557333D01*
X180490666Y-77604952D01*
X180538285Y-77652571D01*
X180585904Y-77747809D01*
X180585904Y-77985904D01*
X180538285Y-78081142D01*
X180490666Y-78128761D01*
X180395428Y-78176380D01*
X180157333Y-78176380D01*
X180062095Y-78128761D01*
X180014476Y-78081142D01*
X173093142Y-78176380D02*
X172759809Y-77700190D01*
X172521714Y-78176380D02*
X172521714Y-77176380D01*
X172902666Y-77176380D01*
X172997904Y-77224000D01*
X173045523Y-77271619D01*
X173093142Y-77366857D01*
X173093142Y-77509714D01*
X173045523Y-77604952D01*
X172997904Y-77652571D01*
X172902666Y-77700190D01*
X172521714Y-77700190D01*
X173950285Y-77509714D02*
X173950285Y-78176380D01*
X173712190Y-77128761D02*
X173474095Y-77843047D01*
X174093142Y-77843047D01*
X174902666Y-77509714D02*
X174902666Y-78176380D01*
X174664571Y-77128761D02*
X174426476Y-77843047D01*
X175045523Y-77843047D01*
X146677142Y-79032380D02*
X146343809Y-78556190D01*
X146105714Y-79032380D02*
X146105714Y-78032380D01*
X146486666Y-78032380D01*
X146581904Y-78080000D01*
X146629523Y-78127619D01*
X146677142Y-78222857D01*
X146677142Y-78365714D01*
X146629523Y-78460952D01*
X146581904Y-78508571D01*
X146486666Y-78556190D01*
X146105714Y-78556190D01*
X147534285Y-78365714D02*
X147534285Y-79032380D01*
X147296190Y-77984761D02*
X147058095Y-78699047D01*
X147677142Y-78699047D01*
X147962857Y-78032380D02*
X148581904Y-78032380D01*
X148248571Y-78413333D01*
X148391428Y-78413333D01*
X148486666Y-78460952D01*
X148534285Y-78508571D01*
X148581904Y-78603809D01*
X148581904Y-78841904D01*
X148534285Y-78937142D01*
X148486666Y-78984761D01*
X148391428Y-79032380D01*
X148105714Y-79032380D01*
X148010476Y-78984761D01*
X147962857Y-78937142D01*
X139819142Y-79032380D02*
X139485809Y-78556190D01*
X139247714Y-79032380D02*
X139247714Y-78032380D01*
X139628666Y-78032380D01*
X139723904Y-78080000D01*
X139771523Y-78127619D01*
X139819142Y-78222857D01*
X139819142Y-78365714D01*
X139771523Y-78460952D01*
X139723904Y-78508571D01*
X139628666Y-78556190D01*
X139247714Y-78556190D01*
X140676285Y-78365714D02*
X140676285Y-79032380D01*
X140438190Y-77984761D02*
X140200095Y-78699047D01*
X140819142Y-78699047D01*
X141152476Y-78127619D02*
X141200095Y-78080000D01*
X141295333Y-78032380D01*
X141533428Y-78032380D01*
X141628666Y-78080000D01*
X141676285Y-78127619D01*
X141723904Y-78222857D01*
X141723904Y-78318095D01*
X141676285Y-78460952D01*
X141104857Y-79032380D01*
X141723904Y-79032380D01*
X167998380Y-84208857D02*
X167522190Y-84542190D01*
X167998380Y-84780285D02*
X166998380Y-84780285D01*
X166998380Y-84399333D01*
X167046000Y-84304095D01*
X167093619Y-84256476D01*
X167188857Y-84208857D01*
X167331714Y-84208857D01*
X167426952Y-84256476D01*
X167474571Y-84304095D01*
X167522190Y-84399333D01*
X167522190Y-84780285D01*
X167331714Y-83351714D02*
X167998380Y-83351714D01*
X166950761Y-83589809D02*
X167665047Y-83827904D01*
X167665047Y-83208857D01*
X167998380Y-82304095D02*
X167998380Y-82875523D01*
X167998380Y-82589809D02*
X166998380Y-82589809D01*
X167141238Y-82685047D01*
X167236476Y-82780285D01*
X167284095Y-82875523D01*
X162344380Y-80652857D02*
X161868190Y-80986190D01*
X162344380Y-81224285D02*
X161344380Y-81224285D01*
X161344380Y-80843333D01*
X161392000Y-80748095D01*
X161439619Y-80700476D01*
X161534857Y-80652857D01*
X161677714Y-80652857D01*
X161772952Y-80700476D01*
X161820571Y-80748095D01*
X161868190Y-80843333D01*
X161868190Y-81224285D01*
X161677714Y-79795714D02*
X162344380Y-79795714D01*
X161296761Y-80033809D02*
X162011047Y-80271904D01*
X162011047Y-79652857D01*
X161344380Y-79081428D02*
X161344380Y-78986190D01*
X161392000Y-78890952D01*
X161439619Y-78843333D01*
X161534857Y-78795714D01*
X161725333Y-78748095D01*
X161963428Y-78748095D01*
X162153904Y-78795714D01*
X162249142Y-78843333D01*
X162296761Y-78890952D01*
X162344380Y-78986190D01*
X162344380Y-79081428D01*
X162296761Y-79176666D01*
X162249142Y-79224285D01*
X162153904Y-79271904D01*
X161963428Y-79319523D01*
X161725333Y-79319523D01*
X161534857Y-79271904D01*
X161439619Y-79224285D01*
X161392000Y-79176666D01*
X161344380Y-79081428D01*
X160378380Y-84335857D02*
X159902190Y-84669190D01*
X160378380Y-84907285D02*
X159378380Y-84907285D01*
X159378380Y-84526333D01*
X159426000Y-84431095D01*
X159473619Y-84383476D01*
X159568857Y-84335857D01*
X159711714Y-84335857D01*
X159806952Y-84383476D01*
X159854571Y-84431095D01*
X159902190Y-84526333D01*
X159902190Y-84907285D01*
X159378380Y-84002523D02*
X159378380Y-83383476D01*
X159759333Y-83716809D01*
X159759333Y-83573952D01*
X159806952Y-83478714D01*
X159854571Y-83431095D01*
X159949809Y-83383476D01*
X160187904Y-83383476D01*
X160283142Y-83431095D01*
X160330761Y-83478714D01*
X160378380Y-83573952D01*
X160378380Y-83859666D01*
X160330761Y-83954904D01*
X160283142Y-84002523D01*
X160378380Y-82907285D02*
X160378380Y-82716809D01*
X160330761Y-82621571D01*
X160283142Y-82573952D01*
X160140285Y-82478714D01*
X159949809Y-82431095D01*
X159568857Y-82431095D01*
X159473619Y-82478714D01*
X159426000Y-82526333D01*
X159378380Y-82621571D01*
X159378380Y-82812047D01*
X159426000Y-82907285D01*
X159473619Y-82954904D01*
X159568857Y-83002523D01*
X159806952Y-83002523D01*
X159902190Y-82954904D01*
X159949809Y-82907285D01*
X159997428Y-82812047D01*
X159997428Y-82621571D01*
X159949809Y-82526333D01*
X159902190Y-82478714D01*
X159806952Y-82431095D01*
X154597380Y-80652857D02*
X154121190Y-80986190D01*
X154597380Y-81224285D02*
X153597380Y-81224285D01*
X153597380Y-80843333D01*
X153645000Y-80748095D01*
X153692619Y-80700476D01*
X153787857Y-80652857D01*
X153930714Y-80652857D01*
X154025952Y-80700476D01*
X154073571Y-80748095D01*
X154121190Y-80843333D01*
X154121190Y-81224285D01*
X153597380Y-80319523D02*
X153597380Y-79700476D01*
X153978333Y-80033809D01*
X153978333Y-79890952D01*
X154025952Y-79795714D01*
X154073571Y-79748095D01*
X154168809Y-79700476D01*
X154406904Y-79700476D01*
X154502142Y-79748095D01*
X154549761Y-79795714D01*
X154597380Y-79890952D01*
X154597380Y-80176666D01*
X154549761Y-80271904D01*
X154502142Y-80319523D01*
X154025952Y-79129047D02*
X153978333Y-79224285D01*
X153930714Y-79271904D01*
X153835476Y-79319523D01*
X153787857Y-79319523D01*
X153692619Y-79271904D01*
X153645000Y-79224285D01*
X153597380Y-79129047D01*
X153597380Y-78938571D01*
X153645000Y-78843333D01*
X153692619Y-78795714D01*
X153787857Y-78748095D01*
X153835476Y-78748095D01*
X153930714Y-78795714D01*
X153978333Y-78843333D01*
X154025952Y-78938571D01*
X154025952Y-79129047D01*
X154073571Y-79224285D01*
X154121190Y-79271904D01*
X154216428Y-79319523D01*
X154406904Y-79319523D01*
X154502142Y-79271904D01*
X154549761Y-79224285D01*
X154597380Y-79129047D01*
X154597380Y-78938571D01*
X154549761Y-78843333D01*
X154502142Y-78795714D01*
X154406904Y-78748095D01*
X154216428Y-78748095D01*
X154121190Y-78795714D01*
X154073571Y-78843333D01*
X154025952Y-78938571D01*
X161870142Y-62463380D02*
X161536809Y-61987190D01*
X161298714Y-62463380D02*
X161298714Y-61463380D01*
X161679666Y-61463380D01*
X161774904Y-61511000D01*
X161822523Y-61558619D01*
X161870142Y-61653857D01*
X161870142Y-61796714D01*
X161822523Y-61891952D01*
X161774904Y-61939571D01*
X161679666Y-61987190D01*
X161298714Y-61987190D01*
X162203476Y-61463380D02*
X162822523Y-61463380D01*
X162489190Y-61844333D01*
X162632047Y-61844333D01*
X162727285Y-61891952D01*
X162774904Y-61939571D01*
X162822523Y-62034809D01*
X162822523Y-62272904D01*
X162774904Y-62368142D01*
X162727285Y-62415761D01*
X162632047Y-62463380D01*
X162346333Y-62463380D01*
X162251095Y-62415761D01*
X162203476Y-62368142D01*
X163155857Y-61463380D02*
X163822523Y-61463380D01*
X163393952Y-62463380D01*
X165345142Y-66718380D02*
X165011809Y-66242190D01*
X164773714Y-66718380D02*
X164773714Y-65718380D01*
X165154666Y-65718380D01*
X165249904Y-65766000D01*
X165297523Y-65813619D01*
X165345142Y-65908857D01*
X165345142Y-66051714D01*
X165297523Y-66146952D01*
X165249904Y-66194571D01*
X165154666Y-66242190D01*
X164773714Y-66242190D01*
X165678476Y-65718380D02*
X166297523Y-65718380D01*
X165964190Y-66099333D01*
X166107047Y-66099333D01*
X166202285Y-66146952D01*
X166249904Y-66194571D01*
X166297523Y-66289809D01*
X166297523Y-66527904D01*
X166249904Y-66623142D01*
X166202285Y-66670761D01*
X166107047Y-66718380D01*
X165821333Y-66718380D01*
X165726095Y-66670761D01*
X165678476Y-66623142D01*
X167154666Y-65718380D02*
X166964190Y-65718380D01*
X166868952Y-65766000D01*
X166821333Y-65813619D01*
X166726095Y-65956476D01*
X166678476Y-66146952D01*
X166678476Y-66527904D01*
X166726095Y-66623142D01*
X166773714Y-66670761D01*
X166868952Y-66718380D01*
X167059428Y-66718380D01*
X167154666Y-66670761D01*
X167202285Y-66623142D01*
X167249904Y-66527904D01*
X167249904Y-66289809D01*
X167202285Y-66194571D01*
X167154666Y-66146952D01*
X167059428Y-66099333D01*
X166868952Y-66099333D01*
X166773714Y-66146952D01*
X166726095Y-66194571D01*
X166678476Y-66289809D01*
X165345142Y-73468380D02*
X165011809Y-72992190D01*
X164773714Y-73468380D02*
X164773714Y-72468380D01*
X165154666Y-72468380D01*
X165249904Y-72516000D01*
X165297523Y-72563619D01*
X165345142Y-72658857D01*
X165345142Y-72801714D01*
X165297523Y-72896952D01*
X165249904Y-72944571D01*
X165154666Y-72992190D01*
X164773714Y-72992190D01*
X165678476Y-72468380D02*
X166297523Y-72468380D01*
X165964190Y-72849333D01*
X166107047Y-72849333D01*
X166202285Y-72896952D01*
X166249904Y-72944571D01*
X166297523Y-73039809D01*
X166297523Y-73277904D01*
X166249904Y-73373142D01*
X166202285Y-73420761D01*
X166107047Y-73468380D01*
X165821333Y-73468380D01*
X165726095Y-73420761D01*
X165678476Y-73373142D01*
X167202285Y-72468380D02*
X166726095Y-72468380D01*
X166678476Y-72944571D01*
X166726095Y-72896952D01*
X166821333Y-72849333D01*
X167059428Y-72849333D01*
X167154666Y-72896952D01*
X167202285Y-72944571D01*
X167249904Y-73039809D01*
X167249904Y-73277904D01*
X167202285Y-73373142D01*
X167154666Y-73420761D01*
X167059428Y-73468380D01*
X166821333Y-73468380D01*
X166726095Y-73420761D01*
X166678476Y-73373142D01*
X165345142Y-70468380D02*
X165011809Y-69992190D01*
X164773714Y-70468380D02*
X164773714Y-69468380D01*
X165154666Y-69468380D01*
X165249904Y-69516000D01*
X165297523Y-69563619D01*
X165345142Y-69658857D01*
X165345142Y-69801714D01*
X165297523Y-69896952D01*
X165249904Y-69944571D01*
X165154666Y-69992190D01*
X164773714Y-69992190D01*
X165678476Y-69468380D02*
X166297523Y-69468380D01*
X165964190Y-69849333D01*
X166107047Y-69849333D01*
X166202285Y-69896952D01*
X166249904Y-69944571D01*
X166297523Y-70039809D01*
X166297523Y-70277904D01*
X166249904Y-70373142D01*
X166202285Y-70420761D01*
X166107047Y-70468380D01*
X165821333Y-70468380D01*
X165726095Y-70420761D01*
X165678476Y-70373142D01*
X167154666Y-69801714D02*
X167154666Y-70468380D01*
X166916571Y-69420761D02*
X166678476Y-70135047D01*
X167297523Y-70135047D01*
X145345142Y-73468380D02*
X145011809Y-72992190D01*
X144773714Y-73468380D02*
X144773714Y-72468380D01*
X145154666Y-72468380D01*
X145249904Y-72516000D01*
X145297523Y-72563619D01*
X145345142Y-72658857D01*
X145345142Y-72801714D01*
X145297523Y-72896952D01*
X145249904Y-72944571D01*
X145154666Y-72992190D01*
X144773714Y-72992190D01*
X145678476Y-72468380D02*
X146297523Y-72468380D01*
X145964190Y-72849333D01*
X146107047Y-72849333D01*
X146202285Y-72896952D01*
X146249904Y-72944571D01*
X146297523Y-73039809D01*
X146297523Y-73277904D01*
X146249904Y-73373142D01*
X146202285Y-73420761D01*
X146107047Y-73468380D01*
X145821333Y-73468380D01*
X145726095Y-73420761D01*
X145678476Y-73373142D01*
X146630857Y-72468380D02*
X147249904Y-72468380D01*
X146916571Y-72849333D01*
X147059428Y-72849333D01*
X147154666Y-72896952D01*
X147202285Y-72944571D01*
X147249904Y-73039809D01*
X147249904Y-73277904D01*
X147202285Y-73373142D01*
X147154666Y-73420761D01*
X147059428Y-73468380D01*
X146773714Y-73468380D01*
X146678476Y-73420761D01*
X146630857Y-73373142D01*
X145345142Y-70468380D02*
X145011809Y-69992190D01*
X144773714Y-70468380D02*
X144773714Y-69468380D01*
X145154666Y-69468380D01*
X145249904Y-69516000D01*
X145297523Y-69563619D01*
X145345142Y-69658857D01*
X145345142Y-69801714D01*
X145297523Y-69896952D01*
X145249904Y-69944571D01*
X145154666Y-69992190D01*
X144773714Y-69992190D01*
X145678476Y-69468380D02*
X146297523Y-69468380D01*
X145964190Y-69849333D01*
X146107047Y-69849333D01*
X146202285Y-69896952D01*
X146249904Y-69944571D01*
X146297523Y-70039809D01*
X146297523Y-70277904D01*
X146249904Y-70373142D01*
X146202285Y-70420761D01*
X146107047Y-70468380D01*
X145821333Y-70468380D01*
X145726095Y-70420761D01*
X145678476Y-70373142D01*
X146678476Y-69563619D02*
X146726095Y-69516000D01*
X146821333Y-69468380D01*
X147059428Y-69468380D01*
X147154666Y-69516000D01*
X147202285Y-69563619D01*
X147249904Y-69658857D01*
X147249904Y-69754095D01*
X147202285Y-69896952D01*
X146630857Y-70468380D01*
X147249904Y-70468380D01*
X145345142Y-63718380D02*
X145011809Y-63242190D01*
X144773714Y-63718380D02*
X144773714Y-62718380D01*
X145154666Y-62718380D01*
X145249904Y-62766000D01*
X145297523Y-62813619D01*
X145345142Y-62908857D01*
X145345142Y-63051714D01*
X145297523Y-63146952D01*
X145249904Y-63194571D01*
X145154666Y-63242190D01*
X144773714Y-63242190D01*
X145678476Y-62718380D02*
X146297523Y-62718380D01*
X145964190Y-63099333D01*
X146107047Y-63099333D01*
X146202285Y-63146952D01*
X146249904Y-63194571D01*
X146297523Y-63289809D01*
X146297523Y-63527904D01*
X146249904Y-63623142D01*
X146202285Y-63670761D01*
X146107047Y-63718380D01*
X145821333Y-63718380D01*
X145726095Y-63670761D01*
X145678476Y-63623142D01*
X147249904Y-63718380D02*
X146678476Y-63718380D01*
X146964190Y-63718380D02*
X146964190Y-62718380D01*
X146868952Y-62861238D01*
X146773714Y-62956476D01*
X146678476Y-63004095D01*
X145345142Y-66718380D02*
X145011809Y-66242190D01*
X144773714Y-66718380D02*
X144773714Y-65718380D01*
X145154666Y-65718380D01*
X145249904Y-65766000D01*
X145297523Y-65813619D01*
X145345142Y-65908857D01*
X145345142Y-66051714D01*
X145297523Y-66146952D01*
X145249904Y-66194571D01*
X145154666Y-66242190D01*
X144773714Y-66242190D01*
X145678476Y-65718380D02*
X146297523Y-65718380D01*
X145964190Y-66099333D01*
X146107047Y-66099333D01*
X146202285Y-66146952D01*
X146249904Y-66194571D01*
X146297523Y-66289809D01*
X146297523Y-66527904D01*
X146249904Y-66623142D01*
X146202285Y-66670761D01*
X146107047Y-66718380D01*
X145821333Y-66718380D01*
X145726095Y-66670761D01*
X145678476Y-66623142D01*
X146916571Y-65718380D02*
X147011809Y-65718380D01*
X147107047Y-65766000D01*
X147154666Y-65813619D01*
X147202285Y-65908857D01*
X147249904Y-66099333D01*
X147249904Y-66337428D01*
X147202285Y-66527904D01*
X147154666Y-66623142D01*
X147107047Y-66670761D01*
X147011809Y-66718380D01*
X146916571Y-66718380D01*
X146821333Y-66670761D01*
X146773714Y-66623142D01*
X146726095Y-66527904D01*
X146678476Y-66337428D01*
X146678476Y-66099333D01*
X146726095Y-65908857D01*
X146773714Y-65813619D01*
X146821333Y-65766000D01*
X146916571Y-65718380D01*
X115845142Y-83288380D02*
X115511809Y-82812190D01*
X115273714Y-83288380D02*
X115273714Y-82288380D01*
X115654666Y-82288380D01*
X115749904Y-82336000D01*
X115797523Y-82383619D01*
X115845142Y-82478857D01*
X115845142Y-82621714D01*
X115797523Y-82716952D01*
X115749904Y-82764571D01*
X115654666Y-82812190D01*
X115273714Y-82812190D01*
X116226095Y-82383619D02*
X116273714Y-82336000D01*
X116368952Y-82288380D01*
X116607047Y-82288380D01*
X116702285Y-82336000D01*
X116749904Y-82383619D01*
X116797523Y-82478857D01*
X116797523Y-82574095D01*
X116749904Y-82716952D01*
X116178476Y-83288380D01*
X116797523Y-83288380D01*
X117273714Y-83288380D02*
X117464190Y-83288380D01*
X117559428Y-83240761D01*
X117607047Y-83193142D01*
X117702285Y-83050285D01*
X117749904Y-82859809D01*
X117749904Y-82478857D01*
X117702285Y-82383619D01*
X117654666Y-82336000D01*
X117559428Y-82288380D01*
X117368952Y-82288380D01*
X117273714Y-82336000D01*
X117226095Y-82383619D01*
X117178476Y-82478857D01*
X117178476Y-82716952D01*
X117226095Y-82812190D01*
X117273714Y-82859809D01*
X117368952Y-82907428D01*
X117559428Y-82907428D01*
X117654666Y-82859809D01*
X117702285Y-82812190D01*
X117749904Y-82716952D01*
X119345142Y-83288380D02*
X119011809Y-82812190D01*
X118773714Y-83288380D02*
X118773714Y-82288380D01*
X119154666Y-82288380D01*
X119249904Y-82336000D01*
X119297523Y-82383619D01*
X119345142Y-82478857D01*
X119345142Y-82621714D01*
X119297523Y-82716952D01*
X119249904Y-82764571D01*
X119154666Y-82812190D01*
X118773714Y-82812190D01*
X119726095Y-82383619D02*
X119773714Y-82336000D01*
X119868952Y-82288380D01*
X120107047Y-82288380D01*
X120202285Y-82336000D01*
X120249904Y-82383619D01*
X120297523Y-82478857D01*
X120297523Y-82574095D01*
X120249904Y-82716952D01*
X119678476Y-83288380D01*
X120297523Y-83288380D01*
X120868952Y-82716952D02*
X120773714Y-82669333D01*
X120726095Y-82621714D01*
X120678476Y-82526476D01*
X120678476Y-82478857D01*
X120726095Y-82383619D01*
X120773714Y-82336000D01*
X120868952Y-82288380D01*
X121059428Y-82288380D01*
X121154666Y-82336000D01*
X121202285Y-82383619D01*
X121249904Y-82478857D01*
X121249904Y-82526476D01*
X121202285Y-82621714D01*
X121154666Y-82669333D01*
X121059428Y-82716952D01*
X120868952Y-82716952D01*
X120773714Y-82764571D01*
X120726095Y-82812190D01*
X120678476Y-82907428D01*
X120678476Y-83097904D01*
X120726095Y-83193142D01*
X120773714Y-83240761D01*
X120868952Y-83288380D01*
X121059428Y-83288380D01*
X121154666Y-83240761D01*
X121202285Y-83193142D01*
X121249904Y-83097904D01*
X121249904Y-82907428D01*
X121202285Y-82812190D01*
X121154666Y-82764571D01*
X121059428Y-82716952D01*
X115845142Y-99968380D02*
X115511809Y-99492190D01*
X115273714Y-99968380D02*
X115273714Y-98968380D01*
X115654666Y-98968380D01*
X115749904Y-99016000D01*
X115797523Y-99063619D01*
X115845142Y-99158857D01*
X115845142Y-99301714D01*
X115797523Y-99396952D01*
X115749904Y-99444571D01*
X115654666Y-99492190D01*
X115273714Y-99492190D01*
X116226095Y-99063619D02*
X116273714Y-99016000D01*
X116368952Y-98968380D01*
X116607047Y-98968380D01*
X116702285Y-99016000D01*
X116749904Y-99063619D01*
X116797523Y-99158857D01*
X116797523Y-99254095D01*
X116749904Y-99396952D01*
X116178476Y-99968380D01*
X116797523Y-99968380D01*
X117130857Y-98968380D02*
X117797523Y-98968380D01*
X117368952Y-99968380D01*
X119345142Y-99968380D02*
X119011809Y-99492190D01*
X118773714Y-99968380D02*
X118773714Y-98968380D01*
X119154666Y-98968380D01*
X119249904Y-99016000D01*
X119297523Y-99063619D01*
X119345142Y-99158857D01*
X119345142Y-99301714D01*
X119297523Y-99396952D01*
X119249904Y-99444571D01*
X119154666Y-99492190D01*
X118773714Y-99492190D01*
X119726095Y-99063619D02*
X119773714Y-99016000D01*
X119868952Y-98968380D01*
X120107047Y-98968380D01*
X120202285Y-99016000D01*
X120249904Y-99063619D01*
X120297523Y-99158857D01*
X120297523Y-99254095D01*
X120249904Y-99396952D01*
X119678476Y-99968380D01*
X120297523Y-99968380D01*
X121154666Y-98968380D02*
X120964190Y-98968380D01*
X120868952Y-99016000D01*
X120821333Y-99063619D01*
X120726095Y-99206476D01*
X120678476Y-99396952D01*
X120678476Y-99777904D01*
X120726095Y-99873142D01*
X120773714Y-99920761D01*
X120868952Y-99968380D01*
X121059428Y-99968380D01*
X121154666Y-99920761D01*
X121202285Y-99873142D01*
X121249904Y-99777904D01*
X121249904Y-99539809D01*
X121202285Y-99444571D01*
X121154666Y-99396952D01*
X121059428Y-99349333D01*
X120868952Y-99349333D01*
X120773714Y-99396952D01*
X120726095Y-99444571D01*
X120678476Y-99539809D01*
X115345142Y-63038380D02*
X115011809Y-62562190D01*
X114773714Y-63038380D02*
X114773714Y-62038380D01*
X115154666Y-62038380D01*
X115249904Y-62086000D01*
X115297523Y-62133619D01*
X115345142Y-62228857D01*
X115345142Y-62371714D01*
X115297523Y-62466952D01*
X115249904Y-62514571D01*
X115154666Y-62562190D01*
X114773714Y-62562190D01*
X115726095Y-62133619D02*
X115773714Y-62086000D01*
X115868952Y-62038380D01*
X116107047Y-62038380D01*
X116202285Y-62086000D01*
X116249904Y-62133619D01*
X116297523Y-62228857D01*
X116297523Y-62324095D01*
X116249904Y-62466952D01*
X115678476Y-63038380D01*
X116297523Y-63038380D01*
X117202285Y-62038380D02*
X116726095Y-62038380D01*
X116678476Y-62514571D01*
X116726095Y-62466952D01*
X116821333Y-62419333D01*
X117059428Y-62419333D01*
X117154666Y-62466952D01*
X117202285Y-62514571D01*
X117249904Y-62609809D01*
X117249904Y-62847904D01*
X117202285Y-62943142D01*
X117154666Y-62990761D01*
X117059428Y-63038380D01*
X116821333Y-63038380D01*
X116726095Y-62990761D01*
X116678476Y-62943142D01*
X119095142Y-63038380D02*
X118761809Y-62562190D01*
X118523714Y-63038380D02*
X118523714Y-62038380D01*
X118904666Y-62038380D01*
X118999904Y-62086000D01*
X119047523Y-62133619D01*
X119095142Y-62228857D01*
X119095142Y-62371714D01*
X119047523Y-62466952D01*
X118999904Y-62514571D01*
X118904666Y-62562190D01*
X118523714Y-62562190D01*
X119476095Y-62133619D02*
X119523714Y-62086000D01*
X119618952Y-62038380D01*
X119857047Y-62038380D01*
X119952285Y-62086000D01*
X119999904Y-62133619D01*
X120047523Y-62228857D01*
X120047523Y-62324095D01*
X119999904Y-62466952D01*
X119428476Y-63038380D01*
X120047523Y-63038380D01*
X120904666Y-62371714D02*
X120904666Y-63038380D01*
X120666571Y-61990761D02*
X120428476Y-62705047D01*
X121047523Y-62705047D01*
X115345142Y-79968380D02*
X115011809Y-79492190D01*
X114773714Y-79968380D02*
X114773714Y-78968380D01*
X115154666Y-78968380D01*
X115249904Y-79016000D01*
X115297523Y-79063619D01*
X115345142Y-79158857D01*
X115345142Y-79301714D01*
X115297523Y-79396952D01*
X115249904Y-79444571D01*
X115154666Y-79492190D01*
X114773714Y-79492190D01*
X115726095Y-79063619D02*
X115773714Y-79016000D01*
X115868952Y-78968380D01*
X116107047Y-78968380D01*
X116202285Y-79016000D01*
X116249904Y-79063619D01*
X116297523Y-79158857D01*
X116297523Y-79254095D01*
X116249904Y-79396952D01*
X115678476Y-79968380D01*
X116297523Y-79968380D01*
X116630857Y-78968380D02*
X117249904Y-78968380D01*
X116916571Y-79349333D01*
X117059428Y-79349333D01*
X117154666Y-79396952D01*
X117202285Y-79444571D01*
X117249904Y-79539809D01*
X117249904Y-79777904D01*
X117202285Y-79873142D01*
X117154666Y-79920761D01*
X117059428Y-79968380D01*
X116773714Y-79968380D01*
X116678476Y-79920761D01*
X116630857Y-79873142D01*
X119095142Y-79968380D02*
X118761809Y-79492190D01*
X118523714Y-79968380D02*
X118523714Y-78968380D01*
X118904666Y-78968380D01*
X118999904Y-79016000D01*
X119047523Y-79063619D01*
X119095142Y-79158857D01*
X119095142Y-79301714D01*
X119047523Y-79396952D01*
X118999904Y-79444571D01*
X118904666Y-79492190D01*
X118523714Y-79492190D01*
X119476095Y-79063619D02*
X119523714Y-79016000D01*
X119618952Y-78968380D01*
X119857047Y-78968380D01*
X119952285Y-79016000D01*
X119999904Y-79063619D01*
X120047523Y-79158857D01*
X120047523Y-79254095D01*
X119999904Y-79396952D01*
X119428476Y-79968380D01*
X120047523Y-79968380D01*
X120428476Y-79063619D02*
X120476095Y-79016000D01*
X120571333Y-78968380D01*
X120809428Y-78968380D01*
X120904666Y-79016000D01*
X120952285Y-79063619D01*
X120999904Y-79158857D01*
X120999904Y-79254095D01*
X120952285Y-79396952D01*
X120380857Y-79968380D01*
X120999904Y-79968380D01*
X119345142Y-86218380D02*
X119011809Y-85742190D01*
X118773714Y-86218380D02*
X118773714Y-85218380D01*
X119154666Y-85218380D01*
X119249904Y-85266000D01*
X119297523Y-85313619D01*
X119345142Y-85408857D01*
X119345142Y-85551714D01*
X119297523Y-85646952D01*
X119249904Y-85694571D01*
X119154666Y-85742190D01*
X118773714Y-85742190D01*
X119726095Y-85313619D02*
X119773714Y-85266000D01*
X119868952Y-85218380D01*
X120107047Y-85218380D01*
X120202285Y-85266000D01*
X120249904Y-85313619D01*
X120297523Y-85408857D01*
X120297523Y-85504095D01*
X120249904Y-85646952D01*
X119678476Y-86218380D01*
X120297523Y-86218380D01*
X121249904Y-86218380D02*
X120678476Y-86218380D01*
X120964190Y-86218380D02*
X120964190Y-85218380D01*
X120868952Y-85361238D01*
X120773714Y-85456476D01*
X120678476Y-85504095D01*
X119345142Y-96898380D02*
X119011809Y-96422190D01*
X118773714Y-96898380D02*
X118773714Y-95898380D01*
X119154666Y-95898380D01*
X119249904Y-95946000D01*
X119297523Y-95993619D01*
X119345142Y-96088857D01*
X119345142Y-96231714D01*
X119297523Y-96326952D01*
X119249904Y-96374571D01*
X119154666Y-96422190D01*
X118773714Y-96422190D01*
X119726095Y-95993619D02*
X119773714Y-95946000D01*
X119868952Y-95898380D01*
X120107047Y-95898380D01*
X120202285Y-95946000D01*
X120249904Y-95993619D01*
X120297523Y-96088857D01*
X120297523Y-96184095D01*
X120249904Y-96326952D01*
X119678476Y-96898380D01*
X120297523Y-96898380D01*
X120916571Y-95898380D02*
X121011809Y-95898380D01*
X121107047Y-95946000D01*
X121154666Y-95993619D01*
X121202285Y-96088857D01*
X121249904Y-96279333D01*
X121249904Y-96517428D01*
X121202285Y-96707904D01*
X121154666Y-96803142D01*
X121107047Y-96850761D01*
X121011809Y-96898380D01*
X120916571Y-96898380D01*
X120821333Y-96850761D01*
X120773714Y-96803142D01*
X120726095Y-96707904D01*
X120678476Y-96517428D01*
X120678476Y-96279333D01*
X120726095Y-96088857D01*
X120773714Y-95993619D01*
X120821333Y-95946000D01*
X120916571Y-95898380D01*
X119095142Y-65968380D02*
X118761809Y-65492190D01*
X118523714Y-65968380D02*
X118523714Y-64968380D01*
X118904666Y-64968380D01*
X118999904Y-65016000D01*
X119047523Y-65063619D01*
X119095142Y-65158857D01*
X119095142Y-65301714D01*
X119047523Y-65396952D01*
X118999904Y-65444571D01*
X118904666Y-65492190D01*
X118523714Y-65492190D01*
X120047523Y-65968380D02*
X119476095Y-65968380D01*
X119761809Y-65968380D02*
X119761809Y-64968380D01*
X119666571Y-65111238D01*
X119571333Y-65206476D01*
X119476095Y-65254095D01*
X120523714Y-65968380D02*
X120714190Y-65968380D01*
X120809428Y-65920761D01*
X120857047Y-65873142D01*
X120952285Y-65730285D01*
X120999904Y-65539809D01*
X120999904Y-65158857D01*
X120952285Y-65063619D01*
X120904666Y-65016000D01*
X120809428Y-64968380D01*
X120618952Y-64968380D01*
X120523714Y-65016000D01*
X120476095Y-65063619D01*
X120428476Y-65158857D01*
X120428476Y-65396952D01*
X120476095Y-65492190D01*
X120523714Y-65539809D01*
X120618952Y-65587428D01*
X120809428Y-65587428D01*
X120904666Y-65539809D01*
X120952285Y-65492190D01*
X120999904Y-65396952D01*
X119095142Y-76898380D02*
X118761809Y-76422190D01*
X118523714Y-76898380D02*
X118523714Y-75898380D01*
X118904666Y-75898380D01*
X118999904Y-75946000D01*
X119047523Y-75993619D01*
X119095142Y-76088857D01*
X119095142Y-76231714D01*
X119047523Y-76326952D01*
X118999904Y-76374571D01*
X118904666Y-76422190D01*
X118523714Y-76422190D01*
X120047523Y-76898380D02*
X119476095Y-76898380D01*
X119761809Y-76898380D02*
X119761809Y-75898380D01*
X119666571Y-76041238D01*
X119571333Y-76136476D01*
X119476095Y-76184095D01*
X120618952Y-76326952D02*
X120523714Y-76279333D01*
X120476095Y-76231714D01*
X120428476Y-76136476D01*
X120428476Y-76088857D01*
X120476095Y-75993619D01*
X120523714Y-75946000D01*
X120618952Y-75898380D01*
X120809428Y-75898380D01*
X120904666Y-75946000D01*
X120952285Y-75993619D01*
X120999904Y-76088857D01*
X120999904Y-76136476D01*
X120952285Y-76231714D01*
X120904666Y-76279333D01*
X120809428Y-76326952D01*
X120618952Y-76326952D01*
X120523714Y-76374571D01*
X120476095Y-76422190D01*
X120428476Y-76517428D01*
X120428476Y-76707904D01*
X120476095Y-76803142D01*
X120523714Y-76850761D01*
X120618952Y-76898380D01*
X120809428Y-76898380D01*
X120904666Y-76850761D01*
X120952285Y-76803142D01*
X120999904Y-76707904D01*
X120999904Y-76517428D01*
X120952285Y-76422190D01*
X120904666Y-76374571D01*
X120809428Y-76326952D01*
X115845142Y-86218380D02*
X115511809Y-85742190D01*
X115273714Y-86218380D02*
X115273714Y-85218380D01*
X115654666Y-85218380D01*
X115749904Y-85266000D01*
X115797523Y-85313619D01*
X115845142Y-85408857D01*
X115845142Y-85551714D01*
X115797523Y-85646952D01*
X115749904Y-85694571D01*
X115654666Y-85742190D01*
X115273714Y-85742190D01*
X116797523Y-86218380D02*
X116226095Y-86218380D01*
X116511809Y-86218380D02*
X116511809Y-85218380D01*
X116416571Y-85361238D01*
X116321333Y-85456476D01*
X116226095Y-85504095D01*
X117130857Y-85218380D02*
X117797523Y-85218380D01*
X117368952Y-86218380D01*
X115845142Y-96898380D02*
X115511809Y-96422190D01*
X115273714Y-96898380D02*
X115273714Y-95898380D01*
X115654666Y-95898380D01*
X115749904Y-95946000D01*
X115797523Y-95993619D01*
X115845142Y-96088857D01*
X115845142Y-96231714D01*
X115797523Y-96326952D01*
X115749904Y-96374571D01*
X115654666Y-96422190D01*
X115273714Y-96422190D01*
X116797523Y-96898380D02*
X116226095Y-96898380D01*
X116511809Y-96898380D02*
X116511809Y-95898380D01*
X116416571Y-96041238D01*
X116321333Y-96136476D01*
X116226095Y-96184095D01*
X117654666Y-95898380D02*
X117464190Y-95898380D01*
X117368952Y-95946000D01*
X117321333Y-95993619D01*
X117226095Y-96136476D01*
X117178476Y-96326952D01*
X117178476Y-96707904D01*
X117226095Y-96803142D01*
X117273714Y-96850761D01*
X117368952Y-96898380D01*
X117559428Y-96898380D01*
X117654666Y-96850761D01*
X117702285Y-96803142D01*
X117749904Y-96707904D01*
X117749904Y-96469809D01*
X117702285Y-96374571D01*
X117654666Y-96326952D01*
X117559428Y-96279333D01*
X117368952Y-96279333D01*
X117273714Y-96326952D01*
X117226095Y-96374571D01*
X117178476Y-96469809D01*
X115345142Y-65968380D02*
X115011809Y-65492190D01*
X114773714Y-65968380D02*
X114773714Y-64968380D01*
X115154666Y-64968380D01*
X115249904Y-65016000D01*
X115297523Y-65063619D01*
X115345142Y-65158857D01*
X115345142Y-65301714D01*
X115297523Y-65396952D01*
X115249904Y-65444571D01*
X115154666Y-65492190D01*
X114773714Y-65492190D01*
X116297523Y-65968380D02*
X115726095Y-65968380D01*
X116011809Y-65968380D02*
X116011809Y-64968380D01*
X115916571Y-65111238D01*
X115821333Y-65206476D01*
X115726095Y-65254095D01*
X117202285Y-64968380D02*
X116726095Y-64968380D01*
X116678476Y-65444571D01*
X116726095Y-65396952D01*
X116821333Y-65349333D01*
X117059428Y-65349333D01*
X117154666Y-65396952D01*
X117202285Y-65444571D01*
X117249904Y-65539809D01*
X117249904Y-65777904D01*
X117202285Y-65873142D01*
X117154666Y-65920761D01*
X117059428Y-65968380D01*
X116821333Y-65968380D01*
X116726095Y-65920761D01*
X116678476Y-65873142D01*
X115345142Y-76898380D02*
X115011809Y-76422190D01*
X114773714Y-76898380D02*
X114773714Y-75898380D01*
X115154666Y-75898380D01*
X115249904Y-75946000D01*
X115297523Y-75993619D01*
X115345142Y-76088857D01*
X115345142Y-76231714D01*
X115297523Y-76326952D01*
X115249904Y-76374571D01*
X115154666Y-76422190D01*
X114773714Y-76422190D01*
X116297523Y-76898380D02*
X115726095Y-76898380D01*
X116011809Y-76898380D02*
X116011809Y-75898380D01*
X115916571Y-76041238D01*
X115821333Y-76136476D01*
X115726095Y-76184095D01*
X117154666Y-76231714D02*
X117154666Y-76898380D01*
X116916571Y-75850761D02*
X116678476Y-76565047D01*
X117297523Y-76565047D01*
X114292142Y-55473880D02*
X113958809Y-54997690D01*
X113720714Y-55473880D02*
X113720714Y-54473880D01*
X114101666Y-54473880D01*
X114196904Y-54521500D01*
X114244523Y-54569119D01*
X114292142Y-54664357D01*
X114292142Y-54807214D01*
X114244523Y-54902452D01*
X114196904Y-54950071D01*
X114101666Y-54997690D01*
X113720714Y-54997690D01*
X115244523Y-55473880D02*
X114673095Y-55473880D01*
X114958809Y-55473880D02*
X114958809Y-54473880D01*
X114863571Y-54616738D01*
X114768333Y-54711976D01*
X114673095Y-54759595D01*
X115577857Y-54473880D02*
X116196904Y-54473880D01*
X115863571Y-54854833D01*
X116006428Y-54854833D01*
X116101666Y-54902452D01*
X116149285Y-54950071D01*
X116196904Y-55045309D01*
X116196904Y-55283404D01*
X116149285Y-55378642D01*
X116101666Y-55426261D01*
X116006428Y-55473880D01*
X115720714Y-55473880D01*
X115625476Y-55426261D01*
X115577857Y-55378642D01*
X110845142Y-67218380D02*
X110511809Y-66742190D01*
X110273714Y-67218380D02*
X110273714Y-66218380D01*
X110654666Y-66218380D01*
X110749904Y-66266000D01*
X110797523Y-66313619D01*
X110845142Y-66408857D01*
X110845142Y-66551714D01*
X110797523Y-66646952D01*
X110749904Y-66694571D01*
X110654666Y-66742190D01*
X110273714Y-66742190D01*
X111797523Y-67218380D02*
X111226095Y-67218380D01*
X111511809Y-67218380D02*
X111511809Y-66218380D01*
X111416571Y-66361238D01*
X111321333Y-66456476D01*
X111226095Y-66504095D01*
X112178476Y-66313619D02*
X112226095Y-66266000D01*
X112321333Y-66218380D01*
X112559428Y-66218380D01*
X112654666Y-66266000D01*
X112702285Y-66313619D01*
X112749904Y-66408857D01*
X112749904Y-66504095D01*
X112702285Y-66646952D01*
X112130857Y-67218380D01*
X112749904Y-67218380D01*
X110845142Y-65718380D02*
X110511809Y-65242190D01*
X110273714Y-65718380D02*
X110273714Y-64718380D01*
X110654666Y-64718380D01*
X110749904Y-64766000D01*
X110797523Y-64813619D01*
X110845142Y-64908857D01*
X110845142Y-65051714D01*
X110797523Y-65146952D01*
X110749904Y-65194571D01*
X110654666Y-65242190D01*
X110273714Y-65242190D01*
X111797523Y-65718380D02*
X111226095Y-65718380D01*
X111511809Y-65718380D02*
X111511809Y-64718380D01*
X111416571Y-64861238D01*
X111321333Y-64956476D01*
X111226095Y-65004095D01*
X112749904Y-65718380D02*
X112178476Y-65718380D01*
X112464190Y-65718380D02*
X112464190Y-64718380D01*
X112368952Y-64861238D01*
X112273714Y-64956476D01*
X112178476Y-65004095D01*
X110845142Y-64218380D02*
X110511809Y-63742190D01*
X110273714Y-64218380D02*
X110273714Y-63218380D01*
X110654666Y-63218380D01*
X110749904Y-63266000D01*
X110797523Y-63313619D01*
X110845142Y-63408857D01*
X110845142Y-63551714D01*
X110797523Y-63646952D01*
X110749904Y-63694571D01*
X110654666Y-63742190D01*
X110273714Y-63742190D01*
X111797523Y-64218380D02*
X111226095Y-64218380D01*
X111511809Y-64218380D02*
X111511809Y-63218380D01*
X111416571Y-63361238D01*
X111321333Y-63456476D01*
X111226095Y-63504095D01*
X112416571Y-63218380D02*
X112511809Y-63218380D01*
X112607047Y-63266000D01*
X112654666Y-63313619D01*
X112702285Y-63408857D01*
X112749904Y-63599333D01*
X112749904Y-63837428D01*
X112702285Y-64027904D01*
X112654666Y-64123142D01*
X112607047Y-64170761D01*
X112511809Y-64218380D01*
X112416571Y-64218380D01*
X112321333Y-64170761D01*
X112273714Y-64123142D01*
X112226095Y-64027904D01*
X112178476Y-63837428D01*
X112178476Y-63599333D01*
X112226095Y-63408857D01*
X112273714Y-63313619D01*
X112321333Y-63266000D01*
X112416571Y-63218380D01*
X110760380Y-128462666D02*
X110284190Y-128796000D01*
X110760380Y-129034095D02*
X109760380Y-129034095D01*
X109760380Y-128653142D01*
X109808000Y-128557904D01*
X109855619Y-128510285D01*
X109950857Y-128462666D01*
X110093714Y-128462666D01*
X110188952Y-128510285D01*
X110236571Y-128557904D01*
X110284190Y-128653142D01*
X110284190Y-129034095D01*
X110760380Y-127986476D02*
X110760380Y-127796000D01*
X110712761Y-127700761D01*
X110665142Y-127653142D01*
X110522285Y-127557904D01*
X110331809Y-127510285D01*
X109950857Y-127510285D01*
X109855619Y-127557904D01*
X109808000Y-127605523D01*
X109760380Y-127700761D01*
X109760380Y-127891238D01*
X109808000Y-127986476D01*
X109855619Y-128034095D01*
X109950857Y-128081714D01*
X110188952Y-128081714D01*
X110284190Y-128034095D01*
X110331809Y-127986476D01*
X110379428Y-127891238D01*
X110379428Y-127700761D01*
X110331809Y-127605523D01*
X110284190Y-127557904D01*
X110188952Y-127510285D01*
X110760380Y-132462666D02*
X110284190Y-132796000D01*
X110760380Y-133034095D02*
X109760380Y-133034095D01*
X109760380Y-132653142D01*
X109808000Y-132557904D01*
X109855619Y-132510285D01*
X109950857Y-132462666D01*
X110093714Y-132462666D01*
X110188952Y-132510285D01*
X110236571Y-132557904D01*
X110284190Y-132653142D01*
X110284190Y-133034095D01*
X110188952Y-131891238D02*
X110141333Y-131986476D01*
X110093714Y-132034095D01*
X109998476Y-132081714D01*
X109950857Y-132081714D01*
X109855619Y-132034095D01*
X109808000Y-131986476D01*
X109760380Y-131891238D01*
X109760380Y-131700761D01*
X109808000Y-131605523D01*
X109855619Y-131557904D01*
X109950857Y-131510285D01*
X109998476Y-131510285D01*
X110093714Y-131557904D01*
X110141333Y-131605523D01*
X110188952Y-131700761D01*
X110188952Y-131891238D01*
X110236571Y-131986476D01*
X110284190Y-132034095D01*
X110379428Y-132081714D01*
X110569904Y-132081714D01*
X110665142Y-132034095D01*
X110712761Y-131986476D01*
X110760380Y-131891238D01*
X110760380Y-131700761D01*
X110712761Y-131605523D01*
X110665142Y-131557904D01*
X110569904Y-131510285D01*
X110379428Y-131510285D01*
X110284190Y-131557904D01*
X110236571Y-131605523D01*
X110188952Y-131700761D01*
X110760380Y-136462666D02*
X110284190Y-136796000D01*
X110760380Y-137034095D02*
X109760380Y-137034095D01*
X109760380Y-136653142D01*
X109808000Y-136557904D01*
X109855619Y-136510285D01*
X109950857Y-136462666D01*
X110093714Y-136462666D01*
X110188952Y-136510285D01*
X110236571Y-136557904D01*
X110284190Y-136653142D01*
X110284190Y-137034095D01*
X109760380Y-136129333D02*
X109760380Y-135462666D01*
X110760380Y-135891238D01*
X115641333Y-104748380D02*
X115308000Y-104272190D01*
X115069904Y-104748380D02*
X115069904Y-103748380D01*
X115450857Y-103748380D01*
X115546095Y-103796000D01*
X115593714Y-103843619D01*
X115641333Y-103938857D01*
X115641333Y-104081714D01*
X115593714Y-104176952D01*
X115546095Y-104224571D01*
X115450857Y-104272190D01*
X115069904Y-104272190D01*
X116498476Y-103748380D02*
X116308000Y-103748380D01*
X116212761Y-103796000D01*
X116165142Y-103843619D01*
X116069904Y-103986476D01*
X116022285Y-104176952D01*
X116022285Y-104557904D01*
X116069904Y-104653142D01*
X116117523Y-104700761D01*
X116212761Y-104748380D01*
X116403238Y-104748380D01*
X116498476Y-104700761D01*
X116546095Y-104653142D01*
X116593714Y-104557904D01*
X116593714Y-104319809D01*
X116546095Y-104224571D01*
X116498476Y-104176952D01*
X116403238Y-104129333D01*
X116212761Y-104129333D01*
X116117523Y-104176952D01*
X116069904Y-104224571D01*
X116022285Y-104319809D01*
X119641333Y-104748380D02*
X119308000Y-104272190D01*
X119069904Y-104748380D02*
X119069904Y-103748380D01*
X119450857Y-103748380D01*
X119546095Y-103796000D01*
X119593714Y-103843619D01*
X119641333Y-103938857D01*
X119641333Y-104081714D01*
X119593714Y-104176952D01*
X119546095Y-104224571D01*
X119450857Y-104272190D01*
X119069904Y-104272190D01*
X120546095Y-103748380D02*
X120069904Y-103748380D01*
X120022285Y-104224571D01*
X120069904Y-104176952D01*
X120165142Y-104129333D01*
X120403238Y-104129333D01*
X120498476Y-104176952D01*
X120546095Y-104224571D01*
X120593714Y-104319809D01*
X120593714Y-104557904D01*
X120546095Y-104653142D01*
X120498476Y-104700761D01*
X120403238Y-104748380D01*
X120165142Y-104748380D01*
X120069904Y-104700761D01*
X120022285Y-104653142D01*
X123641333Y-104748380D02*
X123308000Y-104272190D01*
X123069904Y-104748380D02*
X123069904Y-103748380D01*
X123450857Y-103748380D01*
X123546095Y-103796000D01*
X123593714Y-103843619D01*
X123641333Y-103938857D01*
X123641333Y-104081714D01*
X123593714Y-104176952D01*
X123546095Y-104224571D01*
X123450857Y-104272190D01*
X123069904Y-104272190D01*
X124498476Y-104081714D02*
X124498476Y-104748380D01*
X124260380Y-103700761D02*
X124022285Y-104415047D01*
X124641333Y-104415047D01*
X110821333Y-87798380D02*
X110488000Y-87322190D01*
X110249904Y-87798380D02*
X110249904Y-86798380D01*
X110630857Y-86798380D01*
X110726095Y-86846000D01*
X110773714Y-86893619D01*
X110821333Y-86988857D01*
X110821333Y-87131714D01*
X110773714Y-87226952D01*
X110726095Y-87274571D01*
X110630857Y-87322190D01*
X110249904Y-87322190D01*
X111154666Y-86798380D02*
X111773714Y-86798380D01*
X111440380Y-87179333D01*
X111583238Y-87179333D01*
X111678476Y-87226952D01*
X111726095Y-87274571D01*
X111773714Y-87369809D01*
X111773714Y-87607904D01*
X111726095Y-87703142D01*
X111678476Y-87750761D01*
X111583238Y-87798380D01*
X111297523Y-87798380D01*
X111202285Y-87750761D01*
X111154666Y-87703142D01*
X110821333Y-86298380D02*
X110488000Y-85822190D01*
X110249904Y-86298380D02*
X110249904Y-85298380D01*
X110630857Y-85298380D01*
X110726095Y-85346000D01*
X110773714Y-85393619D01*
X110821333Y-85488857D01*
X110821333Y-85631714D01*
X110773714Y-85726952D01*
X110726095Y-85774571D01*
X110630857Y-85822190D01*
X110249904Y-85822190D01*
X111202285Y-85393619D02*
X111249904Y-85346000D01*
X111345142Y-85298380D01*
X111583238Y-85298380D01*
X111678476Y-85346000D01*
X111726095Y-85393619D01*
X111773714Y-85488857D01*
X111773714Y-85584095D01*
X111726095Y-85726952D01*
X111154666Y-86298380D01*
X111773714Y-86298380D01*
X110821333Y-84798380D02*
X110488000Y-84322190D01*
X110249904Y-84798380D02*
X110249904Y-83798380D01*
X110630857Y-83798380D01*
X110726095Y-83846000D01*
X110773714Y-83893619D01*
X110821333Y-83988857D01*
X110821333Y-84131714D01*
X110773714Y-84226952D01*
X110726095Y-84274571D01*
X110630857Y-84322190D01*
X110249904Y-84322190D01*
X111773714Y-84798380D02*
X111202285Y-84798380D01*
X111488000Y-84798380D02*
X111488000Y-83798380D01*
X111392761Y-83941238D01*
X111297523Y-84036476D01*
X111202285Y-84084095D01*
X177966619Y-84804238D02*
X177919000Y-84899476D01*
X177823761Y-84994714D01*
X177680904Y-85137571D01*
X177633285Y-85232809D01*
X177633285Y-85328047D01*
X177871380Y-85280428D02*
X177823761Y-85375666D01*
X177728523Y-85470904D01*
X177538047Y-85518523D01*
X177204714Y-85518523D01*
X177014238Y-85470904D01*
X176919000Y-85375666D01*
X176871380Y-85280428D01*
X176871380Y-85089952D01*
X176919000Y-84994714D01*
X177014238Y-84899476D01*
X177204714Y-84851857D01*
X177538047Y-84851857D01*
X177728523Y-84899476D01*
X177823761Y-84994714D01*
X177871380Y-85089952D01*
X177871380Y-85280428D01*
X177204714Y-83994714D02*
X177871380Y-83994714D01*
X176823761Y-84232809D02*
X177538047Y-84470904D01*
X177538047Y-83851857D01*
X172632619Y-84804238D02*
X172585000Y-84899476D01*
X172489761Y-84994714D01*
X172346904Y-85137571D01*
X172299285Y-85232809D01*
X172299285Y-85328047D01*
X172537380Y-85280428D02*
X172489761Y-85375666D01*
X172394523Y-85470904D01*
X172204047Y-85518523D01*
X171870714Y-85518523D01*
X171680238Y-85470904D01*
X171585000Y-85375666D01*
X171537380Y-85280428D01*
X171537380Y-85089952D01*
X171585000Y-84994714D01*
X171680238Y-84899476D01*
X171870714Y-84851857D01*
X172204047Y-84851857D01*
X172394523Y-84899476D01*
X172489761Y-84994714D01*
X172537380Y-85089952D01*
X172537380Y-85280428D01*
X171537380Y-84518523D02*
X171537380Y-83899476D01*
X171918333Y-84232809D01*
X171918333Y-84089952D01*
X171965952Y-83994714D01*
X172013571Y-83947095D01*
X172108809Y-83899476D01*
X172346904Y-83899476D01*
X172442142Y-83947095D01*
X172489761Y-83994714D01*
X172537380Y-84089952D01*
X172537380Y-84375666D01*
X172489761Y-84470904D01*
X172442142Y-84518523D01*
X146089619Y-85439238D02*
X146042000Y-85534476D01*
X145946761Y-85629714D01*
X145803904Y-85772571D01*
X145756285Y-85867809D01*
X145756285Y-85963047D01*
X145994380Y-85915428D02*
X145946761Y-86010666D01*
X145851523Y-86105904D01*
X145661047Y-86153523D01*
X145327714Y-86153523D01*
X145137238Y-86105904D01*
X145042000Y-86010666D01*
X144994380Y-85915428D01*
X144994380Y-85724952D01*
X145042000Y-85629714D01*
X145137238Y-85534476D01*
X145327714Y-85486857D01*
X145661047Y-85486857D01*
X145851523Y-85534476D01*
X145946761Y-85629714D01*
X145994380Y-85724952D01*
X145994380Y-85915428D01*
X145089619Y-85105904D02*
X145042000Y-85058285D01*
X144994380Y-84963047D01*
X144994380Y-84724952D01*
X145042000Y-84629714D01*
X145089619Y-84582095D01*
X145184857Y-84534476D01*
X145280095Y-84534476D01*
X145422952Y-84582095D01*
X145994380Y-85153523D01*
X145994380Y-84534476D01*
X139231619Y-85439238D02*
X139184000Y-85534476D01*
X139088761Y-85629714D01*
X138945904Y-85772571D01*
X138898285Y-85867809D01*
X138898285Y-85963047D01*
X139136380Y-85915428D02*
X139088761Y-86010666D01*
X138993523Y-86105904D01*
X138803047Y-86153523D01*
X138469714Y-86153523D01*
X138279238Y-86105904D01*
X138184000Y-86010666D01*
X138136380Y-85915428D01*
X138136380Y-85724952D01*
X138184000Y-85629714D01*
X138279238Y-85534476D01*
X138469714Y-85486857D01*
X138803047Y-85486857D01*
X138993523Y-85534476D01*
X139088761Y-85629714D01*
X139136380Y-85724952D01*
X139136380Y-85915428D01*
X139136380Y-84534476D02*
X139136380Y-85105904D01*
X139136380Y-84820190D02*
X138136380Y-84820190D01*
X138279238Y-84915428D01*
X138374476Y-85010666D01*
X138422095Y-85105904D01*
X179940380Y-132325523D02*
X180654666Y-132325523D01*
X180797523Y-132373142D01*
X180892761Y-132468380D01*
X180940380Y-132611238D01*
X180940380Y-132706476D01*
X180035619Y-131896952D02*
X179988000Y-131849333D01*
X179940380Y-131754095D01*
X179940380Y-131516000D01*
X179988000Y-131420761D01*
X180035619Y-131373142D01*
X180130857Y-131325523D01*
X180226095Y-131325523D01*
X180368952Y-131373142D01*
X180940380Y-131944571D01*
X180940380Y-131325523D01*
X179940380Y-130992190D02*
X179940380Y-130373142D01*
X180321333Y-130706476D01*
X180321333Y-130563619D01*
X180368952Y-130468380D01*
X180416571Y-130420761D01*
X180511809Y-130373142D01*
X180749904Y-130373142D01*
X180845142Y-130420761D01*
X180892761Y-130468380D01*
X180940380Y-130563619D01*
X180940380Y-130849333D01*
X180892761Y-130944571D01*
X180845142Y-130992190D01*
X179940380Y-120825523D02*
X180654666Y-120825523D01*
X180797523Y-120873142D01*
X180892761Y-120968380D01*
X180940380Y-121111238D01*
X180940380Y-121206476D01*
X180035619Y-120396952D02*
X179988000Y-120349333D01*
X179940380Y-120254095D01*
X179940380Y-120016000D01*
X179988000Y-119920761D01*
X180035619Y-119873142D01*
X180130857Y-119825523D01*
X180226095Y-119825523D01*
X180368952Y-119873142D01*
X180940380Y-120444571D01*
X180940380Y-119825523D01*
X180035619Y-119444571D02*
X179988000Y-119396952D01*
X179940380Y-119301714D01*
X179940380Y-119063619D01*
X179988000Y-118968380D01*
X180035619Y-118920761D01*
X180130857Y-118873142D01*
X180226095Y-118873142D01*
X180368952Y-118920761D01*
X180940380Y-119492190D01*
X180940380Y-118873142D01*
X180440380Y-126825523D02*
X181154666Y-126825523D01*
X181297523Y-126873142D01*
X181392761Y-126968380D01*
X181440380Y-127111238D01*
X181440380Y-127206476D01*
X180535619Y-126396952D02*
X180488000Y-126349333D01*
X180440380Y-126254095D01*
X180440380Y-126016000D01*
X180488000Y-125920761D01*
X180535619Y-125873142D01*
X180630857Y-125825523D01*
X180726095Y-125825523D01*
X180868952Y-125873142D01*
X181440380Y-126444571D01*
X181440380Y-125825523D01*
X181440380Y-124873142D02*
X181440380Y-125444571D01*
X181440380Y-125158857D02*
X180440380Y-125158857D01*
X180583238Y-125254095D01*
X180678476Y-125349333D01*
X180726095Y-125444571D01*
X183690476Y-96952380D02*
X183690476Y-97666666D01*
X183642857Y-97809523D01*
X183547619Y-97904761D01*
X183404761Y-97952380D01*
X183309523Y-97952380D01*
X184119047Y-97047619D02*
X184166666Y-97000000D01*
X184261904Y-96952380D01*
X184500000Y-96952380D01*
X184595238Y-97000000D01*
X184642857Y-97047619D01*
X184690476Y-97142857D01*
X184690476Y-97238095D01*
X184642857Y-97380952D01*
X184071428Y-97952380D01*
X184690476Y-97952380D01*
X185309523Y-96952380D02*
X185404761Y-96952380D01*
X185500000Y-97000000D01*
X185547619Y-97047619D01*
X185595238Y-97142857D01*
X185642857Y-97333333D01*
X185642857Y-97571428D01*
X185595238Y-97761904D01*
X185547619Y-97857142D01*
X185500000Y-97904761D01*
X185404761Y-97952380D01*
X185309523Y-97952380D01*
X185214285Y-97904761D01*
X185166666Y-97857142D01*
X185119047Y-97761904D01*
X185071428Y-97571428D01*
X185071428Y-97333333D01*
X185119047Y-97142857D01*
X185166666Y-97047619D01*
X185214285Y-97000000D01*
X185309523Y-96952380D01*
X148360380Y-58805523D02*
X149074666Y-58805523D01*
X149217523Y-58853142D01*
X149312761Y-58948380D01*
X149360380Y-59091238D01*
X149360380Y-59186476D01*
X149360380Y-57805523D02*
X149360380Y-58376952D01*
X149360380Y-58091238D02*
X148360380Y-58091238D01*
X148503238Y-58186476D01*
X148598476Y-58281714D01*
X148646095Y-58376952D01*
X149360380Y-57329333D02*
X149360380Y-57138857D01*
X149312761Y-57043619D01*
X149265142Y-56996000D01*
X149122285Y-56900761D01*
X148931809Y-56853142D01*
X148550857Y-56853142D01*
X148455619Y-56900761D01*
X148408000Y-56948380D01*
X148360380Y-57043619D01*
X148360380Y-57234095D01*
X148408000Y-57329333D01*
X148455619Y-57376952D01*
X148550857Y-57424571D01*
X148788952Y-57424571D01*
X148884190Y-57376952D01*
X148931809Y-57329333D01*
X148979428Y-57234095D01*
X148979428Y-57043619D01*
X148931809Y-56948380D01*
X148884190Y-56900761D01*
X148788952Y-56853142D01*
X110831380Y-61134523D02*
X111545666Y-61134523D01*
X111688523Y-61182142D01*
X111783761Y-61277380D01*
X111831380Y-61420238D01*
X111831380Y-61515476D01*
X111831380Y-60134523D02*
X111831380Y-60705952D01*
X111831380Y-60420238D02*
X110831380Y-60420238D01*
X110974238Y-60515476D01*
X111069476Y-60610714D01*
X111117095Y-60705952D01*
X111259952Y-59563095D02*
X111212333Y-59658333D01*
X111164714Y-59705952D01*
X111069476Y-59753571D01*
X111021857Y-59753571D01*
X110926619Y-59705952D01*
X110879000Y-59658333D01*
X110831380Y-59563095D01*
X110831380Y-59372619D01*
X110879000Y-59277380D01*
X110926619Y-59229761D01*
X111021857Y-59182142D01*
X111069476Y-59182142D01*
X111164714Y-59229761D01*
X111212333Y-59277380D01*
X111259952Y-59372619D01*
X111259952Y-59563095D01*
X111307571Y-59658333D01*
X111355190Y-59705952D01*
X111450428Y-59753571D01*
X111640904Y-59753571D01*
X111736142Y-59705952D01*
X111783761Y-59658333D01*
X111831380Y-59563095D01*
X111831380Y-59372619D01*
X111783761Y-59277380D01*
X111736142Y-59229761D01*
X111640904Y-59182142D01*
X111450428Y-59182142D01*
X111355190Y-59229761D01*
X111307571Y-59277380D01*
X111259952Y-59372619D01*
X120475476Y-59777380D02*
X120475476Y-60491666D01*
X120427857Y-60634523D01*
X120332619Y-60729761D01*
X120189761Y-60777380D01*
X120094523Y-60777380D01*
X121475476Y-60777380D02*
X120904047Y-60777380D01*
X121189761Y-60777380D02*
X121189761Y-59777380D01*
X121094523Y-59920238D01*
X120999285Y-60015476D01*
X120904047Y-60063095D01*
X121808809Y-59777380D02*
X122475476Y-59777380D01*
X122046904Y-60777380D01*
X107394476Y-59777380D02*
X107394476Y-60491666D01*
X107346857Y-60634523D01*
X107251619Y-60729761D01*
X107108761Y-60777380D01*
X107013523Y-60777380D01*
X108394476Y-60777380D02*
X107823047Y-60777380D01*
X108108761Y-60777380D02*
X108108761Y-59777380D01*
X108013523Y-59920238D01*
X107918285Y-60015476D01*
X107823047Y-60063095D01*
X109251619Y-59777380D02*
X109061142Y-59777380D01*
X108965904Y-59825000D01*
X108918285Y-59872619D01*
X108823047Y-60015476D01*
X108775428Y-60205952D01*
X108775428Y-60586904D01*
X108823047Y-60682142D01*
X108870666Y-60729761D01*
X108965904Y-60777380D01*
X109156380Y-60777380D01*
X109251619Y-60729761D01*
X109299238Y-60682142D01*
X109346857Y-60586904D01*
X109346857Y-60348809D01*
X109299238Y-60253571D01*
X109251619Y-60205952D01*
X109156380Y-60158333D01*
X108965904Y-60158333D01*
X108870666Y-60205952D01*
X108823047Y-60253571D01*
X108775428Y-60348809D01*
X98518476Y-105542380D02*
X98518476Y-106256666D01*
X98470857Y-106399523D01*
X98375619Y-106494761D01*
X98232761Y-106542380D01*
X98137523Y-106542380D01*
X99518476Y-106542380D02*
X98947047Y-106542380D01*
X99232761Y-106542380D02*
X99232761Y-105542380D01*
X99137523Y-105685238D01*
X99042285Y-105780476D01*
X98947047Y-105828095D01*
X100423238Y-105542380D02*
X99947047Y-105542380D01*
X99899428Y-106018571D01*
X99947047Y-105970952D01*
X100042285Y-105923333D01*
X100280380Y-105923333D01*
X100375619Y-105970952D01*
X100423238Y-106018571D01*
X100470857Y-106113809D01*
X100470857Y-106351904D01*
X100423238Y-106447142D01*
X100375619Y-106494761D01*
X100280380Y-106542380D01*
X100042285Y-106542380D01*
X99947047Y-106494761D01*
X99899428Y-106447142D01*
X98518476Y-99700380D02*
X98518476Y-100414666D01*
X98470857Y-100557523D01*
X98375619Y-100652761D01*
X98232761Y-100700380D01*
X98137523Y-100700380D01*
X99518476Y-100700380D02*
X98947047Y-100700380D01*
X99232761Y-100700380D02*
X99232761Y-99700380D01*
X99137523Y-99843238D01*
X99042285Y-99938476D01*
X98947047Y-99986095D01*
X100375619Y-100033714D02*
X100375619Y-100700380D01*
X100137523Y-99652761D02*
X99899428Y-100367047D01*
X100518476Y-100367047D01*
X99280476Y-94620380D02*
X99280476Y-95334666D01*
X99232857Y-95477523D01*
X99137619Y-95572761D01*
X98994761Y-95620380D01*
X98899523Y-95620380D01*
X100280476Y-95620380D02*
X99709047Y-95620380D01*
X99994761Y-95620380D02*
X99994761Y-94620380D01*
X99899523Y-94763238D01*
X99804285Y-94858476D01*
X99709047Y-94906095D01*
X100613809Y-94620380D02*
X101232857Y-94620380D01*
X100899523Y-95001333D01*
X101042380Y-95001333D01*
X101137619Y-95048952D01*
X101185238Y-95096571D01*
X101232857Y-95191809D01*
X101232857Y-95429904D01*
X101185238Y-95525142D01*
X101137619Y-95572761D01*
X101042380Y-95620380D01*
X100756666Y-95620380D01*
X100661428Y-95572761D01*
X100613809Y-95525142D01*
X152150380Y-134286523D02*
X152864666Y-134286523D01*
X153007523Y-134334142D01*
X153102761Y-134429380D01*
X153150380Y-134572238D01*
X153150380Y-134667476D01*
X153150380Y-133286523D02*
X153150380Y-133857952D01*
X153150380Y-133572238D02*
X152150380Y-133572238D01*
X152293238Y-133667476D01*
X152388476Y-133762714D01*
X152436095Y-133857952D01*
X152245619Y-132905571D02*
X152198000Y-132857952D01*
X152150380Y-132762714D01*
X152150380Y-132524619D01*
X152198000Y-132429380D01*
X152245619Y-132381761D01*
X152340857Y-132334142D01*
X152436095Y-132334142D01*
X152578952Y-132381761D01*
X153150380Y-132953190D01*
X153150380Y-132334142D01*
X137366476Y-135596380D02*
X137366476Y-136310666D01*
X137318857Y-136453523D01*
X137223619Y-136548761D01*
X137080761Y-136596380D01*
X136985523Y-136596380D01*
X138366476Y-136596380D02*
X137795047Y-136596380D01*
X138080761Y-136596380D02*
X138080761Y-135596380D01*
X137985523Y-135739238D01*
X137890285Y-135834476D01*
X137795047Y-135882095D01*
X139318857Y-136596380D02*
X138747428Y-136596380D01*
X139033142Y-136596380D02*
X139033142Y-135596380D01*
X138937904Y-135739238D01*
X138842666Y-135834476D01*
X138747428Y-135882095D01*
X150320476Y-135596380D02*
X150320476Y-136310666D01*
X150272857Y-136453523D01*
X150177619Y-136548761D01*
X150034761Y-136596380D01*
X149939523Y-136596380D01*
X151320476Y-136596380D02*
X150749047Y-136596380D01*
X151034761Y-136596380D02*
X151034761Y-135596380D01*
X150939523Y-135739238D01*
X150844285Y-135834476D01*
X150749047Y-135882095D01*
X151939523Y-135596380D02*
X152034761Y-135596380D01*
X152130000Y-135644000D01*
X152177619Y-135691619D01*
X152225238Y-135786857D01*
X152272857Y-135977333D01*
X152272857Y-136215428D01*
X152225238Y-136405904D01*
X152177619Y-136501142D01*
X152130000Y-136548761D01*
X152034761Y-136596380D01*
X151939523Y-136596380D01*
X151844285Y-136548761D01*
X151796666Y-136501142D01*
X151749047Y-136405904D01*
X151701428Y-136215428D01*
X151701428Y-135977333D01*
X151749047Y-135786857D01*
X151796666Y-135691619D01*
X151844285Y-135644000D01*
X151939523Y-135596380D01*
X156638666Y-135723380D02*
X156638666Y-136437666D01*
X156591047Y-136580523D01*
X156495809Y-136675761D01*
X156352952Y-136723380D01*
X156257714Y-136723380D01*
X157162476Y-136723380D02*
X157352952Y-136723380D01*
X157448190Y-136675761D01*
X157495809Y-136628142D01*
X157591047Y-136485285D01*
X157638666Y-136294809D01*
X157638666Y-135913857D01*
X157591047Y-135818619D01*
X157543428Y-135771000D01*
X157448190Y-135723380D01*
X157257714Y-135723380D01*
X157162476Y-135771000D01*
X157114857Y-135818619D01*
X157067238Y-135913857D01*
X157067238Y-136151952D01*
X157114857Y-136247190D01*
X157162476Y-136294809D01*
X157257714Y-136342428D01*
X157448190Y-136342428D01*
X157543428Y-136294809D01*
X157591047Y-136247190D01*
X157638666Y-136151952D01*
X101725166Y-107300880D02*
X101725166Y-108015166D01*
X101677547Y-108158023D01*
X101582309Y-108253261D01*
X101439452Y-108300880D01*
X101344214Y-108300880D01*
X102344214Y-107729452D02*
X102248976Y-107681833D01*
X102201357Y-107634214D01*
X102153738Y-107538976D01*
X102153738Y-107491357D01*
X102201357Y-107396119D01*
X102248976Y-107348500D01*
X102344214Y-107300880D01*
X102534690Y-107300880D01*
X102629928Y-107348500D01*
X102677547Y-107396119D01*
X102725166Y-107491357D01*
X102725166Y-107538976D01*
X102677547Y-107634214D01*
X102629928Y-107681833D01*
X102534690Y-107729452D01*
X102344214Y-107729452D01*
X102248976Y-107777071D01*
X102201357Y-107824690D01*
X102153738Y-107919928D01*
X102153738Y-108110404D01*
X102201357Y-108205642D01*
X102248976Y-108253261D01*
X102344214Y-108300880D01*
X102534690Y-108300880D01*
X102629928Y-108253261D01*
X102677547Y-108205642D01*
X102725166Y-108110404D01*
X102725166Y-107919928D01*
X102677547Y-107824690D01*
X102629928Y-107777071D01*
X102534690Y-107729452D01*
X96139666Y-127478380D02*
X96139666Y-128192666D01*
X96092047Y-128335523D01*
X95996809Y-128430761D01*
X95853952Y-128478380D01*
X95758714Y-128478380D01*
X96520619Y-127478380D02*
X97187285Y-127478380D01*
X96758714Y-128478380D01*
X96139666Y-121128380D02*
X96139666Y-121842666D01*
X96092047Y-121985523D01*
X95996809Y-122080761D01*
X95853952Y-122128380D01*
X95758714Y-122128380D01*
X97044428Y-121128380D02*
X96853952Y-121128380D01*
X96758714Y-121176000D01*
X96711095Y-121223619D01*
X96615857Y-121366476D01*
X96568238Y-121556952D01*
X96568238Y-121937904D01*
X96615857Y-122033142D01*
X96663476Y-122080761D01*
X96758714Y-122128380D01*
X96949190Y-122128380D01*
X97044428Y-122080761D01*
X97092047Y-122033142D01*
X97139666Y-121937904D01*
X97139666Y-121699809D01*
X97092047Y-121604571D01*
X97044428Y-121556952D01*
X96949190Y-121509333D01*
X96758714Y-121509333D01*
X96663476Y-121556952D01*
X96615857Y-121604571D01*
X96568238Y-121699809D01*
X96139666Y-114778380D02*
X96139666Y-115492666D01*
X96092047Y-115635523D01*
X95996809Y-115730761D01*
X95853952Y-115778380D01*
X95758714Y-115778380D01*
X97092047Y-114778380D02*
X96615857Y-114778380D01*
X96568238Y-115254571D01*
X96615857Y-115206952D01*
X96711095Y-115159333D01*
X96949190Y-115159333D01*
X97044428Y-115206952D01*
X97092047Y-115254571D01*
X97139666Y-115349809D01*
X97139666Y-115587904D01*
X97092047Y-115683142D01*
X97044428Y-115730761D01*
X96949190Y-115778380D01*
X96711095Y-115778380D01*
X96615857Y-115730761D01*
X96568238Y-115683142D01*
X96654666Y-85018380D02*
X96654666Y-85732666D01*
X96607047Y-85875523D01*
X96511809Y-85970761D01*
X96368952Y-86018380D01*
X96273714Y-86018380D01*
X97559428Y-85351714D02*
X97559428Y-86018380D01*
X97321333Y-84970761D02*
X97083238Y-85685047D01*
X97702285Y-85685047D01*
X96654666Y-70018380D02*
X96654666Y-70732666D01*
X96607047Y-70875523D01*
X96511809Y-70970761D01*
X96368952Y-71018380D01*
X96273714Y-71018380D01*
X97035619Y-70018380D02*
X97654666Y-70018380D01*
X97321333Y-70399333D01*
X97464190Y-70399333D01*
X97559428Y-70446952D01*
X97607047Y-70494571D01*
X97654666Y-70589809D01*
X97654666Y-70827904D01*
X97607047Y-70923142D01*
X97559428Y-70970761D01*
X97464190Y-71018380D01*
X97178476Y-71018380D01*
X97083238Y-70970761D01*
X97035619Y-70923142D01*
X96654666Y-77518380D02*
X96654666Y-78232666D01*
X96607047Y-78375523D01*
X96511809Y-78470761D01*
X96368952Y-78518380D01*
X96273714Y-78518380D01*
X97083238Y-77613619D02*
X97130857Y-77566000D01*
X97226095Y-77518380D01*
X97464190Y-77518380D01*
X97559428Y-77566000D01*
X97607047Y-77613619D01*
X97654666Y-77708857D01*
X97654666Y-77804095D01*
X97607047Y-77946952D01*
X97035619Y-78518380D01*
X97654666Y-78518380D01*
X96654666Y-62518380D02*
X96654666Y-63232666D01*
X96607047Y-63375523D01*
X96511809Y-63470761D01*
X96368952Y-63518380D01*
X96273714Y-63518380D01*
X97654666Y-63518380D02*
X97083238Y-63518380D01*
X97368952Y-63518380D02*
X97368952Y-62518380D01*
X97273714Y-62661238D01*
X97178476Y-62756476D01*
X97083238Y-62804095D01*
X165253380Y-80798095D02*
X164253380Y-80798095D01*
X164253380Y-80560000D01*
X164301000Y-80417142D01*
X164396238Y-80321904D01*
X164491476Y-80274285D01*
X164681952Y-80226666D01*
X164824809Y-80226666D01*
X165015285Y-80274285D01*
X165110523Y-80321904D01*
X165205761Y-80417142D01*
X165253380Y-80560000D01*
X165253380Y-80798095D01*
X164681952Y-79655238D02*
X164634333Y-79750476D01*
X164586714Y-79798095D01*
X164491476Y-79845714D01*
X164443857Y-79845714D01*
X164348619Y-79798095D01*
X164301000Y-79750476D01*
X164253380Y-79655238D01*
X164253380Y-79464761D01*
X164301000Y-79369523D01*
X164348619Y-79321904D01*
X164443857Y-79274285D01*
X164491476Y-79274285D01*
X164586714Y-79321904D01*
X164634333Y-79369523D01*
X164681952Y-79464761D01*
X164681952Y-79655238D01*
X164729571Y-79750476D01*
X164777190Y-79798095D01*
X164872428Y-79845714D01*
X165062904Y-79845714D01*
X165158142Y-79798095D01*
X165205761Y-79750476D01*
X165253380Y-79655238D01*
X165253380Y-79464761D01*
X165205761Y-79369523D01*
X165158142Y-79321904D01*
X165062904Y-79274285D01*
X164872428Y-79274285D01*
X164777190Y-79321904D01*
X164729571Y-79369523D01*
X164681952Y-79464761D01*
X161824380Y-84354095D02*
X160824380Y-84354095D01*
X160824380Y-84116000D01*
X160872000Y-83973142D01*
X160967238Y-83877904D01*
X161062476Y-83830285D01*
X161252952Y-83782666D01*
X161395809Y-83782666D01*
X161586285Y-83830285D01*
X161681523Y-83877904D01*
X161776761Y-83973142D01*
X161824380Y-84116000D01*
X161824380Y-84354095D01*
X160824380Y-83449333D02*
X160824380Y-82782666D01*
X161824380Y-83211238D01*
X157637380Y-80839095D02*
X156637380Y-80839095D01*
X156637380Y-80601000D01*
X156685000Y-80458142D01*
X156780238Y-80362904D01*
X156875476Y-80315285D01*
X157065952Y-80267666D01*
X157208809Y-80267666D01*
X157399285Y-80315285D01*
X157494523Y-80362904D01*
X157589761Y-80458142D01*
X157637380Y-80601000D01*
X157637380Y-80839095D01*
X156637380Y-79410523D02*
X156637380Y-79601000D01*
X156685000Y-79696238D01*
X156732619Y-79743857D01*
X156875476Y-79839095D01*
X157065952Y-79886714D01*
X157446904Y-79886714D01*
X157542142Y-79839095D01*
X157589761Y-79791476D01*
X157637380Y-79696238D01*
X157637380Y-79505761D01*
X157589761Y-79410523D01*
X157542142Y-79362904D01*
X157446904Y-79315285D01*
X157208809Y-79315285D01*
X157113571Y-79362904D01*
X157065952Y-79410523D01*
X157018333Y-79505761D01*
X157018333Y-79696238D01*
X157065952Y-79791476D01*
X157113571Y-79839095D01*
X157208809Y-79886714D01*
X154081380Y-84400095D02*
X153081380Y-84400095D01*
X153081380Y-84162000D01*
X153129000Y-84019142D01*
X153224238Y-83923904D01*
X153319476Y-83876285D01*
X153509952Y-83828666D01*
X153652809Y-83828666D01*
X153843285Y-83876285D01*
X153938523Y-83923904D01*
X154033761Y-84019142D01*
X154081380Y-84162000D01*
X154081380Y-84400095D01*
X153081380Y-82923904D02*
X153081380Y-83400095D01*
X153557571Y-83447714D01*
X153509952Y-83400095D01*
X153462333Y-83304857D01*
X153462333Y-83066761D01*
X153509952Y-82971523D01*
X153557571Y-82923904D01*
X153652809Y-82876285D01*
X153890904Y-82876285D01*
X153986142Y-82923904D01*
X154033761Y-82971523D01*
X154081380Y-83066761D01*
X154081380Y-83304857D01*
X154033761Y-83400095D01*
X153986142Y-83447714D01*
X122461904Y-126052380D02*
X122461904Y-125052380D01*
X122700000Y-125052380D01*
X122842857Y-125100000D01*
X122938095Y-125195238D01*
X122985714Y-125290476D01*
X123033333Y-125480952D01*
X123033333Y-125623809D01*
X122985714Y-125814285D01*
X122938095Y-125909523D01*
X122842857Y-126004761D01*
X122700000Y-126052380D01*
X122461904Y-126052380D01*
X123890476Y-125385714D02*
X123890476Y-126052380D01*
X123652380Y-125004761D02*
X123414285Y-125719047D01*
X124033333Y-125719047D01*
X132019904Y-106798380D02*
X132019904Y-105798380D01*
X132258000Y-105798380D01*
X132400857Y-105846000D01*
X132496095Y-105941238D01*
X132543714Y-106036476D01*
X132591333Y-106226952D01*
X132591333Y-106369809D01*
X132543714Y-106560285D01*
X132496095Y-106655523D01*
X132400857Y-106750761D01*
X132258000Y-106798380D01*
X132019904Y-106798380D01*
X132924666Y-105798380D02*
X133543714Y-105798380D01*
X133210380Y-106179333D01*
X133353238Y-106179333D01*
X133448476Y-106226952D01*
X133496095Y-106274571D01*
X133543714Y-106369809D01*
X133543714Y-106607904D01*
X133496095Y-106703142D01*
X133448476Y-106750761D01*
X133353238Y-106798380D01*
X133067523Y-106798380D01*
X132972285Y-106750761D01*
X132924666Y-106703142D01*
X132261904Y-137852380D02*
X132261904Y-136852380D01*
X132500000Y-136852380D01*
X132642857Y-136900000D01*
X132738095Y-136995238D01*
X132785714Y-137090476D01*
X132833333Y-137280952D01*
X132833333Y-137423809D01*
X132785714Y-137614285D01*
X132738095Y-137709523D01*
X132642857Y-137804761D01*
X132500000Y-137852380D01*
X132261904Y-137852380D01*
X133214285Y-136947619D02*
X133261904Y-136900000D01*
X133357142Y-136852380D01*
X133595238Y-136852380D01*
X133690476Y-136900000D01*
X133738095Y-136947619D01*
X133785714Y-137042857D01*
X133785714Y-137138095D01*
X133738095Y-137280952D01*
X133166666Y-137852380D01*
X133785714Y-137852380D01*
X115569904Y-110748380D02*
X115569904Y-109748380D01*
X115808000Y-109748380D01*
X115950857Y-109796000D01*
X116046095Y-109891238D01*
X116093714Y-109986476D01*
X116141333Y-110176952D01*
X116141333Y-110319809D01*
X116093714Y-110510285D01*
X116046095Y-110605523D01*
X115950857Y-110700761D01*
X115808000Y-110748380D01*
X115569904Y-110748380D01*
X117093714Y-110748380D02*
X116522285Y-110748380D01*
X116808000Y-110748380D02*
X116808000Y-109748380D01*
X116712761Y-109891238D01*
X116617523Y-109986476D01*
X116522285Y-110034095D01*
X172204142Y-64365142D02*
X172156523Y-64412761D01*
X172013666Y-64460380D01*
X171918428Y-64460380D01*
X171775571Y-64412761D01*
X171680333Y-64317523D01*
X171632714Y-64222285D01*
X171585095Y-64031809D01*
X171585095Y-63888952D01*
X171632714Y-63698476D01*
X171680333Y-63603238D01*
X171775571Y-63508000D01*
X171918428Y-63460380D01*
X172013666Y-63460380D01*
X172156523Y-63508000D01*
X172204142Y-63555619D01*
X172537476Y-63460380D02*
X173156523Y-63460380D01*
X172823190Y-63841333D01*
X172966047Y-63841333D01*
X173061285Y-63888952D01*
X173108904Y-63936571D01*
X173156523Y-64031809D01*
X173156523Y-64269904D01*
X173108904Y-64365142D01*
X173061285Y-64412761D01*
X172966047Y-64460380D01*
X172680333Y-64460380D01*
X172585095Y-64412761D01*
X172537476Y-64365142D01*
X173489857Y-63460380D02*
X174156523Y-63460380D01*
X173727952Y-64460380D01*
X139010142Y-64373142D02*
X138962523Y-64420761D01*
X138819666Y-64468380D01*
X138724428Y-64468380D01*
X138581571Y-64420761D01*
X138486333Y-64325523D01*
X138438714Y-64230285D01*
X138391095Y-64039809D01*
X138391095Y-63896952D01*
X138438714Y-63706476D01*
X138486333Y-63611238D01*
X138581571Y-63516000D01*
X138724428Y-63468380D01*
X138819666Y-63468380D01*
X138962523Y-63516000D01*
X139010142Y-63563619D01*
X139343476Y-63468380D02*
X139962523Y-63468380D01*
X139629190Y-63849333D01*
X139772047Y-63849333D01*
X139867285Y-63896952D01*
X139914904Y-63944571D01*
X139962523Y-64039809D01*
X139962523Y-64277904D01*
X139914904Y-64373142D01*
X139867285Y-64420761D01*
X139772047Y-64468380D01*
X139486333Y-64468380D01*
X139391095Y-64420761D01*
X139343476Y-64373142D01*
X140819666Y-63468380D02*
X140629190Y-63468380D01*
X140533952Y-63516000D01*
X140486333Y-63563619D01*
X140391095Y-63706476D01*
X140343476Y-63896952D01*
X140343476Y-64277904D01*
X140391095Y-64373142D01*
X140438714Y-64420761D01*
X140533952Y-64468380D01*
X140724428Y-64468380D01*
X140819666Y-64420761D01*
X140867285Y-64373142D01*
X140914904Y-64277904D01*
X140914904Y-64039809D01*
X140867285Y-63944571D01*
X140819666Y-63896952D01*
X140724428Y-63849333D01*
X140533952Y-63849333D01*
X140438714Y-63896952D01*
X140391095Y-63944571D01*
X140343476Y-64039809D01*
X155345142Y-76123142D02*
X155297523Y-76170761D01*
X155154666Y-76218380D01*
X155059428Y-76218380D01*
X154916571Y-76170761D01*
X154821333Y-76075523D01*
X154773714Y-75980285D01*
X154726095Y-75789809D01*
X154726095Y-75646952D01*
X154773714Y-75456476D01*
X154821333Y-75361238D01*
X154916571Y-75266000D01*
X155059428Y-75218380D01*
X155154666Y-75218380D01*
X155297523Y-75266000D01*
X155345142Y-75313619D01*
X155678476Y-75218380D02*
X156297523Y-75218380D01*
X155964190Y-75599333D01*
X156107047Y-75599333D01*
X156202285Y-75646952D01*
X156249904Y-75694571D01*
X156297523Y-75789809D01*
X156297523Y-76027904D01*
X156249904Y-76123142D01*
X156202285Y-76170761D01*
X156107047Y-76218380D01*
X155821333Y-76218380D01*
X155726095Y-76170761D01*
X155678476Y-76123142D01*
X157202285Y-75218380D02*
X156726095Y-75218380D01*
X156678476Y-75694571D01*
X156726095Y-75646952D01*
X156821333Y-75599333D01*
X157059428Y-75599333D01*
X157154666Y-75646952D01*
X157202285Y-75694571D01*
X157249904Y-75789809D01*
X157249904Y-76027904D01*
X157202285Y-76123142D01*
X157154666Y-76170761D01*
X157059428Y-76218380D01*
X156821333Y-76218380D01*
X156726095Y-76170761D01*
X156678476Y-76123142D01*
X135501142Y-100687142D02*
X135453523Y-100734761D01*
X135310666Y-100782380D01*
X135215428Y-100782380D01*
X135072571Y-100734761D01*
X134977333Y-100639523D01*
X134929714Y-100544285D01*
X134882095Y-100353809D01*
X134882095Y-100210952D01*
X134929714Y-100020476D01*
X134977333Y-99925238D01*
X135072571Y-99830000D01*
X135215428Y-99782380D01*
X135310666Y-99782380D01*
X135453523Y-99830000D01*
X135501142Y-99877619D01*
X135834476Y-99782380D02*
X136453523Y-99782380D01*
X136120190Y-100163333D01*
X136263047Y-100163333D01*
X136358285Y-100210952D01*
X136405904Y-100258571D01*
X136453523Y-100353809D01*
X136453523Y-100591904D01*
X136405904Y-100687142D01*
X136358285Y-100734761D01*
X136263047Y-100782380D01*
X135977333Y-100782380D01*
X135882095Y-100734761D01*
X135834476Y-100687142D01*
X137310666Y-100115714D02*
X137310666Y-100782380D01*
X137072571Y-99734761D02*
X136834476Y-100449047D01*
X137453523Y-100449047D01*
X140835142Y-74525142D02*
X140787523Y-74572761D01*
X140644666Y-74620380D01*
X140549428Y-74620380D01*
X140406571Y-74572761D01*
X140311333Y-74477523D01*
X140263714Y-74382285D01*
X140216095Y-74191809D01*
X140216095Y-74048952D01*
X140263714Y-73858476D01*
X140311333Y-73763238D01*
X140406571Y-73668000D01*
X140549428Y-73620380D01*
X140644666Y-73620380D01*
X140787523Y-73668000D01*
X140835142Y-73715619D01*
X141168476Y-73620380D02*
X141787523Y-73620380D01*
X141454190Y-74001333D01*
X141597047Y-74001333D01*
X141692285Y-74048952D01*
X141739904Y-74096571D01*
X141787523Y-74191809D01*
X141787523Y-74429904D01*
X141739904Y-74525142D01*
X141692285Y-74572761D01*
X141597047Y-74620380D01*
X141311333Y-74620380D01*
X141216095Y-74572761D01*
X141168476Y-74525142D01*
X142120857Y-73620380D02*
X142739904Y-73620380D01*
X142406571Y-74001333D01*
X142549428Y-74001333D01*
X142644666Y-74048952D01*
X142692285Y-74096571D01*
X142739904Y-74191809D01*
X142739904Y-74429904D01*
X142692285Y-74525142D01*
X142644666Y-74572761D01*
X142549428Y-74620380D01*
X142263714Y-74620380D01*
X142168476Y-74572761D01*
X142120857Y-74525142D01*
X165345142Y-65123142D02*
X165297523Y-65170761D01*
X165154666Y-65218380D01*
X165059428Y-65218380D01*
X164916571Y-65170761D01*
X164821333Y-65075523D01*
X164773714Y-64980285D01*
X164726095Y-64789809D01*
X164726095Y-64646952D01*
X164773714Y-64456476D01*
X164821333Y-64361238D01*
X164916571Y-64266000D01*
X165059428Y-64218380D01*
X165154666Y-64218380D01*
X165297523Y-64266000D01*
X165345142Y-64313619D01*
X165678476Y-64218380D02*
X166297523Y-64218380D01*
X165964190Y-64599333D01*
X166107047Y-64599333D01*
X166202285Y-64646952D01*
X166249904Y-64694571D01*
X166297523Y-64789809D01*
X166297523Y-65027904D01*
X166249904Y-65123142D01*
X166202285Y-65170761D01*
X166107047Y-65218380D01*
X165821333Y-65218380D01*
X165726095Y-65170761D01*
X165678476Y-65123142D01*
X166678476Y-64313619D02*
X166726095Y-64266000D01*
X166821333Y-64218380D01*
X167059428Y-64218380D01*
X167154666Y-64266000D01*
X167202285Y-64313619D01*
X167249904Y-64408857D01*
X167249904Y-64504095D01*
X167202285Y-64646952D01*
X166630857Y-65218380D01*
X167249904Y-65218380D01*
X165345142Y-68123142D02*
X165297523Y-68170761D01*
X165154666Y-68218380D01*
X165059428Y-68218380D01*
X164916571Y-68170761D01*
X164821333Y-68075523D01*
X164773714Y-67980285D01*
X164726095Y-67789809D01*
X164726095Y-67646952D01*
X164773714Y-67456476D01*
X164821333Y-67361238D01*
X164916571Y-67266000D01*
X165059428Y-67218380D01*
X165154666Y-67218380D01*
X165297523Y-67266000D01*
X165345142Y-67313619D01*
X165678476Y-67218380D02*
X166297523Y-67218380D01*
X165964190Y-67599333D01*
X166107047Y-67599333D01*
X166202285Y-67646952D01*
X166249904Y-67694571D01*
X166297523Y-67789809D01*
X166297523Y-68027904D01*
X166249904Y-68123142D01*
X166202285Y-68170761D01*
X166107047Y-68218380D01*
X165821333Y-68218380D01*
X165726095Y-68170761D01*
X165678476Y-68123142D01*
X167249904Y-68218380D02*
X166678476Y-68218380D01*
X166964190Y-68218380D02*
X166964190Y-67218380D01*
X166868952Y-67361238D01*
X166773714Y-67456476D01*
X166678476Y-67504095D01*
X165345142Y-74873142D02*
X165297523Y-74920761D01*
X165154666Y-74968380D01*
X165059428Y-74968380D01*
X164916571Y-74920761D01*
X164821333Y-74825523D01*
X164773714Y-74730285D01*
X164726095Y-74539809D01*
X164726095Y-74396952D01*
X164773714Y-74206476D01*
X164821333Y-74111238D01*
X164916571Y-74016000D01*
X165059428Y-73968380D01*
X165154666Y-73968380D01*
X165297523Y-74016000D01*
X165345142Y-74063619D01*
X165678476Y-73968380D02*
X166297523Y-73968380D01*
X165964190Y-74349333D01*
X166107047Y-74349333D01*
X166202285Y-74396952D01*
X166249904Y-74444571D01*
X166297523Y-74539809D01*
X166297523Y-74777904D01*
X166249904Y-74873142D01*
X166202285Y-74920761D01*
X166107047Y-74968380D01*
X165821333Y-74968380D01*
X165726095Y-74920761D01*
X165678476Y-74873142D01*
X166916571Y-73968380D02*
X167011809Y-73968380D01*
X167107047Y-74016000D01*
X167154666Y-74063619D01*
X167202285Y-74158857D01*
X167249904Y-74349333D01*
X167249904Y-74587428D01*
X167202285Y-74777904D01*
X167154666Y-74873142D01*
X167107047Y-74920761D01*
X167011809Y-74968380D01*
X166916571Y-74968380D01*
X166821333Y-74920761D01*
X166773714Y-74873142D01*
X166726095Y-74777904D01*
X166678476Y-74587428D01*
X166678476Y-74349333D01*
X166726095Y-74158857D01*
X166773714Y-74063619D01*
X166821333Y-74016000D01*
X166916571Y-73968380D01*
X165345142Y-71873142D02*
X165297523Y-71920761D01*
X165154666Y-71968380D01*
X165059428Y-71968380D01*
X164916571Y-71920761D01*
X164821333Y-71825523D01*
X164773714Y-71730285D01*
X164726095Y-71539809D01*
X164726095Y-71396952D01*
X164773714Y-71206476D01*
X164821333Y-71111238D01*
X164916571Y-71016000D01*
X165059428Y-70968380D01*
X165154666Y-70968380D01*
X165297523Y-71016000D01*
X165345142Y-71063619D01*
X165726095Y-71063619D02*
X165773714Y-71016000D01*
X165868952Y-70968380D01*
X166107047Y-70968380D01*
X166202285Y-71016000D01*
X166249904Y-71063619D01*
X166297523Y-71158857D01*
X166297523Y-71254095D01*
X166249904Y-71396952D01*
X165678476Y-71968380D01*
X166297523Y-71968380D01*
X166773714Y-71968380D02*
X166964190Y-71968380D01*
X167059428Y-71920761D01*
X167107047Y-71873142D01*
X167202285Y-71730285D01*
X167249904Y-71539809D01*
X167249904Y-71158857D01*
X167202285Y-71063619D01*
X167154666Y-71016000D01*
X167059428Y-70968380D01*
X166868952Y-70968380D01*
X166773714Y-71016000D01*
X166726095Y-71063619D01*
X166678476Y-71158857D01*
X166678476Y-71396952D01*
X166726095Y-71492190D01*
X166773714Y-71539809D01*
X166868952Y-71587428D01*
X167059428Y-71587428D01*
X167154666Y-71539809D01*
X167202285Y-71492190D01*
X167249904Y-71396952D01*
X145345142Y-74873142D02*
X145297523Y-74920761D01*
X145154666Y-74968380D01*
X145059428Y-74968380D01*
X144916571Y-74920761D01*
X144821333Y-74825523D01*
X144773714Y-74730285D01*
X144726095Y-74539809D01*
X144726095Y-74396952D01*
X144773714Y-74206476D01*
X144821333Y-74111238D01*
X144916571Y-74016000D01*
X145059428Y-73968380D01*
X145154666Y-73968380D01*
X145297523Y-74016000D01*
X145345142Y-74063619D01*
X145726095Y-74063619D02*
X145773714Y-74016000D01*
X145868952Y-73968380D01*
X146107047Y-73968380D01*
X146202285Y-74016000D01*
X146249904Y-74063619D01*
X146297523Y-74158857D01*
X146297523Y-74254095D01*
X146249904Y-74396952D01*
X145678476Y-74968380D01*
X146297523Y-74968380D01*
X146868952Y-74396952D02*
X146773714Y-74349333D01*
X146726095Y-74301714D01*
X146678476Y-74206476D01*
X146678476Y-74158857D01*
X146726095Y-74063619D01*
X146773714Y-74016000D01*
X146868952Y-73968380D01*
X147059428Y-73968380D01*
X147154666Y-74016000D01*
X147202285Y-74063619D01*
X147249904Y-74158857D01*
X147249904Y-74206476D01*
X147202285Y-74301714D01*
X147154666Y-74349333D01*
X147059428Y-74396952D01*
X146868952Y-74396952D01*
X146773714Y-74444571D01*
X146726095Y-74492190D01*
X146678476Y-74587428D01*
X146678476Y-74777904D01*
X146726095Y-74873142D01*
X146773714Y-74920761D01*
X146868952Y-74968380D01*
X147059428Y-74968380D01*
X147154666Y-74920761D01*
X147202285Y-74873142D01*
X147249904Y-74777904D01*
X147249904Y-74587428D01*
X147202285Y-74492190D01*
X147154666Y-74444571D01*
X147059428Y-74396952D01*
X145345142Y-71873142D02*
X145297523Y-71920761D01*
X145154666Y-71968380D01*
X145059428Y-71968380D01*
X144916571Y-71920761D01*
X144821333Y-71825523D01*
X144773714Y-71730285D01*
X144726095Y-71539809D01*
X144726095Y-71396952D01*
X144773714Y-71206476D01*
X144821333Y-71111238D01*
X144916571Y-71016000D01*
X145059428Y-70968380D01*
X145154666Y-70968380D01*
X145297523Y-71016000D01*
X145345142Y-71063619D01*
X145726095Y-71063619D02*
X145773714Y-71016000D01*
X145868952Y-70968380D01*
X146107047Y-70968380D01*
X146202285Y-71016000D01*
X146249904Y-71063619D01*
X146297523Y-71158857D01*
X146297523Y-71254095D01*
X146249904Y-71396952D01*
X145678476Y-71968380D01*
X146297523Y-71968380D01*
X146630857Y-70968380D02*
X147297523Y-70968380D01*
X146868952Y-71968380D01*
X145345142Y-65123142D02*
X145297523Y-65170761D01*
X145154666Y-65218380D01*
X145059428Y-65218380D01*
X144916571Y-65170761D01*
X144821333Y-65075523D01*
X144773714Y-64980285D01*
X144726095Y-64789809D01*
X144726095Y-64646952D01*
X144773714Y-64456476D01*
X144821333Y-64361238D01*
X144916571Y-64266000D01*
X145059428Y-64218380D01*
X145154666Y-64218380D01*
X145297523Y-64266000D01*
X145345142Y-64313619D01*
X145726095Y-64313619D02*
X145773714Y-64266000D01*
X145868952Y-64218380D01*
X146107047Y-64218380D01*
X146202285Y-64266000D01*
X146249904Y-64313619D01*
X146297523Y-64408857D01*
X146297523Y-64504095D01*
X146249904Y-64646952D01*
X145678476Y-65218380D01*
X146297523Y-65218380D01*
X147154666Y-64218380D02*
X146964190Y-64218380D01*
X146868952Y-64266000D01*
X146821333Y-64313619D01*
X146726095Y-64456476D01*
X146678476Y-64646952D01*
X146678476Y-65027904D01*
X146726095Y-65123142D01*
X146773714Y-65170761D01*
X146868952Y-65218380D01*
X147059428Y-65218380D01*
X147154666Y-65170761D01*
X147202285Y-65123142D01*
X147249904Y-65027904D01*
X147249904Y-64789809D01*
X147202285Y-64694571D01*
X147154666Y-64646952D01*
X147059428Y-64599333D01*
X146868952Y-64599333D01*
X146773714Y-64646952D01*
X146726095Y-64694571D01*
X146678476Y-64789809D01*
X145345142Y-68123142D02*
X145297523Y-68170761D01*
X145154666Y-68218380D01*
X145059428Y-68218380D01*
X144916571Y-68170761D01*
X144821333Y-68075523D01*
X144773714Y-67980285D01*
X144726095Y-67789809D01*
X144726095Y-67646952D01*
X144773714Y-67456476D01*
X144821333Y-67361238D01*
X144916571Y-67266000D01*
X145059428Y-67218380D01*
X145154666Y-67218380D01*
X145297523Y-67266000D01*
X145345142Y-67313619D01*
X145726095Y-67313619D02*
X145773714Y-67266000D01*
X145868952Y-67218380D01*
X146107047Y-67218380D01*
X146202285Y-67266000D01*
X146249904Y-67313619D01*
X146297523Y-67408857D01*
X146297523Y-67504095D01*
X146249904Y-67646952D01*
X145678476Y-68218380D01*
X146297523Y-68218380D01*
X147202285Y-67218380D02*
X146726095Y-67218380D01*
X146678476Y-67694571D01*
X146726095Y-67646952D01*
X146821333Y-67599333D01*
X147059428Y-67599333D01*
X147154666Y-67646952D01*
X147202285Y-67694571D01*
X147249904Y-67789809D01*
X147249904Y-68027904D01*
X147202285Y-68123142D01*
X147154666Y-68170761D01*
X147059428Y-68218380D01*
X146821333Y-68218380D01*
X146726095Y-68170761D01*
X146678476Y-68123142D01*
X132720142Y-83373142D02*
X132672523Y-83420761D01*
X132529666Y-83468380D01*
X132434428Y-83468380D01*
X132291571Y-83420761D01*
X132196333Y-83325523D01*
X132148714Y-83230285D01*
X132101095Y-83039809D01*
X132101095Y-82896952D01*
X132148714Y-82706476D01*
X132196333Y-82611238D01*
X132291571Y-82516000D01*
X132434428Y-82468380D01*
X132529666Y-82468380D01*
X132672523Y-82516000D01*
X132720142Y-82563619D01*
X133101095Y-82563619D02*
X133148714Y-82516000D01*
X133243952Y-82468380D01*
X133482047Y-82468380D01*
X133577285Y-82516000D01*
X133624904Y-82563619D01*
X133672523Y-82658857D01*
X133672523Y-82754095D01*
X133624904Y-82896952D01*
X133053476Y-83468380D01*
X133672523Y-83468380D01*
X134529666Y-82801714D02*
X134529666Y-83468380D01*
X134291571Y-82420761D02*
X134053476Y-83135047D01*
X134672523Y-83135047D01*
X125345142Y-98623142D02*
X125297523Y-98670761D01*
X125154666Y-98718380D01*
X125059428Y-98718380D01*
X124916571Y-98670761D01*
X124821333Y-98575523D01*
X124773714Y-98480285D01*
X124726095Y-98289809D01*
X124726095Y-98146952D01*
X124773714Y-97956476D01*
X124821333Y-97861238D01*
X124916571Y-97766000D01*
X125059428Y-97718380D01*
X125154666Y-97718380D01*
X125297523Y-97766000D01*
X125345142Y-97813619D01*
X125726095Y-97813619D02*
X125773714Y-97766000D01*
X125868952Y-97718380D01*
X126107047Y-97718380D01*
X126202285Y-97766000D01*
X126249904Y-97813619D01*
X126297523Y-97908857D01*
X126297523Y-98004095D01*
X126249904Y-98146952D01*
X125678476Y-98718380D01*
X126297523Y-98718380D01*
X126630857Y-97718380D02*
X127249904Y-97718380D01*
X126916571Y-98099333D01*
X127059428Y-98099333D01*
X127154666Y-98146952D01*
X127202285Y-98194571D01*
X127249904Y-98289809D01*
X127249904Y-98527904D01*
X127202285Y-98623142D01*
X127154666Y-98670761D01*
X127059428Y-98718380D01*
X126773714Y-98718380D01*
X126678476Y-98670761D01*
X126630857Y-98623142D01*
X125345142Y-77373142D02*
X125297523Y-77420761D01*
X125154666Y-77468380D01*
X125059428Y-77468380D01*
X124916571Y-77420761D01*
X124821333Y-77325523D01*
X124773714Y-77230285D01*
X124726095Y-77039809D01*
X124726095Y-76896952D01*
X124773714Y-76706476D01*
X124821333Y-76611238D01*
X124916571Y-76516000D01*
X125059428Y-76468380D01*
X125154666Y-76468380D01*
X125297523Y-76516000D01*
X125345142Y-76563619D01*
X125726095Y-76563619D02*
X125773714Y-76516000D01*
X125868952Y-76468380D01*
X126107047Y-76468380D01*
X126202285Y-76516000D01*
X126249904Y-76563619D01*
X126297523Y-76658857D01*
X126297523Y-76754095D01*
X126249904Y-76896952D01*
X125678476Y-77468380D01*
X126297523Y-77468380D01*
X126678476Y-76563619D02*
X126726095Y-76516000D01*
X126821333Y-76468380D01*
X127059428Y-76468380D01*
X127154666Y-76516000D01*
X127202285Y-76563619D01*
X127249904Y-76658857D01*
X127249904Y-76754095D01*
X127202285Y-76896952D01*
X126630857Y-77468380D01*
X127249904Y-77468380D01*
X123095142Y-83123142D02*
X123047523Y-83170761D01*
X122904666Y-83218380D01*
X122809428Y-83218380D01*
X122666571Y-83170761D01*
X122571333Y-83075523D01*
X122523714Y-82980285D01*
X122476095Y-82789809D01*
X122476095Y-82646952D01*
X122523714Y-82456476D01*
X122571333Y-82361238D01*
X122666571Y-82266000D01*
X122809428Y-82218380D01*
X122904666Y-82218380D01*
X123047523Y-82266000D01*
X123095142Y-82313619D01*
X123476095Y-82313619D02*
X123523714Y-82266000D01*
X123618952Y-82218380D01*
X123857047Y-82218380D01*
X123952285Y-82266000D01*
X123999904Y-82313619D01*
X124047523Y-82408857D01*
X124047523Y-82504095D01*
X123999904Y-82646952D01*
X123428476Y-83218380D01*
X124047523Y-83218380D01*
X124999904Y-83218380D02*
X124428476Y-83218380D01*
X124714190Y-83218380D02*
X124714190Y-82218380D01*
X124618952Y-82361238D01*
X124523714Y-82456476D01*
X124428476Y-82504095D01*
X123345142Y-101908857D02*
X123392761Y-101956476D01*
X123440380Y-102099333D01*
X123440380Y-102194571D01*
X123392761Y-102337428D01*
X123297523Y-102432666D01*
X123202285Y-102480285D01*
X123011809Y-102527904D01*
X122868952Y-102527904D01*
X122678476Y-102480285D01*
X122583238Y-102432666D01*
X122488000Y-102337428D01*
X122440380Y-102194571D01*
X122440380Y-102099333D01*
X122488000Y-101956476D01*
X122535619Y-101908857D01*
X122535619Y-101527904D02*
X122488000Y-101480285D01*
X122440380Y-101385047D01*
X122440380Y-101146952D01*
X122488000Y-101051714D01*
X122535619Y-101004095D01*
X122630857Y-100956476D01*
X122726095Y-100956476D01*
X122868952Y-101004095D01*
X123440380Y-101575523D01*
X123440380Y-100956476D01*
X122440380Y-100337428D02*
X122440380Y-100242190D01*
X122488000Y-100146952D01*
X122535619Y-100099333D01*
X122630857Y-100051714D01*
X122821333Y-100004095D01*
X123059428Y-100004095D01*
X123249904Y-100051714D01*
X123345142Y-100099333D01*
X123392761Y-100146952D01*
X123440380Y-100242190D01*
X123440380Y-100337428D01*
X123392761Y-100432666D01*
X123345142Y-100480285D01*
X123249904Y-100527904D01*
X123059428Y-100575523D01*
X122821333Y-100575523D01*
X122630857Y-100527904D01*
X122535619Y-100480285D01*
X122488000Y-100432666D01*
X122440380Y-100337428D01*
X122845142Y-62943142D02*
X122797523Y-62990761D01*
X122654666Y-63038380D01*
X122559428Y-63038380D01*
X122416571Y-62990761D01*
X122321333Y-62895523D01*
X122273714Y-62800285D01*
X122226095Y-62609809D01*
X122226095Y-62466952D01*
X122273714Y-62276476D01*
X122321333Y-62181238D01*
X122416571Y-62086000D01*
X122559428Y-62038380D01*
X122654666Y-62038380D01*
X122797523Y-62086000D01*
X122845142Y-62133619D01*
X123797523Y-63038380D02*
X123226095Y-63038380D01*
X123511809Y-63038380D02*
X123511809Y-62038380D01*
X123416571Y-62181238D01*
X123321333Y-62276476D01*
X123226095Y-62324095D01*
X124273714Y-63038380D02*
X124464190Y-63038380D01*
X124559428Y-62990761D01*
X124607047Y-62943142D01*
X124702285Y-62800285D01*
X124749904Y-62609809D01*
X124749904Y-62228857D01*
X124702285Y-62133619D01*
X124654666Y-62086000D01*
X124559428Y-62038380D01*
X124368952Y-62038380D01*
X124273714Y-62086000D01*
X124226095Y-62133619D01*
X124178476Y-62228857D01*
X124178476Y-62466952D01*
X124226095Y-62562190D01*
X124273714Y-62609809D01*
X124368952Y-62657428D01*
X124559428Y-62657428D01*
X124654666Y-62609809D01*
X124702285Y-62562190D01*
X124749904Y-62466952D01*
X123095142Y-80908857D02*
X123142761Y-80956476D01*
X123190380Y-81099333D01*
X123190380Y-81194571D01*
X123142761Y-81337428D01*
X123047523Y-81432666D01*
X122952285Y-81480285D01*
X122761809Y-81527904D01*
X122618952Y-81527904D01*
X122428476Y-81480285D01*
X122333238Y-81432666D01*
X122238000Y-81337428D01*
X122190380Y-81194571D01*
X122190380Y-81099333D01*
X122238000Y-80956476D01*
X122285619Y-80908857D01*
X123190380Y-79956476D02*
X123190380Y-80527904D01*
X123190380Y-80242190D02*
X122190380Y-80242190D01*
X122333238Y-80337428D01*
X122428476Y-80432666D01*
X122476095Y-80527904D01*
X122618952Y-79385047D02*
X122571333Y-79480285D01*
X122523714Y-79527904D01*
X122428476Y-79575523D01*
X122380857Y-79575523D01*
X122285619Y-79527904D01*
X122238000Y-79480285D01*
X122190380Y-79385047D01*
X122190380Y-79194571D01*
X122238000Y-79099333D01*
X122285619Y-79051714D01*
X122380857Y-79004095D01*
X122428476Y-79004095D01*
X122523714Y-79051714D01*
X122571333Y-79099333D01*
X122618952Y-79194571D01*
X122618952Y-79385047D01*
X122666571Y-79480285D01*
X122714190Y-79527904D01*
X122809428Y-79575523D01*
X122999904Y-79575523D01*
X123095142Y-79527904D01*
X123142761Y-79480285D01*
X123190380Y-79385047D01*
X123190380Y-79194571D01*
X123142761Y-79099333D01*
X123095142Y-79051714D01*
X122999904Y-79004095D01*
X122809428Y-79004095D01*
X122714190Y-79051714D01*
X122666571Y-79099333D01*
X122618952Y-79194571D01*
X119345142Y-90803142D02*
X119297523Y-90850761D01*
X119154666Y-90898380D01*
X119059428Y-90898380D01*
X118916571Y-90850761D01*
X118821333Y-90755523D01*
X118773714Y-90660285D01*
X118726095Y-90469809D01*
X118726095Y-90326952D01*
X118773714Y-90136476D01*
X118821333Y-90041238D01*
X118916571Y-89946000D01*
X119059428Y-89898380D01*
X119154666Y-89898380D01*
X119297523Y-89946000D01*
X119345142Y-89993619D01*
X120297523Y-90898380D02*
X119726095Y-90898380D01*
X120011809Y-90898380D02*
X120011809Y-89898380D01*
X119916571Y-90041238D01*
X119821333Y-90136476D01*
X119726095Y-90184095D01*
X120630857Y-89898380D02*
X121297523Y-89898380D01*
X120868952Y-90898380D01*
X119345142Y-92123142D02*
X119297523Y-92170761D01*
X119154666Y-92218380D01*
X119059428Y-92218380D01*
X118916571Y-92170761D01*
X118821333Y-92075523D01*
X118773714Y-91980285D01*
X118726095Y-91789809D01*
X118726095Y-91646952D01*
X118773714Y-91456476D01*
X118821333Y-91361238D01*
X118916571Y-91266000D01*
X119059428Y-91218380D01*
X119154666Y-91218380D01*
X119297523Y-91266000D01*
X119345142Y-91313619D01*
X120297523Y-92218380D02*
X119726095Y-92218380D01*
X120011809Y-92218380D02*
X120011809Y-91218380D01*
X119916571Y-91361238D01*
X119821333Y-91456476D01*
X119726095Y-91504095D01*
X121154666Y-91218380D02*
X120964190Y-91218380D01*
X120868952Y-91266000D01*
X120821333Y-91313619D01*
X120726095Y-91456476D01*
X120678476Y-91646952D01*
X120678476Y-92027904D01*
X120726095Y-92123142D01*
X120773714Y-92170761D01*
X120868952Y-92218380D01*
X121059428Y-92218380D01*
X121154666Y-92170761D01*
X121202285Y-92123142D01*
X121249904Y-92027904D01*
X121249904Y-91789809D01*
X121202285Y-91694571D01*
X121154666Y-91646952D01*
X121059428Y-91599333D01*
X120868952Y-91599333D01*
X120773714Y-91646952D01*
X120726095Y-91694571D01*
X120678476Y-91789809D01*
X119095142Y-70553142D02*
X119047523Y-70600761D01*
X118904666Y-70648380D01*
X118809428Y-70648380D01*
X118666571Y-70600761D01*
X118571333Y-70505523D01*
X118523714Y-70410285D01*
X118476095Y-70219809D01*
X118476095Y-70076952D01*
X118523714Y-69886476D01*
X118571333Y-69791238D01*
X118666571Y-69696000D01*
X118809428Y-69648380D01*
X118904666Y-69648380D01*
X119047523Y-69696000D01*
X119095142Y-69743619D01*
X120047523Y-70648380D02*
X119476095Y-70648380D01*
X119761809Y-70648380D02*
X119761809Y-69648380D01*
X119666571Y-69791238D01*
X119571333Y-69886476D01*
X119476095Y-69934095D01*
X120952285Y-69648380D02*
X120476095Y-69648380D01*
X120428476Y-70124571D01*
X120476095Y-70076952D01*
X120571333Y-70029333D01*
X120809428Y-70029333D01*
X120904666Y-70076952D01*
X120952285Y-70124571D01*
X120999904Y-70219809D01*
X120999904Y-70457904D01*
X120952285Y-70553142D01*
X120904666Y-70600761D01*
X120809428Y-70648380D01*
X120571333Y-70648380D01*
X120476095Y-70600761D01*
X120428476Y-70553142D01*
X119095142Y-72123142D02*
X119047523Y-72170761D01*
X118904666Y-72218380D01*
X118809428Y-72218380D01*
X118666571Y-72170761D01*
X118571333Y-72075523D01*
X118523714Y-71980285D01*
X118476095Y-71789809D01*
X118476095Y-71646952D01*
X118523714Y-71456476D01*
X118571333Y-71361238D01*
X118666571Y-71266000D01*
X118809428Y-71218380D01*
X118904666Y-71218380D01*
X119047523Y-71266000D01*
X119095142Y-71313619D01*
X120047523Y-72218380D02*
X119476095Y-72218380D01*
X119761809Y-72218380D02*
X119761809Y-71218380D01*
X119666571Y-71361238D01*
X119571333Y-71456476D01*
X119476095Y-71504095D01*
X120904666Y-71551714D02*
X120904666Y-72218380D01*
X120666571Y-71170761D02*
X120428476Y-71885047D01*
X121047523Y-71885047D01*
X131165142Y-139438857D02*
X131212761Y-139486476D01*
X131260380Y-139629333D01*
X131260380Y-139724571D01*
X131212761Y-139867428D01*
X131117523Y-139962666D01*
X131022285Y-140010285D01*
X130831809Y-140057904D01*
X130688952Y-140057904D01*
X130498476Y-140010285D01*
X130403238Y-139962666D01*
X130308000Y-139867428D01*
X130260380Y-139724571D01*
X130260380Y-139629333D01*
X130308000Y-139486476D01*
X130355619Y-139438857D01*
X131260380Y-138486476D02*
X131260380Y-139057904D01*
X131260380Y-138772190D02*
X130260380Y-138772190D01*
X130403238Y-138867428D01*
X130498476Y-138962666D01*
X130546095Y-139057904D01*
X130355619Y-138105523D02*
X130308000Y-138057904D01*
X130260380Y-137962666D01*
X130260380Y-137724571D01*
X130308000Y-137629333D01*
X130355619Y-137581714D01*
X130450857Y-137534095D01*
X130546095Y-137534095D01*
X130688952Y-137581714D01*
X131260380Y-138153142D01*
X131260380Y-137534095D01*
X138665142Y-120153142D02*
X138617523Y-120200761D01*
X138474666Y-120248380D01*
X138379428Y-120248380D01*
X138236571Y-120200761D01*
X138141333Y-120105523D01*
X138093714Y-120010285D01*
X138046095Y-119819809D01*
X138046095Y-119676952D01*
X138093714Y-119486476D01*
X138141333Y-119391238D01*
X138236571Y-119296000D01*
X138379428Y-119248380D01*
X138474666Y-119248380D01*
X138617523Y-119296000D01*
X138665142Y-119343619D01*
X139617523Y-120248380D02*
X139046095Y-120248380D01*
X139331809Y-120248380D02*
X139331809Y-119248380D01*
X139236571Y-119391238D01*
X139141333Y-119486476D01*
X139046095Y-119534095D01*
X140569904Y-120248380D02*
X139998476Y-120248380D01*
X140284190Y-120248380D02*
X140284190Y-119248380D01*
X140188952Y-119391238D01*
X140093714Y-119486476D01*
X139998476Y-119534095D01*
X135739142Y-141358857D02*
X135786761Y-141406476D01*
X135834380Y-141549333D01*
X135834380Y-141644571D01*
X135786761Y-141787428D01*
X135691523Y-141882666D01*
X135596285Y-141930285D01*
X135405809Y-141977904D01*
X135262952Y-141977904D01*
X135072476Y-141930285D01*
X134977238Y-141882666D01*
X134882000Y-141787428D01*
X134834380Y-141644571D01*
X134834380Y-141549333D01*
X134882000Y-141406476D01*
X134929619Y-141358857D01*
X135834380Y-140406476D02*
X135834380Y-140977904D01*
X135834380Y-140692190D02*
X134834380Y-140692190D01*
X134977238Y-140787428D01*
X135072476Y-140882666D01*
X135120095Y-140977904D01*
X134834380Y-139787428D02*
X134834380Y-139692190D01*
X134882000Y-139596952D01*
X134929619Y-139549333D01*
X135024857Y-139501714D01*
X135215333Y-139454095D01*
X135453428Y-139454095D01*
X135643904Y-139501714D01*
X135739142Y-139549333D01*
X135786761Y-139596952D01*
X135834380Y-139692190D01*
X135834380Y-139787428D01*
X135786761Y-139882666D01*
X135739142Y-139930285D01*
X135643904Y-139977904D01*
X135453428Y-140025523D01*
X135215333Y-140025523D01*
X135024857Y-139977904D01*
X134929619Y-139930285D01*
X134882000Y-139882666D01*
X134834380Y-139787428D01*
X131641333Y-116778142D02*
X131593714Y-116825761D01*
X131450857Y-116873380D01*
X131355619Y-116873380D01*
X131212761Y-116825761D01*
X131117523Y-116730523D01*
X131069904Y-116635285D01*
X131022285Y-116444809D01*
X131022285Y-116301952D01*
X131069904Y-116111476D01*
X131117523Y-116016238D01*
X131212761Y-115921000D01*
X131355619Y-115873380D01*
X131450857Y-115873380D01*
X131593714Y-115921000D01*
X131641333Y-115968619D01*
X132117523Y-116873380D02*
X132308000Y-116873380D01*
X132403238Y-116825761D01*
X132450857Y-116778142D01*
X132546095Y-116635285D01*
X132593714Y-116444809D01*
X132593714Y-116063857D01*
X132546095Y-115968619D01*
X132498476Y-115921000D01*
X132403238Y-115873380D01*
X132212761Y-115873380D01*
X132117523Y-115921000D01*
X132069904Y-115968619D01*
X132022285Y-116063857D01*
X132022285Y-116301952D01*
X132069904Y-116397190D01*
X132117523Y-116444809D01*
X132212761Y-116492428D01*
X132403238Y-116492428D01*
X132498476Y-116444809D01*
X132546095Y-116397190D01*
X132593714Y-116301952D01*
X107735142Y-136462666D02*
X107782761Y-136510285D01*
X107830380Y-136653142D01*
X107830380Y-136748380D01*
X107782761Y-136891238D01*
X107687523Y-136986476D01*
X107592285Y-137034095D01*
X107401809Y-137081714D01*
X107258952Y-137081714D01*
X107068476Y-137034095D01*
X106973238Y-136986476D01*
X106878000Y-136891238D01*
X106830380Y-136748380D01*
X106830380Y-136653142D01*
X106878000Y-136510285D01*
X106925619Y-136462666D01*
X106830380Y-136129333D02*
X106830380Y-135462666D01*
X107830380Y-135891238D01*
X115641333Y-101723142D02*
X115593714Y-101770761D01*
X115450857Y-101818380D01*
X115355619Y-101818380D01*
X115212761Y-101770761D01*
X115117523Y-101675523D01*
X115069904Y-101580285D01*
X115022285Y-101389809D01*
X115022285Y-101246952D01*
X115069904Y-101056476D01*
X115117523Y-100961238D01*
X115212761Y-100866000D01*
X115355619Y-100818380D01*
X115450857Y-100818380D01*
X115593714Y-100866000D01*
X115641333Y-100913619D01*
X116498476Y-100818380D02*
X116308000Y-100818380D01*
X116212761Y-100866000D01*
X116165142Y-100913619D01*
X116069904Y-101056476D01*
X116022285Y-101246952D01*
X116022285Y-101627904D01*
X116069904Y-101723142D01*
X116117523Y-101770761D01*
X116212761Y-101818380D01*
X116403238Y-101818380D01*
X116498476Y-101770761D01*
X116546095Y-101723142D01*
X116593714Y-101627904D01*
X116593714Y-101389809D01*
X116546095Y-101294571D01*
X116498476Y-101246952D01*
X116403238Y-101199333D01*
X116212761Y-101199333D01*
X116117523Y-101246952D01*
X116069904Y-101294571D01*
X116022285Y-101389809D01*
X122641333Y-129653142D02*
X122593714Y-129700761D01*
X122450857Y-129748380D01*
X122355619Y-129748380D01*
X122212761Y-129700761D01*
X122117523Y-129605523D01*
X122069904Y-129510285D01*
X122022285Y-129319809D01*
X122022285Y-129176952D01*
X122069904Y-128986476D01*
X122117523Y-128891238D01*
X122212761Y-128796000D01*
X122355619Y-128748380D01*
X122450857Y-128748380D01*
X122593714Y-128796000D01*
X122641333Y-128843619D01*
X123498476Y-129081714D02*
X123498476Y-129748380D01*
X123260380Y-128700761D02*
X123022285Y-129415047D01*
X123641333Y-129415047D01*
X116641333Y-120153142D02*
X116593714Y-120200761D01*
X116450857Y-120248380D01*
X116355619Y-120248380D01*
X116212761Y-120200761D01*
X116117523Y-120105523D01*
X116069904Y-120010285D01*
X116022285Y-119819809D01*
X116022285Y-119676952D01*
X116069904Y-119486476D01*
X116117523Y-119391238D01*
X116212761Y-119296000D01*
X116355619Y-119248380D01*
X116450857Y-119248380D01*
X116593714Y-119296000D01*
X116641333Y-119343619D01*
X116974666Y-119248380D02*
X117593714Y-119248380D01*
X117260380Y-119629333D01*
X117403238Y-119629333D01*
X117498476Y-119676952D01*
X117546095Y-119724571D01*
X117593714Y-119819809D01*
X117593714Y-120057904D01*
X117546095Y-120153142D01*
X117498476Y-120200761D01*
X117403238Y-120248380D01*
X117117523Y-120248380D01*
X117022285Y-120200761D01*
X116974666Y-120153142D01*
X119641333Y-130153142D02*
X119593714Y-130200761D01*
X119450857Y-130248380D01*
X119355619Y-130248380D01*
X119212761Y-130200761D01*
X119117523Y-130105523D01*
X119069904Y-130010285D01*
X119022285Y-129819809D01*
X119022285Y-129676952D01*
X119069904Y-129486476D01*
X119117523Y-129391238D01*
X119212761Y-129296000D01*
X119355619Y-129248380D01*
X119450857Y-129248380D01*
X119593714Y-129296000D01*
X119641333Y-129343619D01*
X120022285Y-129343619D02*
X120069904Y-129296000D01*
X120165142Y-129248380D01*
X120403238Y-129248380D01*
X120498476Y-129296000D01*
X120546095Y-129343619D01*
X120593714Y-129438857D01*
X120593714Y-129534095D01*
X120546095Y-129676952D01*
X119974666Y-130248380D01*
X120593714Y-130248380D01*
X113641333Y-123153142D02*
X113593714Y-123200761D01*
X113450857Y-123248380D01*
X113355619Y-123248380D01*
X113212761Y-123200761D01*
X113117523Y-123105523D01*
X113069904Y-123010285D01*
X113022285Y-122819809D01*
X113022285Y-122676952D01*
X113069904Y-122486476D01*
X113117523Y-122391238D01*
X113212761Y-122296000D01*
X113355619Y-122248380D01*
X113450857Y-122248380D01*
X113593714Y-122296000D01*
X113641333Y-122343619D01*
X114593714Y-123248380D02*
X114022285Y-123248380D01*
X114308000Y-123248380D02*
X114308000Y-122248380D01*
X114212761Y-122391238D01*
X114117523Y-122486476D01*
X114022285Y-122534095D01*
M02*
